<svg width="34" height="35" viewBox="0 0 34 35" fill="none" xmlns="http://www.w3.org/2000/svg">
<path d="M2.496 34C1.92 34 1.44 33.808 1.056 33.424C0.671997 33.04 0.479997 32.56 0.479997 31.984C0.479997 31.408 0.671997 30.928 1.056 30.544C1.44 30.128 1.92 29.92 2.496 29.92H8.208V5.58397L3.312 7.98397C3.152 8.04797 2.992 8.11197 2.832 8.17597C2.672 8.23997 2.464 8.27197 2.208 8.27197C1.6 8.27197 1.104 8.07997 0.719997 7.69597C0.335997 7.31197 0.143997 6.81597 0.143997 6.20797C0.143997 5.31197 0.559997 4.65597 1.392 4.23997L7.92 0.83197C8.368 0.607971 8.816 0.495972 9.264 0.495972H10.272C10.912 0.495972 11.456 0.719972 11.904 1.16797C12.352 1.61597 12.576 2.15997 12.576 2.79997V29.92H17.328C17.904 29.92 18.384 30.128 18.768 30.544C19.184 30.928 19.392 31.408 19.392 31.984C19.392 32.56 19.184 33.04 18.768 33.424C18.384 33.808 17.904 34 17.328 34H2.496Z" fill="url(#paint0_linear_991_772)"/>
<path d="M30.1406 34.144C29.4046 34.144 28.7646 33.888 28.2206 33.376C27.7086 32.832 27.4526 32.192 27.4526 31.456V31.168C27.4526 30.432 27.7086 29.808 28.2206 29.296C28.7646 28.752 29.4046 28.48 30.1406 28.48H30.6206C31.3566 28.48 31.9806 28.752 32.4926 29.296C33.0366 29.808 33.3086 30.432 33.3086 31.168V31.456C33.3086 32.192 33.0366 32.832 32.4926 33.376C31.9806 33.888 31.3566 34.144 30.6206 34.144H30.1406Z" fill="url(#paint1_linear_991_772)"/>
<defs>
<linearGradient id="paint0_linear_991_772" x1="15.5" y1="-9.99999" x2="15.5" y2="47.9997" gradientUnits="userSpaceOnUse">
<stop stop-color="#2764E0"/>
<stop offset="1" stop-color="#DD0858"/>
</linearGradient>
<linearGradient id="paint1_linear_991_772" x1="15.5" y1="-9.99999" x2="15.5" y2="47.9997" gradientUnits="userSpaceOnUse">
<stop stop-color="#2764E0"/>
<stop offset="1" stop-color="#DD0858"/>
</linearGradient>
</defs>
</svg>
