<svg width="37" height="35" viewBox="0 0 37 35" fill="none" xmlns="http://www.w3.org/2000/svg">
<path d="M2.664 34C1.928 34 1.32 33.776 0.839995 33.328C0.359995 32.848 0.119995 32.24 0.119995 31.504C0.119995 29.808 0.583995 28.288 1.512 26.944C2.44 25.568 3.624 24.32 5.064 23.2C6.536 22.048 8.088 20.96 9.72 19.936C11.352 18.912 12.888 17.904 14.328 16.912C15.8 15.888 17 14.832 17.928 13.744C18.856 12.624 19.32 11.408 19.32 10.096C19.32 8.39999 18.744 6.99199 17.592 5.87199C16.472 4.71999 14.52 4.14399 11.736 4.14399C10.104 4.14399 8.6 4.31999 7.224 4.67199C5.848 4.99199 4.61599 5.39199 3.528 5.87199C3.496 5.90399 3.384 5.95199 3.192 6.01599C2.99999 6.07999 2.808 6.11199 2.616 6.11199C2.104 6.11199 1.672 5.93599 1.32 5.58399C0.967995 5.19999 0.791995 4.75199 0.791995 4.23999C0.791995 3.43999 1.144 2.84799 1.848 2.46399C3.192 1.79199 4.744 1.21599 6.504 0.735991C8.296 0.255991 10.296 0.0159912 12.504 0.0159912C14.552 0.0159912 16.408 0.431991 18.072 1.26399C19.736 2.06399 21.064 3.19999 22.056 4.67199C23.048 6.11199 23.544 7.80799 23.544 9.75999C23.544 11.392 23.144 12.912 22.344 14.32C21.544 15.696 20.488 16.976 19.176 18.16C17.896 19.312 16.504 20.416 15 21.472C13.496 22.496 12.024 23.472 10.584 24.4C9.144 25.328 7.88 26.256 6.792 27.184C5.704 28.08 4.936 28.992 4.488 29.92H21.192C21.768 29.92 22.248 30.128 22.632 30.544C23.048 30.928 23.256 31.408 23.256 31.984C23.256 32.56 23.048 33.04 22.632 33.424C22.248 33.808 21.768 34 21.192 34H2.664Z" fill="url(#paint0_linear_991_771)"/>
<path d="M33.1406 34.144C32.4046 34.144 31.7646 33.888 31.2206 33.376C30.7086 32.832 30.4526 32.192 30.4526 31.456V31.168C30.4526 30.432 30.7086 29.808 31.2206 29.296C31.7646 28.752 32.4046 28.48 33.1406 28.48H33.6206C34.3566 28.48 34.9806 28.752 35.4926 29.296C36.0366 29.808 36.3086 30.432 36.3086 31.168V31.456C36.3086 32.192 36.0366 32.832 35.4926 33.376C34.9806 33.888 34.3566 34.144 33.6206 34.144H33.1406Z" fill="url(#paint1_linear_991_771)"/>
<defs>
<linearGradient id="paint0_linear_991_771" x1="18.5" y1="-9.99999" x2="18.5" y2="47.9997" gradientUnits="userSpaceOnUse">
<stop stop-color="#2764E0"/>
<stop offset="1" stop-color="#DD0858"/>
</linearGradient>
<linearGradient id="paint1_linear_991_771" x1="18.5" y1="-9.99999" x2="18.5" y2="47.9997" gradientUnits="userSpaceOnUse">
<stop stop-color="#2764E0"/>
<stop offset="1" stop-color="#DD0858"/>
</linearGradient>
</defs>
</svg>
