<svg width="38" height="35" viewBox="0 0 38 35" fill="none" xmlns="http://www.w3.org/2000/svg">
<path d="M12.112 34.4801C9.968 34.4801 8.048 34.2881 6.352 33.9041C4.688 33.4881 3.264 33.0401 2.08 32.5601C1.728 32.4001 1.424 32.1761 1.168 31.8881C0.944001 31.5681 0.832001 31.1841 0.832001 30.7361C0.832001 30.2241 1.008 29.7601 1.36 29.3441C1.712 28.9281 2.176 28.7201 2.752 28.7201C3.04 28.7201 3.344 28.7841 3.664 28.9121C4.624 29.2961 5.744 29.6321 7.024 29.9201C8.304 30.1761 9.728 30.3041 11.296 30.3041C12.704 30.3041 14.08 30.1601 15.424 29.8721C16.8 29.5521 17.936 29.0081 18.832 28.2401C19.728 27.4721 20.176 26.3841 20.176 24.9761C20.176 23.7921 19.84 22.7521 19.168 21.8561C18.496 20.9281 17.392 20.2081 15.856 19.6961C14.32 19.1841 12.224 18.9281 9.568 18.9281H8.8C8.256 18.9281 7.776 18.7361 7.36 18.3521C6.976 17.9361 6.784 17.4561 6.784 16.9121C6.784 16.3681 6.976 15.9041 7.36 15.5201C7.776 15.1041 8.256 14.8961 8.8 14.8961H9.088C12.224 14.8961 14.656 14.4161 16.384 13.4561C18.112 12.4961 18.976 11.0401 18.976 9.08811C18.976 7.58411 18.352 6.38411 17.104 5.48811C15.856 4.56011 13.952 4.09611 11.392 4.09611C9.888 4.09611 8.512 4.25611 7.264 4.57611C6.048 4.86411 4.944 5.23211 3.952 5.68011C3.824 5.71211 3.696 5.76011 3.568 5.82411C3.44 5.85611 3.28 5.87211 3.088 5.87211C2.608 5.87211 2.192 5.71211 1.84 5.39211C1.488 5.04011 1.312 4.60811 1.312 4.09611C1.312 3.36011 1.632 2.81611 2.272 2.46411C3.392 1.85611 4.752 1.29611 6.352 0.784112C7.952 0.272113 9.76 0.0161133 11.776 0.0161133C15.488 0.0161133 18.336 0.768113 20.32 2.27211C22.336 3.77611 23.344 5.90411 23.344 8.65611C23.344 10.2561 23.04 11.6001 22.432 12.6881C21.856 13.7441 21.12 14.5921 20.224 15.2321C19.36 15.8401 18.464 16.3201 17.536 16.6721C18.208 16.8321 18.944 17.0881 19.744 17.4401C20.544 17.7921 21.312 18.3041 22.048 18.9761C22.784 19.6161 23.376 20.4481 23.824 21.4721C24.304 22.4961 24.544 23.7441 24.544 25.2161C24.544 27.2641 23.984 28.9761 22.864 30.3521C21.776 31.6961 20.288 32.7201 18.4 33.4241C16.544 34.1281 14.448 34.4801 12.112 34.4801Z" fill="url(#paint0_linear_991_773)"/>
<path d="M34.1406 34.1441C33.4046 34.1441 32.7646 33.8881 32.2206 33.3761C31.7086 32.8321 31.4526 32.1921 31.4526 31.4561V31.1681C31.4526 30.4321 31.7086 29.8081 32.2206 29.2961C32.7646 28.7521 33.4046 28.4801 34.1406 28.4801H34.6206C35.3566 28.4801 35.9806 28.7521 36.4926 29.2961C37.0366 29.8081 37.3086 30.4321 37.3086 31.1681V31.4561C37.3086 32.1921 37.0366 32.8321 36.4926 33.3761C35.9806 33.8881 35.3566 34.1441 34.6206 34.1441H34.1406Z" fill="url(#paint1_linear_991_773)"/>
<defs>
<linearGradient id="paint0_linear_991_773" x1="19.5" y1="-9.99999" x2="19.5" y2="47.9997" gradientUnits="userSpaceOnUse">
<stop stop-color="#2764E0"/>
<stop offset="1" stop-color="#DD0858"/>
</linearGradient>
<linearGradient id="paint1_linear_991_773" x1="19.5" y1="-9.99999" x2="19.5" y2="47.9997" gradientUnits="userSpaceOnUse">
<stop stop-color="#2764E0"/>
<stop offset="1" stop-color="#DD0858"/>
</linearGradient>
</defs>
</svg>
