<svg width="39" height="35" viewBox="0 0 39 35" fill="none" xmlns="http://www.w3.org/2000/svg">
<path d="M19.784 34.2399C19.176 34.2399 18.664 34.0319 18.248 33.6159C17.832 33.1999 17.624 32.6879 17.624 32.0799V25.5519H2.98401C2.21601 25.5519 1.56001 25.2959 1.01601 24.7839C0.472012 24.2399 0.200012 23.5839 0.200012 22.8159V22.3839C0.200012 21.7119 0.392012 21.1359 0.776012 20.6559L15.848 1.40786C16.104 1.05586 16.44 0.783857 16.856 0.591858C17.304 0.367859 17.768 0.255859 18.248 0.255859H19.208C20.04 0.255859 20.712 0.527859 21.224 1.07186C21.736 1.61586 21.992 2.27186 21.992 3.03986V21.6639H25.64C26.184 21.6639 26.648 21.8559 27.032 22.2399C27.416 22.6239 27.608 23.0879 27.608 23.6319C27.608 24.1759 27.416 24.6399 27.032 25.0239C26.648 25.3759 26.184 25.5519 25.64 25.5519H21.992V32.0799C21.992 32.6879 21.768 33.1999 21.32 33.6159C20.904 34.0319 20.392 34.2399 19.784 34.2399ZM4.85601 21.6639H17.624V5.19986L4.85601 21.6639Z" fill="url(#paint0_linear_991_774)"/>
<path d="M35.1406 34.1439C34.4046 34.1439 33.7646 33.8879 33.2206 33.3759C32.7086 32.8319 32.4526 32.1919 32.4526 31.4559V31.1679C32.4526 30.4319 32.7086 29.8079 33.2206 29.2959C33.7646 28.7519 34.4046 28.4799 35.1406 28.4799H35.6206C36.3566 28.4799 36.9806 28.7519 37.4926 29.2959C38.0366 29.8079 38.3086 30.4319 38.3086 31.1679V31.4559C38.3086 32.1919 38.0366 32.8319 37.4926 33.3759C36.9806 33.8879 36.3566 34.1439 35.6206 34.1439H35.1406Z" fill="url(#paint1_linear_991_774)"/>
<defs>
<linearGradient id="paint0_linear_991_774" x1="20.5" y1="-9.99999" x2="20.5" y2="47.9997" gradientUnits="userSpaceOnUse">
<stop stop-color="#2764E0"/>
<stop offset="1" stop-color="#DD0858"/>
</linearGradient>
<linearGradient id="paint1_linear_991_774" x1="20.5" y1="-9.99999" x2="20.5" y2="47.9997" gradientUnits="userSpaceOnUse">
<stop stop-color="#2764E0"/>
<stop offset="1" stop-color="#DD0858"/>
</linearGradient>
</defs>
</svg>
