<svg width="36" height="35" viewBox="0 0 36 35" fill="none" xmlns="http://www.w3.org/2000/svg">
<path d="M11.256 34.4801C9.01599 34.4801 7.04799 34.2081 5.35199 33.6641C3.68799 33.1201 2.24799 32.4641 1.03199 31.6961C0.807991 31.5361 0.583991 31.3441 0.359991 31.1201C0.167991 30.8641 0.071991 30.4801 0.071991 29.9681C0.071991 29.4241 0.247991 28.9441 0.599991 28.5281C0.951991 28.1121 1.41599 27.9041 1.99199 27.9041C2.34399 27.9041 2.67999 27.9841 2.99999 28.1441C4.02399 28.6881 5.17599 29.1681 6.45599 29.5841C7.76799 29.9681 9.17599 30.1601 10.68 30.1601C12.568 30.1601 14.216 29.9521 15.624 29.5361C17.032 29.1201 18.12 28.4321 18.888 27.4721C19.656 26.4801 20.04 25.1201 20.04 23.3921C20.04 21.4081 19.368 19.8401 18.024 18.6881C16.712 17.5361 14.904 16.9601 12.6 16.9601C10.968 16.9601 9.52799 17.1841 8.27999 17.6321C7.03199 18.0801 6.00799 18.5441 5.20799 19.0241C4.98399 19.1521 4.74399 19.2801 4.48799 19.4081C4.23199 19.5361 3.91199 19.6001 3.52799 19.6001C2.63199 19.6001 1.87999 19.3601 1.27199 18.8801C0.663991 18.3681 0.359991 17.6801 0.359991 16.8161C0.359991 16.4321 0.391991 16.0481 0.455991 15.6641L2.61599 2.89609C2.71199 2.16009 2.98399 1.58409 3.43199 1.16809C3.91199 0.720094 4.48799 0.496094 5.15999 0.496094H20.568C21.144 0.496094 21.624 0.704093 22.008 1.12009C22.424 1.50409 22.632 1.98409 22.632 2.56009C22.632 3.13609 22.424 3.61609 22.008 4.00009C21.624 4.38409 21.144 4.57609 20.568 4.57609H6.64799L5.11199 14.7521C6.10399 14.2081 7.25599 13.7441 8.56799 13.3601C9.91199 12.9761 11.464 12.7841 13.224 12.7841C15.656 12.7841 17.688 13.2641 19.32 14.2241C20.984 15.1521 22.248 16.4321 23.112 18.0641C23.976 19.6961 24.408 21.5521 24.408 23.6321C24.408 25.6801 23.944 27.5201 23.016 29.1521C22.088 30.7841 20.648 32.0801 18.696 33.0401C16.776 34.0001 14.296 34.4801 11.256 34.4801Z" fill="url(#paint0_linear_991_775)"/>
<path d="M32.6719 34.1441C31.9359 34.1441 31.2959 33.8881 30.7519 33.3761C30.2399 32.8321 29.9839 32.1921 29.9839 31.4561V31.1681C29.9839 30.4321 30.2399 29.8081 30.7519 29.2961C31.2959 28.7521 31.9359 28.4801 32.6719 28.4801H33.1519C33.8879 28.4801 34.5119 28.7521 35.0239 29.2961C35.5679 29.8081 35.8399 30.4321 35.8399 31.1681V31.4561C35.8399 32.1921 35.5679 32.8321 35.0239 33.3761C34.5119 33.8881 33.8879 34.1441 33.1519 34.1441H32.6719Z" fill="url(#paint1_linear_991_775)"/>
<defs>
<linearGradient id="paint0_linear_991_775" x1="18.5" y1="-9.99999" x2="18.5" y2="47.9997" gradientUnits="userSpaceOnUse">
<stop stop-color="#2764E0"/>
<stop offset="1" stop-color="#DD0858"/>
</linearGradient>
<linearGradient id="paint1_linear_991_775" x1="18.5" y1="-9.99999" x2="18.5" y2="47.9997" gradientUnits="userSpaceOnUse">
<stop stop-color="#2764E0"/>
<stop offset="1" stop-color="#DD0858"/>
</linearGradient>
</defs>
</svg>
