<svg width="89" height="14" viewBox="0 0 89 14" fill="none" xmlns="http://www.w3.org/2000/svg">
<path d="M13.6488 5.00399L9.33858 4.3456L7.40662 0.230468C7.26232 -0.0768227 6.75815 -0.0768227 6.61385 0.230468L4.68248 4.3456L0.372225 5.00399C0.0181975 5.05832 -0.12318 5.48888 0.125107 5.74301L3.25644 8.95262L2.51625 13.4901C2.45725 13.8506 2.84224 14.1211 3.16063 13.9441L7.01053 11.8164L10.8604 13.9446C11.1759 14.1199 11.5644 13.8547 11.5048 13.4907L10.7646 8.95321L13.8959 5.74359C14.1442 5.48888 14.0023 5.05832 13.6488 5.00399Z" fill="#2764E0"/>
<path d="M32.3434 5.00399L28.0332 4.3456L26.1012 0.230468C25.9569 -0.0768227 25.4527 -0.0768227 25.3084 0.230468L23.3771 4.3456L19.0668 5.00399C18.7128 5.05832 18.5714 5.48888 18.8197 5.74301L21.951 8.95262L21.2108 13.4901C21.1518 13.8506 21.5368 14.1211 21.8552 13.9441L25.7051 11.8164L29.555 13.9446C29.8705 14.1199 30.259 13.8547 30.1994 13.4907L29.4592 8.95321L32.5905 5.74359C32.8388 5.48888 32.6969 5.05832 32.3434 5.00399Z" fill="#2764E0"/>
<path d="M51.0377 5.00399L46.7275 4.3456L44.7955 0.230468C44.6512 -0.0768227 44.1471 -0.0768227 44.0028 0.230468L42.0714 4.3456L37.7611 5.00399C37.4071 5.05832 37.2657 5.48888 37.514 5.74301L40.6454 8.95262L39.9052 13.4901C39.8462 13.8506 40.2312 14.1211 40.5495 13.9441L44.3994 11.8164L48.2493 13.9446C48.5648 14.1199 48.9533 13.8547 48.8937 13.4907L48.1535 8.95321L51.2849 5.74359C51.5331 5.48888 51.3912 5.05832 51.0377 5.00399Z" fill="#2764E0"/>
<path d="M69.7323 5.00399L65.4221 4.3456L63.4901 0.230468C63.3458 -0.0768227 62.8416 -0.0768227 62.6973 0.230468L60.766 4.3456L56.4557 5.00399C56.1017 5.05832 55.9603 5.48888 56.2086 5.74301L59.3399 8.95262L58.5997 13.4901C58.5407 13.8506 58.9257 14.1211 59.2441 13.9441L63.094 11.8164L66.9439 13.9446C67.2594 14.1199 67.6479 13.8547 67.5883 13.4907L66.8481 8.95321L69.9794 5.74359C70.2277 5.48888 70.0858 5.05832 69.7323 5.00399Z" fill="#2764E0"/>
<path d="M88.4269 5.00399L84.1167 4.3456L82.1847 0.230468C82.0404 -0.0768227 81.5362 -0.0768227 81.3919 0.230468L79.4606 4.3456L75.1503 5.00399C74.7963 5.05832 74.6549 5.48888 74.9032 5.74301L78.0345 8.95262L77.2943 13.4901C77.2353 13.8506 77.6203 14.1211 77.9387 13.9441L81.7886 11.8164L85.6385 13.9446C85.954 14.1199 86.3425 13.8547 86.2829 13.4907L85.5427 8.95321L88.674 5.74359C88.9223 5.48888 88.7803 5.05832 88.4269 5.00399Z" fill="#2764E0"/>
</svg>
