<svg width="38" height="35" viewBox="0 0 38 35" fill="none" xmlns="http://www.w3.org/2000/svg">
<path d="M13.984 34.4801C11.616 34.4801 9.63197 34.1121 8.03197 33.3761C6.46397 32.6081 5.19997 31.6001 4.23997 30.3521C3.27997 29.0721 2.54397 27.6801 2.03197 26.1761C1.55197 24.6721 1.23197 23.1521 1.07197 21.6161C0.91197 20.0481 0.83197 18.6081 0.83197 17.2961C0.83197 15.4081 1.05597 13.4721 1.50397 11.4881C1.98397 9.47211 2.75197 7.60011 3.80797 5.87211C4.89597 4.11211 6.33597 2.70411 8.12797 1.64811C9.91997 0.560113 12.128 0.0161133 14.752 0.0161133C16.736 0.0161133 18.4 0.240113 19.744 0.688113C21.12 1.10411 22.288 1.56811 23.248 2.08011C23.92 2.40011 24.256 2.97611 24.256 3.80811C24.256 4.32011 24.08 4.78411 23.728 5.20011C23.376 5.58411 22.896 5.77611 22.288 5.77611C22 5.77611 21.728 5.72811 21.472 5.63211C20.672 5.24811 19.728 4.92811 18.64 4.67211C17.584 4.38411 16.4 4.24011 15.088 4.24011C13.04 4.24011 11.36 4.67211 10.048 5.53611C8.76797 6.36811 7.75997 7.44011 7.02397 8.75211C6.31997 10.0641 5.82397 11.4241 5.53597 12.8321C5.24797 14.2081 5.07197 15.4401 5.00797 16.5281C5.80797 15.5041 6.99197 14.5441 8.55997 13.6481C10.128 12.7521 12.224 12.3041 14.848 12.3041C17.024 12.3041 18.928 12.7681 20.56 13.6961C22.224 14.6241 23.52 15.9361 24.448 17.6321C25.376 19.2961 25.84 21.2801 25.84 23.5841C25.84 25.6001 25.36 27.4401 24.4 29.1041C23.44 30.7361 22.08 32.0481 20.32 33.0401C18.56 34.0001 16.448 34.4801 13.984 34.4801ZM14.032 30.4001C15.568 30.4001 16.88 30.0801 17.968 29.4401C19.088 28.8001 19.952 27.9521 20.56 26.8961C21.168 25.8401 21.472 24.7041 21.472 23.4881C21.472 21.3761 20.88 19.6481 19.696 18.3041C18.512 16.9601 16.72 16.2881 14.32 16.2881C12.432 16.2881 10.88 16.6081 9.66397 17.2481C8.44797 17.8561 7.48797 18.5761 6.78397 19.4081C6.11197 20.2081 5.59997 20.9281 5.24797 21.5681C5.47197 23.1041 5.88797 24.5441 6.49597 25.8881C7.10397 27.2321 8.01597 28.3201 9.23197 29.1521C10.448 29.9841 12.048 30.4001 14.032 30.4001Z" fill="url(#paint0_linear_991_776)"/>
<path d="M34.1406 34.1441C33.4046 34.1441 32.7646 33.8881 32.2206 33.3761C31.7086 32.8321 31.4526 32.1921 31.4526 31.4561V31.1681C31.4526 30.4321 31.7086 29.8081 32.2206 29.2961C32.7646 28.7521 33.4046 28.4801 34.1406 28.4801H34.6206C35.3566 28.4801 35.9806 28.7521 36.4926 29.2961C37.0366 29.8081 37.3086 30.4321 37.3086 31.1681V31.4561C37.3086 32.1921 37.0366 32.8321 36.4926 33.3761C35.9806 33.8881 35.3566 34.1441 34.6206 34.1441H34.1406Z" fill="url(#paint1_linear_991_776)"/>
<defs>
<linearGradient id="paint0_linear_991_776" x1="19.5" y1="-9.99999" x2="19.5" y2="47.9997" gradientUnits="userSpaceOnUse">
<stop stop-color="#2764E0"/>
<stop offset="1" stop-color="#DD0858"/>
</linearGradient>
<linearGradient id="paint1_linear_991_776" x1="19.5" y1="-9.99999" x2="19.5" y2="47.9997" gradientUnits="userSpaceOnUse">
<stop stop-color="#2764E0"/>
<stop offset="1" stop-color="#DD0858"/>
</linearGradient>
</defs>
</svg>
