<svg width="13" height="12" viewBox="0 0 13 12" fill="none" xmlns="http://www.w3.org/2000/svg">
<path d="M0.874645 0.238643C0.556455 0.556834 0.556456 1.07272 0.874646 1.39091L5.48372 5.99999L0.874629 10.6091C0.556439 10.9273 0.556439 11.4432 0.874629 11.7614C1.19282 12.0795 1.70871 12.0795 2.0269 11.7614L6.63599 7.15226L11.2451 11.7613C11.5633 12.0795 12.0792 12.0795 12.3973 11.7613C12.7155 11.4432 12.7155 10.9273 12.3973 10.6091L7.78826 5.99999L12.3973 1.39092C12.7155 1.07273 12.7155 0.556845 12.3973 0.238654C12.0791 -0.0795363 11.5633 -0.0795355 11.2451 0.238655L6.63599 4.84772L2.02692 0.238643C1.70872 -0.0795477 1.19284 -0.0795476 0.874645 0.238643Z" fill="#505050"/>
</svg>
