<svg width="271" height="54" viewBox="0 0 271 54" fill="none" xmlns="http://www.w3.org/2000/svg">
<rect x="215" y="10" width="56" height="34" rx="6" fill="white"/>
<path d="M227.943 29.2839V35.7037H225V18H230.402C232.447 18 234.032 18.4733 235.158 19.4198C236.284 20.3663 236.847 21.6996 236.847 23.4198C236.847 25.1399 236.259 26.5473 235.083 27.642C233.908 28.7366 232.318 29.2839 230.315 29.2839H227.943ZM227.943 20.4198V26.8889H229.855C231.122 26.8889 232.087 26.5967 232.749 26.0123C233.411 25.428 233.742 24.6049 233.742 23.5432C233.742 21.4609 232.525 20.4198 230.091 20.4198H227.943Z" fill="#070A23"/>
<path d="M246.93 25.7901C246.583 25.5185 246.082 25.3827 245.428 25.3827C244.575 25.3827 243.863 25.7654 243.292 26.5309C242.721 27.2963 242.435 28.3374 242.435 29.6543V35.7037H239.554V23.0617H242.435V25.6667H242.485C242.766 24.7778 243.197 24.0864 243.776 23.5926C244.364 23.0905 245.018 22.8395 245.738 22.8395C246.26 22.8395 246.657 22.9177 246.93 23.0741V25.7901Z" fill="#070A23"/>
<path d="M254.381 36C252.419 36 250.85 35.4115 249.675 34.2346C248.507 33.0494 247.924 31.4815 247.924 29.5309C247.924 27.4074 248.532 25.749 249.749 24.5556C250.974 23.3621 252.622 22.7654 254.692 22.7654C256.679 22.7654 258.227 23.3457 259.336 24.5062C260.445 25.6667 261 27.2757 261 29.3333C261 31.3498 260.4 32.9671 259.199 34.1852C258.007 35.3951 256.401 36 254.381 36ZM254.518 25.0494C253.392 25.0494 252.502 25.4403 251.848 26.2222C251.194 27.0041 250.867 28.0823 250.867 29.4568C250.867 30.7819 251.198 31.8272 251.86 32.5926C252.523 33.3498 253.408 33.7284 254.518 33.7284C255.652 33.7284 256.521 33.3539 257.126 32.6049C257.738 31.856 258.044 30.7901 258.044 29.4074C258.044 28.0165 257.738 26.9424 257.126 26.1852C256.521 25.428 255.652 25.0494 254.518 25.0494Z" fill="#070A23"/>
<path fill-rule="evenodd" clip-rule="evenodd" d="M107.245 32.7401C106.415 33.1662 105.483 33.3826 104.482 33.3826C101.723 33.3826 99.3866 31.5619 98.5491 29.1028C98.521 29.0201 98.4943 28.9367 98.4693 28.8526H114.444C114.55 28.2227 114.612 27.5755 114.612 26.8939C114.612 23.7444 113.466 21.0868 111.473 19.2834C109.728 17.7044 107.339 16.7725 104.482 16.7725C100.348 16.7725 96.7771 19.1022 95.0404 22.4847C94.3175 23.8825 93.9031 25.4529 93.9031 27.1268C93.9031 28.8008 94.3174 30.3712 95.0403 31.769C96.777 35.1515 100.348 37.4812 104.482 37.4812C105.747 37.4812 106.92 37.2798 107.993 36.9101C110.48 36.1244 112.069 34.6406 113.32 32.6754L109.609 30.5615C109.025 31.4945 108.138 32.2014 107.245 32.7374L107.245 32.7401ZM110.186 24.9611C109.931 23.684 109.181 22.6054 108.07 21.8719C107.118 21.2506 105.91 20.8711 104.482 20.8711C101.794 20.8711 99.5079 22.5986 98.6172 24.9611H110.186Z" fill="white"/>
<path d="M179.326 33.1168V37.4366C180.301 37.4664 181.504 37.4817 181.724 37.4817C182.928 37.4817 183.953 37.1359 184.751 36.4068C185.538 35.7091 186.13 34.7606 186.543 33.5902C186.975 32.4358 187.289 31.1057 187.488 29.6049C187.686 28.115 187.822 26.5182 187.896 24.8149L187.896 24.8129L188.078 21.033H195.454V37.1919H200.015V16.9541H184.057L183.704 24.549L183.704 24.5503C183.655 25.6538 183.582 26.7573 183.485 27.8608C183.389 28.9504 183.233 29.9256 183.021 30.7885C182.815 31.5987 182.504 32.2186 182.105 32.6739L182.101 32.679L182.096 32.6843C181.768 33.0803 181.311 33.2942 180.659 33.2942C180.57 33.2942 180.464 33.2854 180.339 33.2648C180.187 33.2399 180.024 33.2152 179.85 33.1906L179.326 33.1168Z" fill="white"/>
<path fill-rule="evenodd" clip-rule="evenodd" d="M149.077 37.1914V35.5222C148.729 35.8333 148.339 36.1129 147.907 36.3615L147.903 36.3635L147.9 36.3655C146.627 37.0721 145.052 37.4087 143.205 37.4087C141.703 37.4087 140.357 37.1575 139.178 36.6406L139.174 36.6388C138.024 36.123 137.113 35.4026 136.464 34.4692L136.46 34.4636C135.813 33.5053 135.49 32.4254 135.49 31.239C135.49 30.1153 135.756 29.0828 136.294 28.1536L136.297 28.1488L136.3 28.144C136.88 27.1894 137.792 26.4515 138.99 25.9121L138.994 25.9104C140.236 25.3628 141.858 25.1056 143.829 25.1056H148.893V24.9349C148.893 23.5701 148.49 22.5894 147.742 21.9132L147.736 21.9082L147.731 21.903C147.007 21.2094 145.863 20.8151 144.197 20.8151C143.105 20.8151 142.037 20.9982 140.99 21.3656L140.985 21.3673L140.98 21.3689C139.93 21.714 139.061 22.18 138.36 22.7591L136.343 19.2652C137.382 18.4635 138.607 17.8592 140.008 17.4465C141.479 16.9967 143.01 16.7725 144.601 16.7725C147.347 16.7725 149.543 17.4316 151.113 18.823C152.705 20.2335 153.454 22.3553 153.454 25.0798V37.1914H149.077ZM146.981 32.8949L146.986 32.8921C147.858 32.3882 148.492 31.6646 148.893 30.703V28.6409H143.976C143.12 28.6409 142.427 28.7117 141.887 28.8435C141.344 28.9761 140.988 29.1624 140.77 29.3686C140.258 29.8535 140.014 30.4193 140.014 31.0941C140.014 31.8704 140.315 32.4792 140.945 32.962C141.584 33.428 142.513 33.6922 143.793 33.6922C145.037 33.6922 146.094 33.4202 146.981 32.8949Z" fill="white"/>
<path d="M67.5 16.9537V37.1914H71.767V24.4645L78.1549 35.0175H80.2786L86.7423 24.4981V37.1914H90.9725V16.9537H86.8579L79.3066 29.4345L71.949 16.9537H67.5Z" fill="white"/>
<path d="M115.764 21.0325H122.888V37.1914H127.449V21.0325H134.573V16.9537H115.764V21.0325Z" fill="white"/>
<path d="M155.822 33.1163V37.4361C156.797 37.4659 158 37.4812 158.22 37.4812C159.424 37.4812 160.449 37.1354 161.247 36.4063C162.034 35.7086 162.626 34.7601 163.039 33.5897C163.471 32.4353 163.784 31.1052 163.984 29.6044C164.182 28.1145 164.318 26.5177 164.392 24.8145L164.392 24.8125L164.574 21.0325H171.95V37.1914H176.511V16.9537H160.553L160.199 24.5485L160.199 24.5498C160.151 25.6533 160.078 26.7568 159.981 27.8604C159.885 28.9499 159.729 29.9251 159.516 30.788C159.311 31.5982 159 32.2181 158.601 32.6734L158.597 32.6786L158.592 32.6839C158.264 33.0798 157.807 33.2937 157.155 33.2937C157.066 33.2937 156.96 33.2849 156.835 33.2643C156.683 33.2394 156.52 33.2147 156.346 33.1901L155.822 33.1163Z" fill="white"/>
<path d="M46.1004 7.90812C55.9169 17.7352 56.5845 33.253 48.1031 43.854L48.0803 43.8313C46.8322 45.4002 45.4131 46.8269 43.8514 48.0831L43.865 48.0967C41.833 49.7259 39.6202 51.0179 37.3014 51.9727C35.0003 52.9286 32.5384 53.5748 29.9676 53.8593V53.8403C27.976 54.0575 25.9649 54.0532 23.9741 53.8273V53.8593C10.4888 52.367 0 40.9218 0 27.0241C0 15.7437 6.91022 6.07901 16.7242 2.04088C26.4964 -1.99797 38.1587 -0.0422275 46.1004 7.90812Z" fill="#DD0858"/>
<path fill-rule="evenodd" clip-rule="evenodd" d="M31.3267 35.1552C30.1238 35.7724 28.774 36.086 27.3245 36.086C23.3271 36.086 19.9427 33.4485 18.7295 29.886C18.6887 29.7662 18.65 29.6454 18.6139 29.5235H41.7562C41.9095 28.611 41.9989 27.6735 41.9989 26.686C41.9989 22.1235 40.3387 18.2735 37.4523 15.661C34.9236 13.3735 31.4624 12.0235 27.3245 12.0235C21.3348 12.0235 16.1624 15.3985 13.6465 20.2986C12.5993 22.3236 11.9989 24.5985 11.9989 27.0235C11.9989 29.4485 12.5991 31.7235 13.6464 33.7485C16.1623 38.6485 21.3348 42.0235 27.3245 42.0235C29.1568 42.0235 30.8564 41.7318 32.4111 41.1962C36.0133 40.0579 38.3159 37.9084 40.1275 35.0615L34.7511 31.9992C33.9058 33.3508 32.6206 34.3748 31.3263 35.1514L31.3267 35.1552ZM35.5877 23.886C35.2174 22.036 34.1318 20.4735 32.5227 19.4108C31.1434 18.5108 29.3934 17.961 27.3245 17.961C23.4307 17.961 20.1185 20.4636 18.8281 23.886H35.5877Z" fill="white"/>
</svg>
