<svg width="149" height="42" viewBox="0 0 149 42" fill="none" xmlns="http://www.w3.org/2000/svg">
<path fill-rule="evenodd" clip-rule="evenodd" d="M44.8228 3.70703L44.8138 10.2667L44.7317 11.5746L45.5639 10.4541L53.6493 1.87703C54.7386 0.701133 56.5563 0.214233 58.0383 0.811533C59.1999 1.27953 59.9009 2.38343 59.895 3.70703L59.9039 28.0532L36.9452 28.0618L29.8842 35.0179L59.9038 35.0359L59.9007 40.8709H22.5122C21.3911 40.8699 20.2346 40.3025 19.7827 39.1709C19.261 37.8642 19.9719 36.5206 20.8695 35.606L32.4998 23.7656C33.5996 22.7197 34.9032 22.0765 36.435 22.0765H54.1712L54.1826 9.75273L45.1547 19.0171C44.1526 19.9857 42.5715 20.4786 41.3031 19.9185C40.2482 19.4523 39.4663 18.2556 39.4673 17.0453L39.4744 9.42773L8.3301 40.8709H0L38.5821 1.87183C39.6711 0.699133 41.4863 0.215233 42.9658 0.811333C44.1273 1.27973 44.8224 2.38333 44.8228 3.70703Z" fill="white"/>
<path fill-rule="evenodd" clip-rule="evenodd" d="M131.403 33.6015H135.794V36.0647C135.794 39.5061 133.922 41.2265 130.179 41.2265C128.493 41.2265 127.199 40.8596 126.294 40.126C125.176 39.2179 124.617 37.7679 124.617 35.7766V27.2865C124.617 25.313 125.176 23.8716 126.294 22.9635C127.216 22.212 128.512 21.8366 130.179 21.8366C131.988 21.8366 133.328 22.1598 134.197 22.8062C135.262 23.592 135.794 24.9284 135.794 26.8153V28.8588H131.403V26.2912C131.403 25.8543 131.314 25.5007 131.132 25.2297C130.955 24.9588 130.64 24.8239 130.192 24.8239C129.78 24.8239 129.483 24.9588 129.306 25.2297C129.124 25.5007 129.034 25.8543 129.034 26.2912V36.7719C129.034 37.226 129.119 37.5842 129.292 37.8465C129.461 38.1083 129.762 38.2391 130.192 38.2391C130.64 38.2391 130.955 38.1043 131.132 37.8333C131.314 37.5624 131.403 37.2088 131.403 36.7719V33.6015Z" fill="white"/>
<path fill-rule="evenodd" clip-rule="evenodd" d="M123.41 40.8596H119.791V25.5833L116.891 40.8596H111.276V22.2034H114.895L114.904 35.462L117.343 22.2034H123.41L123.41 40.8596Z" fill="white"/>
<path fill-rule="evenodd" clip-rule="evenodd" d="M103.309 24.8761V29.8019H104.028C104.596 29.8019 104.986 29.6797 105.198 29.4351C105.5 29.0862 105.651 28.3876 105.651 27.3394C105.651 26.3612 105.535 25.7234 105.305 25.4267C105.004 25.0592 104.338 24.8761 103.309 24.8761ZM103.309 32.4489V38.1869C103.416 38.2048 103.576 38.2134 103.788 38.2134C104.622 38.2134 105.163 37.9252 105.411 37.3482C105.571 36.9642 105.651 36.222 105.651 35.1216C105.651 33.8639 105.5 33.086 105.198 32.7892C104.968 32.5619 104.338 32.4489 103.309 32.4489ZM98.892 40.8596V22.2034H103.363C106.29 22.2034 108.152 22.5702 108.95 23.3038C109.695 23.9852 110.068 25.1293 110.068 26.7366C110.068 27.9243 109.864 28.8502 109.456 29.5138C108.96 30.3353 108.117 30.7979 106.928 30.903V31.0861C108.223 31.0861 109.101 31.5229 109.562 32.396C109.899 33.0252 110.068 34.0734 110.068 35.5406C110.068 37.9159 109.536 39.4446 108.472 40.126C107.691 40.6151 105.988 40.8596 103.363 40.8596H98.892Z" fill="white"/>
<path fill-rule="evenodd" clip-rule="evenodd" d="M91.2608 24.8761V30.981H91.9528C92.6803 30.981 93.1501 30.7543 93.3629 30.3003C93.5226 29.9506 93.6025 29.1648 93.6025 27.9421C93.6025 26.9983 93.5669 26.3612 93.4965 26.0288C93.3367 25.2601 92.8219 24.8761 91.9528 24.8761H91.2608ZM91.2608 40.8596H86.8438V22.2034H92.2454C94.1616 22.2034 95.563 22.4658 96.4496 22.9892C97.4966 23.6184 98.0202 24.6924 98.0202 26.2125V29.6189C98.0202 30.9466 97.4966 31.9684 96.4496 32.6842C95.51 33.3305 94.3213 33.6537 92.8843 33.6537H91.2608V40.8596Z" fill="white"/>
<path fill-rule="evenodd" clip-rule="evenodd" d="M85.7263 40.8596H76.5728V22.2034H85.7263V25.0334H80.9898V29.1212H84.2242V31.9506H80.9898V38.0296H85.7263V40.8596Z" fill="white"/>
<path fill-rule="evenodd" clip-rule="evenodd" d="M70.692 33.6015H75.0828V36.0647C75.0828 39.5061 73.2109 41.2265 69.4678 41.2265C67.7825 41.2265 66.4878 40.8596 65.583 40.126C64.4655 39.2179 63.9064 37.7679 63.9064 35.7766V27.2865C63.9064 25.313 64.4655 23.8716 65.583 22.9635C66.5052 22.212 67.8006 21.8366 69.4678 21.8366C71.2773 21.8366 72.6169 22.1598 73.4861 22.8062C74.5506 23.592 75.0828 24.9284 75.0828 26.8153V28.8588H70.692V26.2912C70.692 25.8543 70.6034 25.5007 70.4215 25.2297C70.2443 24.9588 69.9289 24.8239 69.4812 24.8239C69.0691 24.8239 68.7718 24.9588 68.5946 25.2297C68.4127 25.5007 68.3234 25.8543 68.3234 26.2912V36.7719C68.3234 37.226 68.408 37.5842 68.5812 37.8465C68.7496 38.1083 69.051 38.2391 69.4812 38.2391C69.9289 38.2391 70.2443 38.1043 70.4215 37.8333C70.6034 37.5624 70.692 37.2088 70.692 36.7719V33.6015Z" fill="white"/>
<path fill-rule="evenodd" clip-rule="evenodd" d="M110.728 15.9072C111.366 15.9072 111.779 15.6746 111.951 14.8213C112.074 14.214 112.138 12.8214 112.138 10.6549V4.71663C112.148 2.23163 113.264 0.933633 115.593 0.937533H122.941V19.5938H118.524V3.76763H116.182V10.6549C116.182 12.9576 116.116 14.518 115.996 15.319C115.782 16.7505 115.309 17.7895 114.585 18.4372C113.751 19.184 112.466 19.564 110.728 19.564V15.9072Z" fill="white"/>
<path fill-rule="evenodd" clip-rule="evenodd" d="M103.596 12.1783H105.192L104.421 3.87203L103.596 12.1783ZM101.893 0.937533H107.96L110.408 19.5938H106.017L105.512 15.0084H103.117L102.398 19.5938H98.6732L101.893 0.937533Z" fill="white"/>
<path fill-rule="evenodd" clip-rule="evenodd" d="M67.4187 19.5938H63.8803V0.937533H70.3859L72.2484 14.2007L74.1512 0.937533H80.5106V19.5938H76.5191V3.87203L73.9116 19.5938H70.0269L67.4724 3.87203L67.4187 19.5938Z" fill="white"/>
<path fill-rule="evenodd" clip-rule="evenodd" d="M90.7554 19.5938H81.6019V0.937533H100.296V3.76763H97.2094V19.5938H92.7924V3.76763H86.0189V7.85533H89.2533V10.6847H86.0189V16.7638H90.7554V19.5938Z" fill="white"/>
<path fill-rule="evenodd" clip-rule="evenodd" d="M123.58 19.564V15.9072C124.219 15.9072 124.632 15.6746 124.804 14.8213C124.927 14.214 124.991 12.8214 124.991 10.6549V4.71663C125.001 2.23163 126.117 0.933633 128.446 0.937533H135.794V19.5938H131.377V3.76763H129.035V10.6549C129.035 12.9576 128.969 14.518 128.849 15.319C128.635 16.7505 128.162 17.7895 127.438 18.4372C126.604 19.184 125.319 19.564 123.58 19.564Z" fill="white"/>
<path fill-rule="evenodd" clip-rule="evenodd" d="M144.234 1.55143C146.363 1.55143 148.083 3.27073 148.083 5.39983C148.083 7.52933 146.363 9.24833 144.234 9.24833C142.105 9.24833 140.385 7.52933 140.385 5.39983C140.385 3.27073 142.105 1.55143 144.234 1.55143ZM144.234 0.945933C146.695 0.945933 148.688 2.93853 148.688 5.39983C148.688 7.86143 146.695 9.85413 144.234 9.85413C141.772 9.85413 139.78 7.86143 139.78 5.39983C139.78 2.93853 141.772 0.945933 144.234 0.945933ZM143.29 3.51253H144.227C144.833 3.51253 145.341 3.61043 145.341 4.31373C145.341 4.64553 145.087 5.15353 144.227 5.15353H143.29V3.51253ZM142.254 7.98633H143.29V5.91533H144.052C145.79 5.91533 144.52 7.36103 145.341 7.98633H146.376C146.201 7.81053 146.201 7.45883 146.201 6.79453C146.201 6.34533 146.201 5.66153 145.438 5.66153V5.50523C146.201 5.25133 146.376 4.64553 146.376 4.31373C146.376 3.10243 145.243 2.82873 144.579 2.82873H142.254V7.98633Z" fill="white"/>
</svg>
