<svg width="48" height="48" viewBox="0 0 48 48" fill="none" xmlns="http://www.w3.org/2000/svg">
<path d="M47.0495 17.308C46.6817 16.0545 45.3717 15.3333 44.1137 15.7014C42.8581 16.0684 42.14 17.3831 42.5068 18.6372C43.0102 20.3613 43.2667 22.1662 43.2667 24C43.2667 34.6231 34.6231 43.2667 24 43.2667C13.3769 43.2667 4.73333 34.6231 4.73333 24C4.73333 13.3769 13.3769 4.73333 24 4.73333C27.8622 4.73333 31.5759 5.86238 34.7414 7.9967C35.8246 8.72772 37.2966 8.44039 38.0263 7.35756C38.7563 6.27412 38.472 4.80295 37.3877 4.07227C33.4367 1.40811 28.8069 0 24 0C10.7667 0 0 10.7658 0 24C0 37.2342 10.7667 48 24 48C37.2333 48 48 37.2342 48 24C48 21.7166 47.6812 19.4651 47.0495 17.308Z" fill="url(#paint0_linear_848_169)"/>
<path fill-rule="evenodd" clip-rule="evenodd" d="M47.3065 4.62726C46.3821 3.70341 44.8844 3.70341 43.96 4.62726L23.9999 24.5864L17.8065 18.3939C16.8821 17.4701 15.3842 17.4703 14.4598 18.3941C13.536 19.3185 13.5361 20.8163 14.4599 21.7407L22.3266 29.6074C22.7892 30.0699 23.3944 30.3007 23.9999 30.3007C24.6054 30.3007 25.2107 30.0699 25.6733 29.6074L47.3067 7.97393C48.2305 7.04951 48.2303 5.55167 47.3065 4.62726Z" fill="url(#paint1_linear_848_169)"/>
<defs>
<linearGradient id="paint0_linear_848_169" x1="24" y1="9.4061e-06" x2="24" y2="47.9998" gradientUnits="userSpaceOnUse">
<stop stop-color="#2764E0"/>
<stop offset="1" stop-color="#DD0858"/>
</linearGradient>
<linearGradient id="paint1_linear_848_169" x1="24" y1="9.4061e-06" x2="24" y2="47.9998" gradientUnits="userSpaceOnUse">
<stop stop-color="#2764E0"/>
<stop offset="1" stop-color="#DD0858"/>
</linearGradient>
</defs>
</svg>
