<svg width="180" height="48" viewBox="0 0 180 48" fill="none" xmlns="http://www.w3.org/2000/svg">
<mask id="mask0_848_490" style="mask-type:luminance" maskUnits="userSpaceOnUse" x="0" y="0" width="180" height="48">
<path d="M180 0H0V48H180V0Z" fill="white"/>
</mask>
<g mask="url(#mask0_848_490)">
<path d="M61.3705 41.2183H57.8648V46.6397H57.0732V40.4109H62.1621V46.6397H61.3705V41.2183Z" fill="white"/>
<path d="M68.0423 41.2183V43.6407H69.5124C70.6433 43.6407 71.2087 43.1793 71.2087 42.3718C71.2087 41.6797 70.7564 41.2183 69.6255 41.2183H68.0423ZM67.2507 46.6397V40.4109H69.5124C71.548 40.4109 72.0004 41.449 72.0004 42.3718C72.0004 43.41 71.3218 44.3328 69.5124 44.3328H68.0423V46.6397H67.2507Z" fill="white"/>
<path d="M79.2388 45.948C80.4828 45.948 81.3876 44.9099 81.3876 43.5257C81.3876 42.1415 80.3697 41.1033 79.2388 41.1033C77.9949 41.1033 76.9771 42.1415 76.9771 43.5257C77.0902 44.9099 78.108 45.948 79.2388 45.948ZM79.2388 40.2959C80.9351 40.2959 82.2922 41.6801 82.2922 43.5257C82.2922 45.3712 80.9351 46.7554 79.2388 46.7554C77.5425 46.7554 76.1855 45.3712 76.1855 43.5257C76.2986 41.6801 77.5425 40.2959 79.2388 40.2959Z" fill="white"/>
<path d="M91.4527 46.6397H90.6611V43.9867C90.3218 44.2174 89.6433 44.4481 88.9648 44.4481C87.7208 44.4481 86.7031 43.8714 86.7031 42.3718V40.4109H87.4947V42.0258C87.4947 43.1793 88.0601 43.756 89.191 43.756C89.7564 43.756 90.3218 43.5253 90.7742 43.2946V40.5262H91.5658V46.6397H91.4527Z" fill="white"/>
<path d="M100.838 43.8714H97.3327V46.6397H96.541V40.4109H97.3327V43.0639H100.838V40.4109H101.63V46.6397H100.838V43.8714Z" fill="white"/>
<path d="M106.719 40.4109H111.016V41.2183H107.51V43.0639H110.79V43.8714H107.51V45.8323H111.016V46.6397H106.719V40.4109Z" fill="white"/>
<path d="M115.993 40.4109H120.177V41.2183H116.672V43.0639H119.951V43.8714H116.672V45.8323H120.29V46.6397H115.993V40.4109Z" fill="white"/>
<path d="M136.575 45.6021C136.123 46.2942 135.218 46.6402 134.313 46.6402C132.391 46.6402 131.26 45.3714 131.26 43.4104C131.26 41.6802 132.391 40.1807 134.313 40.1807C135.331 40.1807 136.236 40.6421 136.575 41.2188L136.123 41.6802C135.67 41.2188 135.105 40.8728 134.313 40.8728C132.956 40.8728 132.051 41.9109 132.051 43.2951C132.051 44.7946 132.956 45.7174 134.313 45.7174C135.105 45.7174 135.67 45.3714 136.123 44.91L136.575 45.6021Z" fill="white"/>
<path d="M140.645 40.4109H145.507V41.2183H143.472V46.6397H142.68V41.2183H140.645V40.4109Z" fill="white"/>
<path d="M150.258 44.333H152.633L151.502 41.5646L150.258 44.333ZM151.162 40.4111H151.728L154.329 46.64H153.537L152.859 45.0251H149.918L149.24 46.64H148.448L151.162 40.4111Z" fill="white"/>
<path d="M162.697 41.2186H160.096V41.5646C160.096 45.8325 159.191 46.64 158.4 46.64C158.287 46.64 158.174 46.64 158.061 46.64V45.8325C158.739 45.9479 159.305 45.4865 159.305 41.4493V40.4111H163.376V46.64H162.584V41.2186H162.697Z" fill="white"/>
<path d="M168.464 46.6397V40.4109H169.256V45.2555L172.874 40.4109H173.553V46.6397H172.761V41.7951L169.142 46.6397H168.464Z" fill="white"/>
<path d="M24.7305 2C12.7433 2 3.13086 12.0353 3.13086 24.3777C3.13086 36.72 12.7433 46.7554 24.7305 46.7554C29.7063 46.7554 34.2298 45.0251 37.9617 42.0261V46.7554H41.3543V32.2214C38.5271 38.7963 32.1943 43.2949 24.8436 43.2949C14.6658 43.2949 6.52347 34.8744 6.52347 24.3777C6.52347 13.9963 14.6658 5.46047 24.7305 5.46047C34.7953 5.46047 42.9375 13.9963 42.9375 24.3777C42.9375 24.493 42.9375 24.6084 42.9375 24.7237V46.7554H46.3301V25.1851C46.3301 24.9544 46.3301 24.6084 46.3301 24.3777C46.2171 12.0353 36.6047 2 24.7305 2Z" fill="#C21830"/>
<path d="M24.7312 7.19043C15.5712 7.19043 8.10742 14.9188 8.10742 24.3774C8.10742 33.836 15.5712 41.5644 24.6181 41.5644C33.7782 41.5644 41.1288 33.836 41.1288 24.3774C41.2419 14.9188 33.7782 7.19043 24.7312 7.19043ZM24.7312 37.9886C17.4936 37.9886 11.6131 31.8751 11.6131 24.3774C11.6131 16.8797 17.4936 10.7662 24.7312 10.7662C31.9688 10.7662 37.8493 16.8797 37.8493 24.3774C37.7362 31.9904 31.8557 37.9886 24.7312 37.9886Z" fill="#C21830"/>
<path d="M74.4891 20.456C74.4891 13.8811 79.4649 8.69043 85.6847 8.69043C91.9045 8.69043 96.8803 13.8811 96.8803 20.3407C96.8803 26.8002 92.0176 31.9909 85.6847 31.9909C83.7622 31.9909 81.9528 31.5295 80.3696 30.6067V36.0281H78.4471V26.2234C80.1434 28.5304 82.7444 30.1453 85.7978 30.1453C90.9998 30.1453 94.9578 25.8774 94.9578 20.456C94.9578 15.0346 90.9998 10.6514 85.7978 10.6514C80.5958 10.6514 76.6377 15.0346 76.6377 20.456V36.1434H74.6022L74.4891 20.456ZM78.4471 20.456C78.4471 16.0728 81.6136 12.4969 85.7978 12.4969C89.982 12.4969 93.1484 16.0728 93.1484 20.456C93.1484 24.8393 89.982 28.2997 85.7978 28.2997C81.5005 28.2997 78.4471 24.8393 78.4471 20.456ZM80.4827 20.456C80.4827 23.6858 82.6313 26.4541 85.7978 26.4541C88.9642 26.4541 91.1129 23.6858 91.1129 20.456C91.1129 17.2262 88.9642 14.3425 85.7978 14.3425C82.6313 14.3425 80.4827 17.2262 80.4827 20.456ZM147.77 20.8021V31.4141H145.847V20.8021C145.847 14.5732 142.681 11.2281 136.687 11.3435H133.521V9.49787H136.687C143.812 9.49787 147.77 13.4197 147.77 20.8021ZM143.925 20.9174V31.4141H142.002V20.8021C142.002 16.8802 140.419 15.0346 136.687 15.0346H133.521V13.189H136.687C141.663 13.189 143.925 15.8421 143.925 20.9174ZM126.057 9.49787H127.979V31.4141H126.057V9.49787ZM129.902 9.49787H131.824V31.4141H129.902V9.49787ZM173.667 20.8021V31.4141H171.744V20.8021C171.744 14.5732 168.578 11.2281 162.584 11.3435H159.418V9.49787H162.584C169.709 9.49787 173.667 13.4197 173.667 20.8021ZM169.822 20.9174V31.4141H167.899V20.8021C167.899 16.8802 166.316 15.0346 162.584 15.0346H159.418V13.189H162.584C167.447 13.189 169.822 15.8421 169.822 20.9174ZM151.954 9.49787H153.876V31.4141H151.954V9.49787ZM155.686 9.49787H157.608V31.4141H155.686V9.49787ZM56.8475 20.8021C56.8475 13.4197 60.8055 9.49787 67.93 9.49787H73.132V11.3435H67.93C61.9364 11.3435 58.77 14.5732 58.77 20.8021V31.4141H56.8475V20.8021ZM60.6925 20.9174C60.6925 15.8421 63.0673 13.3044 67.93 13.3044H73.132V15.15H67.93C64.1982 15.15 62.6149 16.9955 62.6149 20.9174V31.5295H60.6925V20.9174ZM121.986 24.7239C121.986 32.1062 117.915 36.0281 111.242 36.0281V34.1825C116.897 34.1825 120.063 30.9527 120.063 24.7239V9.49787H121.986V24.7239ZM118.141 24.7239C118.141 29.7993 115.653 32.3369 111.129 32.3369V30.4914C114.522 30.4914 116.105 28.6458 116.105 24.7239V9.49787H118.028V24.7239H118.141ZM100.386 19.0718V9.49787H102.309V19.1872C102.309 25.416 105.475 28.7611 111.129 28.6458V30.4914C104.457 30.4914 100.386 26.4541 100.386 19.0718ZM104.231 19.0718V9.49787H106.154V19.1872C106.154 23.109 107.85 24.9546 111.129 24.9546V26.8002C106.719 26.6848 104.231 24.1472 104.231 19.0718Z" fill="white"/>
</g>
</svg>
