<svg width="70" height="34" viewBox="0 0 70 34" fill="none" xmlns="http://www.w3.org/2000/svg">
<rect width="70" height="34" rx="6" fill="url(#paint0_linear_2016_2)"/>
<path d="M12.8516 19.9062V26H10.0742V9.19531H15.1719C17.1016 9.19531 18.5977 9.64453 19.6602 10.543C20.7227 11.4414 21.2539 12.707 21.2539 14.3398C21.2539 15.9727 20.6992 17.3086 19.5898 18.3477C18.4805 19.3867 16.9805 19.9062 15.0898 19.9062H12.8516ZM12.8516 11.4922V17.6328H14.6562C15.8516 17.6328 16.7617 17.3555 17.3867 16.8008C18.0117 16.2461 18.3242 15.4648 18.3242 14.457C18.3242 12.4805 17.1758 11.4922 14.8789 11.4922H12.8516ZM30.7695 16.5898C30.4414 16.332 29.9688 16.2031 29.3516 16.2031C28.5469 16.2031 27.875 16.5664 27.3359 17.293C26.7969 18.0195 26.5273 19.0078 26.5273 20.2578V26H23.8086V14H26.5273V16.4727H26.5742C26.8398 15.6289 27.2461 14.9727 27.793 14.5039C28.3477 14.0273 28.9648 13.7891 29.6445 13.7891C30.1367 13.7891 30.5117 13.8633 30.7695 14.0117V16.5898ZM37.8008 26.2812C35.9492 26.2812 34.4688 25.7227 33.3594 24.6055C32.2578 23.4805 31.707 21.9922 31.707 20.1406C31.707 18.125 32.2812 16.5508 33.4297 15.418C34.5859 14.2852 36.1406 13.7188 38.0938 13.7188C39.9688 13.7188 41.4297 14.2695 42.4766 15.3711C43.5234 16.4727 44.0469 18 44.0469 19.9531C44.0469 21.8672 43.4805 23.4023 42.3477 24.5586C41.2227 25.707 39.707 26.2812 37.8008 26.2812ZM37.9297 15.8867C36.8672 15.8867 36.0273 16.2578 35.4102 17C34.793 17.7422 34.4844 18.7656 34.4844 20.0703C34.4844 21.3281 34.7969 22.3203 35.4219 23.0469C36.0469 23.7656 36.8828 24.125 37.9297 24.125C39 24.125 39.8203 23.7695 40.3906 23.0586C40.9688 22.3477 41.2578 21.3359 41.2578 20.0234C41.2578 18.7031 40.9688 17.6836 40.3906 16.9648C39.8203 16.2461 39 15.8867 37.9297 15.8867ZM59 20.0234H54.3711V24.6523H52.4375V20.0234H47.8086V18.0898H52.4375V13.4492H54.3711V18.0898H59V20.0234Z" fill="white"/>
<defs>
<linearGradient id="paint0_linear_2016_2" x1="66" y1="5" x2="-1.8499e-06" y2="34" gradientUnits="userSpaceOnUse">
<stop stop-color="#2764E0"/>
<stop offset="1" stop-color="#DD0858"/>
</linearGradient>
</defs>
</svg>
