<svg width="59" height="48" viewBox="0 0 59 48" fill="none" xmlns="http://www.w3.org/2000/svg">
<path d="M15.1354 17.1739L15.1351 17.174L12.4398 19.0927L11.8518 19.5113L12.0549 18.8187C12.6405 16.8221 13.5369 14.9217 14.7881 13.2035L14.7881 13.2034C18.2688 8.42603 23.6313 5.68296 29.4995 5.68296C34.8278 5.68296 39.8499 8.01404 43.2767 12.0785C44.2421 13.2202 45.9448 13.3624 47.0803 12.3928L47.0806 12.3926C48.2202 11.4218 48.3602 9.70738 47.3943 8.56225L47.5855 8.40107L47.3943 8.56225C42.9391 3.27956 36.4176 0.25 29.4995 0.25C22.0049 0.25 14.8762 3.89178 10.4334 9.99233C8.82171 12.2053 7.65997 14.6537 6.89744 17.2317L6.75082 17.7274L6.45328 17.3047L5.15391 15.4588L15.1354 17.1739ZM15.1354 17.1739C16.3497 16.3075 18.0341 16.5968 18.8982 17.8223M15.1354 17.1739L18.8982 17.8223M11.4152 39.5989L11.6063 39.4378C16.0616 44.7204 22.5827 47.75 29.4996 47.75C36.9958 47.75 44.1229 44.1082 48.5646 38.0077L48.5646 38.0076C50.1772 35.7941 51.3395 33.3462 52.1024 30.7697L52.249 30.2743L52.5465 30.6968L53.8452 32.5415L11.4152 39.5989ZM11.4152 39.5989L11.6063 39.4377C10.6407 38.2929 10.7818 36.5785 11.9185 35.6075M11.4152 39.5989L11.9185 35.6075M11.9185 35.6075C13.0594 34.6408 14.7622 34.7821 15.724 35.9216C19.1508 39.986 24.1729 42.317 29.4996 42.317C35.3678 42.317 40.729 39.5755 44.2096 34.7965C45.4623 33.0769 46.359 31.1759 46.9452 29.1799L47.1487 28.4869L46.5603 28.9058L43.8656 30.8245C43.8656 30.8245 43.8655 30.8245 43.8655 30.8245C42.6453 31.6924 40.9636 31.4002 40.1011 30.1772C39.2384 28.9525 39.5289 27.2566 40.7448 26.3908L48.7908 20.662L48.7908 20.6619C50.0106 19.7929 51.6924 20.0874 52.5553 21.3094L58.2532 29.4017L58.2533 29.4018C59.116 30.6261 58.8256 32.3221 57.6096 33.1889C57.135 33.527 56.5896 33.6886 56.0522 33.6886C55.2058 33.6886 54.373 33.2897 53.8454 32.5416L11.9185 35.6075ZM18.8982 17.8223C19.7597 19.047 19.4705 20.7428 18.2536 21.61C18.2535 21.6101 18.2535 21.6101 18.2535 21.6101L10.2062 27.3389L18.8982 17.8223ZM8.64982 27.8372C9.18862 27.8372 9.73262 27.6757 10.2061 27.3389L8.64982 27.8372ZM8.64982 27.8372C7.80337 27.8372 6.97055 27.4383 6.44294 26.6903L8.64982 27.8372ZM6.44283 26.6901L0.746021 18.5978C0.746008 18.5978 0.745995 18.5977 0.745981 18.5977C-0.115443 17.3733 0.174014 15.6772 1.39109 14.81C2.60676 13.9437 4.28975 14.2329 5.15382 15.4587L6.44283 26.6901Z" fill="url(#paint0_linear_848_174)" stroke="#1E1E1E" stroke-width="0.5"/>
<defs>
<linearGradient id="paint0_linear_848_174" x1="29.5" y1="9.4061e-06" x2="29.5" y2="47.9998" gradientUnits="userSpaceOnUse">
<stop stop-color="#2764E0"/>
<stop offset="1" stop-color="#DD0858"/>
</linearGradient>
</defs>
</svg>
