<svg width="9" height="6" viewBox="0 0 9 6" fill="none" xmlns="http://www.w3.org/2000/svg">
<path d="M0.202105 3.57678C0.138245 3.51877 0.0874002 3.44899 0.0526577 3.37165C0.0179152 3.29431 0 3.21104 0 3.12689C0 3.04274 0.0179152 2.95947 0.0526577 2.88214C0.0874002 2.8048 0.138245 2.73501 0.202105 2.67701L0.179535 2.69725C0.312392 2.57716 0.488536 2.51046 0.671493 2.51094C0.85445 2.51143 1.0302 2.57907 1.16236 2.69986L3.13211 4.50854L7.84104 0.184698C7.97366 0.065928 8.1487 -0.000121144 8.33054 1.66809e-07C8.51237 0.000121477 8.68732 0.0664041 8.81976 0.185351L8.79719 0.16511C8.86148 0.223223 8.91264 0.293279 8.94752 0.370969C8.98239 0.448659 9.00025 0.532339 9 0.616863C8.99974 0.701387 8.98137 0.784967 8.94603 0.862462C8.91068 0.939958 8.8591 1.00973 8.79446 1.06749L3.62523 5.81313C3.49227 5.9326 3.31674 5.99939 3.13415 6C2.95156 6.0006 2.77555 5.93498 2.64172 5.8164L0.202105 3.57678Z" fill="white"/>
</svg>
