<svg width="252" height="33" viewBox="0 0 252 33" fill="none" xmlns="http://www.w3.org/2000/svg">
<path fill-rule="evenodd" clip-rule="evenodd" d="M41 32.5875H44.3845V27.3161L47.9162 32.5934H52.1483L47.4394 26.2642L52.0305 20.3294H48.0633L44.4198 25.4813V20.3234H41.0353V32.5875H41ZM59.035 32.9401C59.8332 32.9436 60.6273 32.8226 61.3894 32.5815C62.0461 32.3619 62.6611 32.0305 63.2082 31.6013C63.7124 31.193 64.1461 30.7021 64.4914 30.149C64.835 29.5952 65.0912 28.9902 65.2507 28.356C65.5883 27.0898 65.5883 25.7553 65.2507 24.4891C65.0883 23.8653 64.8322 23.2706 64.4914 22.726C64.1461 22.1975 63.7187 21.7292 63.2259 21.3395C62.6802 20.9081 62.0647 20.5765 61.4071 20.3593C60.6463 20.1124 59.8513 19.9913 59.0526 20.0007C58.2538 19.9896 57.4586 20.1107 56.6982 20.3593C56.0382 20.5751 55.4206 20.9069 54.8735 21.3395C54.3679 21.744 53.934 22.2331 53.5903 22.7858C53.25 23.3314 52.9921 23.9257 52.8252 24.5489C52.4956 25.8161 52.4956 27.1485 52.8252 28.4158C52.9893 29.0493 53.2473 29.6539 53.5903 30.2088C53.9338 30.7633 54.3677 31.2544 54.8735 31.6611C55.422 32.0915 56.0392 32.4231 56.6982 32.6412C57.4599 32.8841 58.2542 33.0051 59.0526 32.9998L59.035 32.9401ZM59.035 29.9936C58.6476 29.9961 58.2635 29.921 57.9048 29.7725C57.5423 29.623 57.2152 29.3969 56.9454 29.1091C56.6512 28.7909 56.4248 28.4145 56.2803 28.0034C55.9508 26.9965 55.9508 25.9084 56.2803 24.9015C56.4261 24.4911 56.6524 24.115 56.9454 23.7959C57.2168 23.5099 57.5434 23.2841 57.9048 23.1325C58.6323 22.8374 59.4435 22.8374 60.171 23.1325C60.5324 23.2841 60.8591 23.5099 61.1304 23.7959C61.4325 24.1204 61.665 24.505 61.8132 24.9254C62.1427 25.9323 62.1427 27.0204 61.8132 28.0273C61.6687 28.4384 61.4423 28.8148 61.1481 29.133C60.8783 29.4208 60.5512 29.6469 60.1886 29.7964C59.8281 29.9457 59.442 30.0208 59.0526 30.0175L59.035 29.9936ZM66.3219 32.5875H69.5652L70.4599 25.4753L72.4964 32.5875H74.6743L76.7109 25.4753L77.6056 32.5875H80.8547L79.0889 20.3234H75.7044L73.5854 27.8062L71.4664 20.3234H68.0819L66.3161 32.5875H66.3219ZM82.1791 20.3234V32.5875H85.5636V23.2639H89.5661V32.5875H92.9506V20.3234H82.1791ZM93.9159 32.5875H97.5417L98.2128 30.4658H102.333L103.004 32.5875H106.63L102.333 20.3234H98.2128L93.9159 32.5875ZM100.267 23.246L101.65 27.7703H98.8956L100.273 23.246H100.267ZM107.583 32.5875H110.968V27.6807H115.088V32.5875H118.473V20.3234H115.088V24.7342H110.968V20.3234H107.583V32.5875ZM120.633 20.3234V32.5875H123.947L128.626 25.2302V32.5875H131.858V20.3234H128.544L123.864 27.6807V20.3234H120.633ZM133.217 32.5875H136.837L139.309 28.4038H139.615V32.5875H143V20.3234H138.05C137.905 20.3156 137.759 20.3156 137.614 20.3234C137.381 20.3401 137.149 20.37 136.92 20.4131C136.635 20.4666 136.355 20.5446 136.084 20.6462C135.78 20.7597 135.49 20.9081 135.219 21.0885C134.928 21.2896 134.67 21.5356 134.453 21.8176C134.213 22.1428 134.028 22.5064 133.906 22.8934C133.761 23.3794 133.691 23.8856 133.7 24.3935C133.695 24.858 133.765 25.3202 133.906 25.7622C134.037 26.1521 134.236 26.5146 134.495 26.832C134.739 27.1324 135.036 27.3838 135.372 27.5731C135.716 27.7671 136.09 27.9005 136.478 27.9675L133.217 32.5755V32.5875ZM139.615 25.9654H138.686C138.488 25.968 138.291 25.952 138.097 25.9176C137.9 25.8911 137.71 25.8261 137.538 25.7263C137.356 25.6233 137.207 25.4699 137.108 25.284C136.984 25.0387 136.925 24.7647 136.937 24.4891C136.929 24.2525 136.976 24.0172 137.073 23.8018C137.15 23.6304 137.267 23.4806 137.414 23.3655C137.547 23.2624 137.696 23.1835 137.856 23.1325C138.001 23.0853 138.151 23.0532 138.303 23.0368H138.662H139.592L139.615 25.9654Z" fill="white"/>
<path fill-rule="evenodd" clip-rule="evenodd" d="M50.4329 8.59294C50.2085 8.82748 49.962 9.03919 49.6968 9.22503C49.3991 9.43448 49.0741 9.60105 48.7312 9.71996C48.3528 9.85475 47.9546 9.92331 47.5535 9.92271C47.1091 9.92588 46.6686 9.83869 46.2581 9.6663C45.9022 9.50903 45.5832 9.27737 45.3219 8.98651C45.0582 8.67789 44.858 8.31905 44.733 7.93103C44.5937 7.51432 44.5241 7.07698 44.5269 6.63704C44.5213 6.16086 44.595 5.68712 44.7448 5.23571C44.8672 4.8328 45.0629 4.45663 45.3219 4.12658C45.5897 3.80997 45.9235 3.55744 46.2993 3.38715C46.6983 3.20966 47.1295 3.11827 47.5653 3.11881C47.9679 3.11867 48.3671 3.19346 48.7429 3.33945C49.0842 3.47472 49.4052 3.65735 49.6968 3.88209C49.9639 4.09233 50.2086 4.33015 50.427 4.5917V1.01384C50.095 0.771709 49.7351 0.571463 49.3553 0.417527C48.9874 0.275599 48.6068 0.169767 48.2189 0.101483C47.2179 -0.0783812 46.1891 -0.0171002 45.2159 0.280373C44.62 0.484416 44.0597 0.782249 43.5554 1.16291C43.0383 1.52547 42.5845 1.97289 42.2129 2.48672C41.8218 3.02975 41.5215 3.6341 41.3237 4.27565C40.8498 5.88415 40.8973 7.6041 41.4592 9.18328C41.746 9.94421 42.1828 10.6381 42.7428 11.2227C43.2995 11.7914 43.9674 12.2362 44.7036 12.5286C45.4932 12.8412 46.3348 12.997 47.1826 12.9877C47.5391 12.993 47.8956 12.9691 48.2483 12.9162C48.6222 12.8686 48.9896 12.7786 49.3435 12.6478C49.7329 12.5072 50.1029 12.3169 50.4447 12.0814V8.59294H50.4329ZM53.8186 12.63H57.1985V3.35137H59.86V0.411562H51.1571V3.35137H53.8186V12.6478V12.63ZM59.86 12.63L64.1643 0.411562H68.2861L72.5845 12.6478H68.9397L68.2861 10.5369H64.1643L63.4931 12.6478L59.86 12.63ZM66.2134 3.31559L64.8297 7.8237H67.5972L66.2134 3.31559ZM74.8633 0.393674V7.16179C74.8718 7.54421 74.854 7.92677 74.8103 8.30671C74.7827 8.59768 74.7071 8.8819 74.5865 9.14751C74.4744 9.36754 74.2974 9.54677 74.0802 9.66033C73.8014 9.78807 73.4967 9.84732 73.191 9.83326C73.0695 9.84212 72.9475 9.84212 72.826 9.83326L72.4491 9.74382V12.6777C72.6118 12.723 72.777 12.7588 72.9437 12.785C73.0909 12.785 73.244 12.8208 73.3912 12.8267H73.8623C74.4582 12.8329 75.0522 12.7587 75.6288 12.6061C76.0703 12.4869 76.4858 12.2846 76.8535 12.0098C77.1604 11.7804 77.4204 11.4928 77.619 11.163C77.8016 10.855 77.9385 10.5215 78.0253 10.1732C78.116 9.8359 78.1732 9.49031 78.1961 9.14154C78.1961 8.80165 78.2314 8.4856 78.2314 8.18745V3.3633H80.6515V12.6478H84.0372V0.411562L74.8633 0.393674ZM86.2218 12.6478H93.4761V9.714H89.6075V7.75214H93.1405V5.06278H89.6075V3.35137H93.4761V0.411562H86.2218V12.6478ZM95.2897 0.411562V12.6478H98.6696V3.35137H102.679V12.6478H106.059V0.411562H95.2897ZM108.244 12.6478H111.624V8.59294H113.337C113.936 8.59891 114.532 8.51039 115.104 8.33056C115.563 8.17994 115.991 7.94328 116.364 7.63288C116.681 7.36626 116.95 7.04537 117.159 6.68475C117.353 6.33941 117.497 5.96799 117.589 5.58157C117.679 5.22928 117.723 4.86627 117.718 4.50225C117.725 3.74315 117.532 2.99588 117.159 2.33765C116.947 1.96876 116.675 1.63986 116.352 1.36566C115.979 1.0594 115.554 0.824953 115.098 0.67394C114.526 0.492955 113.93 0.404407 113.331 0.411562H108.238V12.6478H108.244ZM111.624 3.10689H112.595C112.891 3.09598 113.187 3.14045 113.467 3.23807C113.659 3.30381 113.832 3.41885 113.967 3.57201C114.075 3.70456 114.153 3.85915 114.197 4.0252C114.237 4.18075 114.255 4.34147 114.25 4.50225C114.253 4.6508 114.238 4.79917 114.203 4.94352C114.164 5.11277 114.09 5.27151 113.985 5.40864C113.853 5.57272 113.68 5.69826 113.484 5.77239C113.2 5.87844 112.898 5.92902 112.595 5.92147H111.624V3.10689ZM125.267 12.9997C126.066 13.0068 126.861 12.886 127.622 12.6419C128.28 12.4252 128.896 12.0943 129.442 11.6639C129.949 11.2619 130.383 10.7736 130.725 10.2209C131.067 9.6665 131.325 9.06353 131.491 8.43194C131.82 7.16757 131.82 5.83818 131.491 4.57381C131.327 3.94167 131.068 3.33848 130.725 2.78488C130.383 2.23033 129.949 1.74005 129.442 1.33584C128.896 0.905474 128.28 0.574558 127.622 0.357897C126.075 -0.119299 124.423 -0.119299 122.876 0.357897C122.216 0.573244 121.598 0.904246 121.051 1.33584C120.546 1.74327 120.113 2.23299 119.767 2.78488C119.426 3.33875 119.17 3.94196 119.008 4.57381C118.67 5.83711 118.67 7.16863 119.008 8.43194C119.171 9.0634 119.427 9.66644 119.767 10.2209C120.113 10.7709 120.547 11.2586 121.051 11.6639C121.598 12.0955 122.216 12.4265 122.876 12.6419C123.638 12.8864 124.433 13.0072 125.232 12.9997H125.267ZM125.267 10.0599C124.88 10.0624 124.496 9.98956 124.136 9.84519C123.774 9.6953 123.447 9.46976 123.177 9.18328C122.881 8.86644 122.655 8.49071 122.511 8.08011C122.338 7.58251 122.254 7.05734 122.264 6.52971C122.253 6.00398 122.337 5.48069 122.511 4.98526C122.653 4.57397 122.88 4.19795 123.177 3.88209C123.444 3.59184 123.772 3.36571 124.136 3.22018C124.495 3.07109 124.879 2.99608 125.267 2.99955C125.654 2.99703 126.039 3.072 126.397 3.22018C126.761 3.36711 127.089 3.59305 127.357 3.88209C127.654 4.19795 127.88 4.57397 128.023 4.98526C128.194 5.48142 128.277 6.00419 128.27 6.52971C128.277 7.05713 128.193 7.58176 128.023 8.08011C127.879 8.49071 127.652 8.86644 127.357 9.18328C127.086 9.46855 126.759 9.6939 126.397 9.84519C126.037 9.98843 125.654 10.0613 125.267 10.0599ZM132.551 12.6478H135.795L136.696 5.55176L138.733 12.6478H140.906L142.943 5.55176L143.844 12.6478H147.089L145.322 0.411562H141.937L139.817 7.87737L137.691 0.411562H134.305L132.539 12.6478H132.551ZM148.449 12.6478H153.607C153.896 12.6478 154.196 12.6478 154.555 12.6121C154.908 12.5742 155.258 12.5145 155.603 12.4332C155.958 12.347 156.302 12.2189 156.628 12.0515C156.957 11.8826 157.253 11.6566 157.505 11.3837C157.768 11.088 157.968 10.741 158.094 10.364C158.256 9.89673 158.336 9.40422 158.329 8.90898C158.335 8.41627 158.257 7.92626 158.1 7.45995C157.965 7.08262 157.754 6.73754 157.482 6.44622C157.23 6.17518 156.933 5.95113 156.604 5.78432C156.28 5.61434 155.936 5.48613 155.58 5.40268C155.235 5.31559 154.885 5.25578 154.532 5.22378C154.19 5.22378 153.872 5.18204 153.578 5.18204H151.811V0.411562H148.431V12.6478H148.449ZM151.829 10.203V7.63288H153.283C153.591 7.62288 153.899 7.66109 154.196 7.74618C154.431 7.81115 154.639 7.95386 154.785 8.15167C154.93 8.3759 155 8.64135 154.985 8.90898C154.998 9.18097 154.926 9.45016 154.779 9.67822C154.635 9.87811 154.427 10.0214 154.19 10.0837C153.896 10.1711 153.59 10.2113 153.283 10.203H151.829ZM159.083 12.6478H162.469V0.411562H159.083V12.6478ZM164.642 12.6478H180.593V0.411562H177.213V9.714H174.275V0.411562H170.889V9.714H167.992V0.411562H164.606V12.6478H164.642ZM184.073 0.411562V7.16179C184.076 7.54412 184.058 7.9263 184.02 8.30671C183.991 8.59805 183.913 8.8823 183.79 9.14751C183.682 9.37028 183.504 9.55056 183.284 9.66033C183.005 9.78917 182.701 9.84847 182.395 9.83326C182.273 9.84188 182.151 9.84188 182.03 9.83326L181.653 9.74382V12.6777C181.816 12.7224 181.981 12.7582 182.147 12.785C182.301 12.785 182.448 12.8208 182.601 12.8267H183.072C183.668 12.8322 184.262 12.758 184.838 12.6061C185.28 12.4869 185.695 12.2846 186.063 12.0098C186.367 11.779 186.625 11.4916 186.823 11.163C187.007 10.8552 187.146 10.5217 187.235 10.1732C187.32 9.83466 187.377 9.4896 187.406 9.14154C187.406 8.80165 187.441 8.4856 187.435 8.18745V3.3633H189.855V12.6478H193.235V0.411562H184.073ZM195.431 12.6478H202.68V9.714H198.817V7.75214H202.321V5.06278H198.817V3.35137H202.68V0.411562H195.426V12.6478H195.431ZM204.493 12.6478H207.879V7.75214H212.001V12.6478H215.381V0.411562H211.96V4.81829H207.838V0.411562H204.452V12.6478H204.493ZM217.548 12.6478H220.934V7.75214H225.055V12.6478H228.447V0.411562H225.032V4.81829H220.91V0.411562H217.524V12.6478H217.548ZM229.389 12.6478H233.016L233.687 10.5369H237.809L238.457 12.6478H242.078L237.78 0.411562H233.658L229.36 12.6478H229.389ZM235.743 3.33348L237.126 7.84159H234.335L235.713 3.33348H235.743ZM242.22 12.6478H245.847L248.314 8.47368H248.626V12.6478H252V0.411562H247.048C246.905 0.403825 246.761 0.403825 246.618 0.411562C246.383 0.427534 246.149 0.45941 245.917 0.506974C245.632 0.557583 245.352 0.63545 245.081 0.739535C244.775 0.847915 244.484 0.996253 244.216 1.1808C243.926 1.38292 243.668 1.62818 243.45 1.9083C243.21 2.23161 243.026 2.59479 242.909 2.98166C242.758 3.46362 242.687 3.96715 242.697 4.47243C242.69 4.93651 242.762 5.39833 242.909 5.83798C243.038 6.22773 243.237 6.5897 243.497 6.90538C243.74 7.20681 244.038 7.4579 244.375 7.64481C244.717 7.84267 245.092 7.97601 245.482 8.03837L242.22 12.6359V12.6478ZM248.626 6.04073H247.69C247.493 6.04523 247.296 6.03126 247.101 5.99899C246.905 5.96899 246.716 5.9044 246.542 5.80817C246.362 5.70038 246.213 5.54601 246.112 5.36094C245.991 5.11703 245.932 4.84649 245.941 4.57381C245.937 4.33607 245.983 4.10016 246.076 3.88209C246.154 3.71281 246.271 3.56537 246.418 3.45274C246.549 3.34754 246.699 3.26862 246.86 3.22018C247.005 3.17132 247.155 3.13736 247.307 3.11881C247.427 3.11066 247.547 3.11066 247.666 3.11881H248.602V6.05266L248.626 6.04073Z" fill="white"/>
<path fill-rule="evenodd" clip-rule="evenodd" d="M32.2452 0.0963932C32.7906 0.0972218 33.3237 0.263103 33.7768 0.573071C34.23 0.88304 34.583 1.32318 34.7912 1.83788C34.9993 2.35257 35.0534 2.91872 34.9465 3.46476C34.8396 4.0108 34.5765 4.51224 34.1905 4.90569C33.8045 5.29915 33.3129 5.56696 32.7778 5.6753C32.2427 5.78363 31.6882 5.72761 31.1843 5.51432C30.6804 5.30104 30.2498 4.94005 29.9468 4.477C29.6438 4.01394 29.4821 3.4696 29.4821 2.91275C29.4832 2.16542 29.7748 1.44908 30.2928 0.92103C30.8109 0.392981 31.5131 0.0963924 32.2452 0.0963932ZM32.2452 0.368809C31.7523 0.368809 31.2704 0.518008 30.8606 0.79754C30.4508 1.07707 30.1314 1.47438 29.9428 1.93923C29.7542 2.40407 29.7048 2.91557 29.801 3.40905C29.8971 3.90253 30.1345 4.35581 30.483 4.71159C30.8315 5.06737 31.2756 5.30965 31.759 5.40781C32.2424 5.50597 32.7435 5.45559 33.1988 5.26305C33.6542 5.0705 34.0434 4.74444 34.3172 4.32609C34.5911 3.90774 34.7372 3.41589 34.7372 2.91275C34.7362 2.2384 34.4732 1.59198 34.0061 1.11514C33.539 0.638294 32.9058 0.369917 32.2452 0.368809ZM31.539 2.7493H32.3191C32.458 2.7555 32.5969 2.73706 32.7296 2.69482C32.8172 2.66504 32.8924 2.60598 32.9431 2.52718C32.992 2.45287 33.0177 2.36522 33.017 2.27572C33.0182 2.21377 33.006 2.15233 32.9811 2.0958C32.9563 2.03928 32.9194 1.98908 32.8733 1.94882C32.7449 1.85438 32.5877 1.8098 32.4299 1.82309H31.5595V2.7493H31.539ZM31.1777 4.31255H31.539V3.05525H31.9496C32.0165 3.04918 32.0838 3.04918 32.1507 3.05525C32.2086 3.07253 32.2639 3.09791 32.3149 3.13068C32.3856 3.18355 32.4479 3.24715 32.4997 3.31928C32.5695 3.40729 32.6557 3.53721 32.7625 3.70485L33.1237 4.2874H33.5795L33.1032 3.52464C33.0195 3.38761 32.9188 3.26223 32.8035 3.15164C32.7377 3.0953 32.6645 3.04874 32.5859 3.01333C32.8032 2.99553 33.0084 2.90406 33.1689 2.75349C33.2928 2.61683 33.3604 2.43675 33.3578 2.25057C33.3588 2.10262 33.3189 1.95738 33.2428 1.83147C33.1728 1.71169 33.066 1.61887 32.939 1.56744C32.7586 1.50915 32.5696 1.48362 32.3806 1.492H31.149V4.29159L31.1777 4.31255ZM1.51085 14.4213V31.4577H9.9519L9.92727 18.1806C9.92727 15.4229 8.6956 14.4087 6.05982 14.4087L1.51085 14.4213ZM0 12.879L6.05572 12.8412C9.7261 12.8161 11.4586 14.6853 11.4628 18.2141V33H0V12.8832V12.879ZM1.51085 1.5381H9.9519V6.38291C9.9519 9.22441 8.74486 10.4566 6.02698 10.4566H1.51085V1.5381ZM0 0V12.0072H6.0434C9.61525 12.0072 11.4628 10.3308 11.4628 6.37871V0H0ZM27.3554 12.9921L27.3144 19.3625H19.5918C19.0252 19.3625 18.7296 19.7313 18.7337 20.4773V33H12.5015V18.3776C12.6082 14.5302 14.3284 12.9754 18.0399 12.967L27.3554 13.0089V12.9921ZM13.8276 1.5381H25.8405V10.4608H17.8757C15.0428 10.4608 13.8276 8.97295 13.8276 6.26975V1.5381ZM12.3208 0V6.38291C12.3208 10.3769 14.2586 12.0282 17.8551 12.0282H27.3554V0H12.3208Z" fill="#1B53BC"/>
</svg>
