<svg width="50" height="50" viewBox="0 0 50 50" fill="none" xmlns="http://www.w3.org/2000/svg">
<path d="M40.913 7.06041C31.5536 -2.35347 16.379 -2.35347 7.01959 7.06041C-2.33986 16.4743 -2.33986 31.7371 7.01959 41.151C15.9223 50.1055 30.0864 50.5425 39.5026 42.4619L46.3852 49.3769C47.2128 50.2084 48.5538 50.2076 49.3805 49.3752C50.2072 48.5428 50.2064 47.194 49.3788 46.3625L41.0504 37.9949C40.6507 37.5934 40.1081 37.369 39.5431 37.3718C38.9782 37.3746 38.4378 37.6043 38.0421 38.0098C37.9913 38.0619 37.9732 38.081 37.9603 38.0945C37.9487 38.1068 37.9413 38.1146 37.9178 38.1383C30.2126 45.8883 17.7201 45.8883 10.0149 38.1383C2.30965 30.3883 2.30965 17.8231 10.0149 10.0731C17.7201 2.32308 30.2126 2.32308 37.9178 10.0731C43.3621 15.5491 44.9616 23.4315 42.7061 30.3261C42.3405 31.4437 42.9448 32.6478 44.056 33.0155C45.1671 33.3833 46.3642 32.7754 46.7298 31.6578C49.4654 23.2958 47.5314 13.7172 40.913 7.06041Z" fill="url(#paint0_linear_848_171)"/>
<path d="M29.6646 17.0145C30.4807 17.0145 31.1423 17.6799 31.1423 18.5007V29.5472C31.1423 30.368 30.4807 31.0334 29.6646 31.0334C28.8485 31.0334 28.1869 30.368 28.1869 29.5472V18.5007C28.1869 17.6799 28.8485 17.0145 29.6646 17.0145Z" fill="url(#paint1_linear_848_171)"/>
<path fill-rule="evenodd" clip-rule="evenodd" d="M17.1922 29.4753L16.9028 30.2396C16.6124 31.0067 15.7586 31.3917 14.996 31.0995C14.2333 30.8074 13.8506 29.9487 14.141 29.1816L18.265 18.2907C18.2693 18.2793 18.2737 18.268 18.2783 18.2567C18.8625 16.8209 20.8853 16.8164 21.4731 18.2538C21.4786 18.2673 21.4839 18.2808 21.489 18.2944L25.5755 29.1858C25.8636 29.9538 25.4782 30.8113 24.7147 31.1011C23.9512 31.3909 23.0986 31.0033 22.8105 30.2354L22.5253 29.4753H17.1922ZM18.3178 26.5028L19.871 22.4009L21.41 26.5028H18.3178Z" fill="url(#paint2_linear_848_171)"/>
<defs>
<linearGradient id="paint0_linear_848_171" x1="25" y1="9.79802e-06" x2="25" y2="49.9998" gradientUnits="userSpaceOnUse">
<stop stop-color="#2764E0"/>
<stop offset="1" stop-color="#DD0858"/>
</linearGradient>
<linearGradient id="paint1_linear_848_171" x1="25" y1="9.79802e-06" x2="25" y2="49.9998" gradientUnits="userSpaceOnUse">
<stop stop-color="#2764E0"/>
<stop offset="1" stop-color="#DD0858"/>
</linearGradient>
<linearGradient id="paint2_linear_848_171" x1="25" y1="9.79802e-06" x2="25" y2="49.9998" gradientUnits="userSpaceOnUse">
<stop stop-color="#2764E0"/>
<stop offset="1" stop-color="#DD0858"/>
</linearGradient>
</defs>
</svg>
