<svg width="61" height="24" viewBox="0 0 61 24" fill="none" xmlns="http://www.w3.org/2000/svg">
<rect width="33" height="24" rx="6" fill="#212529"/>
<rect opacity="0.3" x="37" width="24" height="24" rx="6" fill="#1A913C"/>
<path d="M43.2955 13.4779C43.2021 13.389 43.1278 13.2822 43.077 13.1637C43.0262 13.0453 43 12.9177 43 12.7889C43 12.66 43.0262 12.5325 43.077 12.414C43.1278 12.2956 43.2021 12.1887 43.2955 12.0999L43.2625 12.1309C43.4568 11.947 43.7143 11.8448 43.9818 11.8455C44.2493 11.8463 44.5063 11.9499 44.6995 12.1349L47.5795 14.9049L54.4645 8.28287C54.6584 8.10097 54.9143 7.99981 55.1802 8C55.4461 8.00019 55.7019 8.1017 55.8955 8.28387L55.8625 8.25287C55.9565 8.34187 56.0313 8.44916 56.0823 8.56814C56.1333 8.68713 56.1594 8.81528 56.159 8.94473C56.1587 9.07418 56.1318 9.20218 56.0801 9.32087C56.0284 9.43955 55.953 9.54641 55.8585 9.63487L48.3005 16.9029C48.1061 17.0858 47.8494 17.1881 47.5825 17.1891C47.3155 17.19 47.0582 17.0895 46.8625 16.9079L43.2955 13.4779Z" fill="#1A913C"/>
<path d="M7.23438 13.9375V18H5.38281V6.79688H8.78125C10.0677 6.79688 11.0651 7.09635 11.7734 7.69531C12.4818 8.29427 12.8359 9.13802 12.8359 10.2266C12.8359 11.3151 12.4661 12.2057 11.7266 12.8984C10.987 13.5911 9.98698 13.9375 8.72656 13.9375H7.23438ZM7.23438 8.32812V12.4219H8.4375C9.23438 12.4219 9.84115 12.237 10.2578 11.8672C10.6745 11.4974 10.8828 10.9766 10.8828 10.3047C10.8828 8.98698 10.1172 8.32812 8.58594 8.32812H7.23438ZM19.1797 11.7266C18.9609 11.5547 18.6458 11.4688 18.2344 11.4688C17.6979 11.4688 17.25 11.7109 16.8906 12.1953C16.5312 12.6797 16.3516 13.3385 16.3516 14.1719V18H14.5391V10H16.3516V11.6484H16.3828C16.5599 11.0859 16.8307 10.6484 17.1953 10.3359C17.5651 10.0182 17.9766 9.85938 18.4297 9.85938C18.7578 9.85938 19.0078 9.90885 19.1797 10.0078V11.7266ZM23.8672 18.1875C22.6328 18.1875 21.6458 17.8151 20.9062 17.0703C20.1719 16.3203 19.8047 15.3281 19.8047 14.0938C19.8047 12.75 20.1875 11.7005 20.9531 10.9453C21.724 10.1901 22.7604 9.8125 24.0625 9.8125C25.3125 9.8125 26.2865 10.1797 26.9844 10.9141C27.6823 11.6484 28.0312 12.6667 28.0312 13.9688C28.0312 15.2448 27.6536 16.2682 26.8984 17.0391C26.1484 17.8047 25.138 18.1875 23.8672 18.1875ZM23.9531 11.2578C23.2448 11.2578 22.6849 11.5052 22.2734 12C21.862 12.4948 21.6562 13.1771 21.6562 14.0469C21.6562 14.8854 21.8646 15.5469 22.2812 16.0312C22.6979 16.5104 23.2552 16.75 23.9531 16.75C24.6667 16.75 25.2135 16.513 25.5938 16.0391C25.9792 15.5651 26.1719 14.8906 26.1719 14.0156C26.1719 13.1354 25.9792 12.4557 25.5938 11.9766C25.2135 11.4974 24.6667 11.2578 23.9531 11.2578Z" fill="white"/>
</svg>
