<svg width="165" height="48" viewBox="0 0 165 48" fill="none" xmlns="http://www.w3.org/2000/svg">
<path fill-rule="evenodd" clip-rule="evenodd" d="M37.76 21.1899L36.19 19.6099L18.91 36.8899L5.02995 23.0099L3.44995 24.5899L17.33 38.4699L18.9 40.0399H18.91L37.76 21.1899Z" fill="white"/>
<path fill-rule="evenodd" clip-rule="evenodd" d="M20.4799 32.2799L37.7599 14.9999L36.1899 13.4199L18.9099 30.6999L5.00994 16.8099L3.43994 18.3899L17.3299 32.2799L18.9099 33.8499L20.4799 32.2799Z" fill="white"/>
<path fill-rule="evenodd" clip-rule="evenodd" d="M37.76 27.3698L36.19 25.7998L18.91 43.0798L4.93999 29.1098L3.35999 30.6898L17.33 44.6498L18.89 46.2098L18.91 46.2298L37.76 27.3698Z" fill="white"/>
<path fill-rule="evenodd" clip-rule="evenodd" d="M0 27.4298L1.57 29.0098L18.85 11.7298L32.68 25.5598L34.26 23.9798L20.43 10.1498L18.86 8.57983H18.85L0 27.4298Z" fill="white"/>
<path fill-rule="evenodd" clip-rule="evenodd" d="M17.28 16.34L0 33.62L1.57 35.19L18.85 17.91L32.69 31.75L34.26 30.17L20.43 16.34L18.85 14.76L17.28 16.34Z" fill="white"/>
<path fill-rule="evenodd" clip-rule="evenodd" d="M0 21.2399L1.57 22.8199L18.85 5.53989L32.56 19.2499L34.13 17.6699L20.43 3.95989L18.87 2.40989L18.85 2.38989L0 21.2399Z" fill="white"/>
<path fill-rule="evenodd" clip-rule="evenodd" d="M164.01 36.67V32.44L157.28 32.42C155.89 32.42 154.83 32.01 154.02 31.16C153 30.1 152.74 28.7701 152.74 24.9201V23.6201C152.74 21.3001 152.74 18.7801 154.02 17.4501C154.83 16.6001 155.93 16.1901 157.28 16.1901H164.01V12.0001L157.28 11.9701C154.46 11.9601 152.04 12.8901 150.21 14.6301C148.2 16.5401 147.64 18.4801 147.64 23.3201V24.3101C147.64 28.3701 147.64 31.5701 150.21 33.9901C152.04 35.7301 154.5 36.6501 157.32 36.6501L164.01 36.67Z" fill="#C21830"/>
<path fill-rule="evenodd" clip-rule="evenodd" d="M119.67 36.4402V12.1702H100.66V36.4402H105.75V16.4002H114.58V36.4402H119.67Z" fill="#C21830"/>
<path fill-rule="evenodd" clip-rule="evenodd" d="M95.2501 32.1602V12.1702H91.0301L83.5601 23.9902V12.1702H78.9501V32.1602H83.1001L90.5701 20.3202V32.1602H95.2501Z" fill="#C21830"/>
<path fill-rule="evenodd" clip-rule="evenodd" d="M66.8301 32.2202H58.5501C60.1601 28.1302 61.2601 24.3802 61.2601 17.1902V16.4102H66.8301V32.2302V32.2202ZM74.9301 36.4902V32.2202H71.9301V12.1702H56.2501V13.2602C56.2501 22.6002 55.3301 27.4102 53.2801 32.2102H50.6801V36.4802H74.9401L74.9301 36.4902Z" fill="#C21830"/>
<path fill-rule="evenodd" clip-rule="evenodd" d="M138.18 23.87C138.18 28.81 137.96 30.01 136.9 31.13C136.09 31.98 134.96 32.43 133.64 32.43C132.32 32.43 131.22 31.95 130.34 31.13C128.95 29.83 129.09 26.94 129.09 23.97C129.09 21 129.16 18.69 130.34 17.49C131.15 16.64 132.32 16.19 133.64 16.19C134.96 16.19 136.1 16.63 136.9 17.49C137.93 18.55 138.18 19.88 138.18 23.86M143.28 24.31V22.61C143.28 18.69 142.51 16.37 140.68 14.63C138.85 12.89 136.43 11.97 133.65 11.97C130.87 11.97 128.41 12.89 126.58 14.63C124.56 16.54 124.01 18.48 124.01 23.32V24.65C124.01 27.34 123.83 31.36 126.58 33.99C128.41 35.73 130.83 36.65 133.65 36.65C136.47 36.65 138.85 35.76 140.68 33.99C143.46 31.3 143.28 27.79 143.28 24.31Z" fill="#C21830"/>
<path d="M164.01 8.11009V2.28009H163.38L160.2 7.03009V2.28009H159.53V8.11009H160.16L163.34 3.36009V8.11009H164.01ZM163.18 0.840088H162.68C162.58 1.18009 162.34 1.45009 161.78 1.45009C161.22 1.45009 160.97 1.19009 160.87 0.840088H160.37C160.51 1.54009 160.98 1.91009 161.78 1.91009C162.58 1.91009 163.04 1.54009 163.18 0.840088ZM155.53 8.11009V2.28009H154.9L151.72 7.03009V2.28009H151.05V8.11009H151.68L154.86 3.36009V8.11009H155.53ZM147.04 8.11009V2.28009H146.37V4.89009H143.4V2.28009H142.73V8.11009H143.4V5.45009H146.37V8.11009H147.04ZM138.12 6.25009H135.78L136.96 3.17009L138.12 6.25009ZM139.53 8.11009L137.23 2.28009H136.67L134.37 8.11009H135.08L135.58 6.79009H138.32L138.82 8.11009H139.53ZM131.15 8.11009V2.28009H126.85V8.11009H127.52V2.84009H130.48V8.11009H131.15ZM122.85 8.11009V2.28009H122.18L120.19 6.41009L118.15 2.28009H117.48V8.11009H118.15V3.68009L119.89 7.19009H120.46L122.17 3.68009V8.11009H122.84H122.85ZM113.05 5.19009C113.05 5.97009 113.1 6.72009 112.61 7.18009C112.32 7.45009 111.94 7.60009 111.53 7.60009C111.12 7.60009 110.74 7.45009 110.45 7.18009C109.96 6.72009 110.01 5.97009 110.01 5.19009C110.01 4.31009 109.97 3.64009 110.45 3.20009C110.74 2.93009 111.13 2.78009 111.53 2.78009C111.93 2.78009 112.32 2.93009 112.61 3.20009C113.09 3.64009 113.05 4.38009 113.05 5.19009ZM113.72 5.19009C113.72 4.36009 113.78 3.44009 113.13 2.83009C112.71 2.44009 112.14 2.22009 111.53 2.22009C110.92 2.22009 110.35 2.43009 109.93 2.83009C109.28 3.44009 109.34 4.36009 109.34 5.19009C109.34 6.35009 109.36 7.01009 109.93 7.55009C110.35 7.94009 110.91 8.16009 111.53 8.16009C112.15 8.16009 112.71 7.95009 113.13 7.55009C113.7 7.02009 113.72 6.36009 113.72 5.19009ZM106.36 8.11009L104.11 4.53009L106.08 2.28009H105.26L102.34 5.63009V2.28009H101.67V8.11009H102.34V6.48009L103.66 5.01009L105.57 8.11009H106.36ZM91.7901 6.30009H89.4501L90.6301 3.22009L91.7901 6.30009ZM93.2001 8.16009L90.9001 2.33009H90.3401L88.0401 8.16009H88.7501L89.2501 6.84009H91.9901L92.4901 8.16009H93.2001ZM84.8201 8.16009V2.33009H80.5201V8.16009H81.1901V2.89009H84.1501V8.16009H84.8201ZM76.5101 8.16009V2.33009H72.2101V8.16009H72.8801V2.89009H75.8401V8.16009H76.5101ZM69.0401 2.33009H68.3301L66.8101 5.77009L65.1201 2.33009H64.4101L66.4801 6.47009L66.2201 7.02009C66.0401 7.42009 65.8201 7.60009 65.3901 7.60009H64.9901V8.16009H65.5401C66.1601 8.16009 66.5301 7.78009 66.7701 7.25009L69.0401 2.33009ZM58.1601 5.20009V2.88009H59.7601C60.6001 2.88009 61.0901 3.31009 61.0901 4.03009C61.0901 4.75009 60.6001 5.19009 59.7601 5.19009H58.1601V5.20009ZM57.4901 2.33009V8.16009H58.1601V5.76009H59.8201C60.9801 5.76009 61.7501 5.07009 61.7501 4.04009C61.7501 3.01009 60.9801 2.33009 59.8201 2.33009H57.4901ZM54.4401 2.89009V2.33009H50.6801V8.16009H51.3501V2.89009H54.4501H54.4401Z" fill="white"/>
<path d="M163.53 43.2601C163.53 43.9501 163.58 44.6101 163.14 45.0201C162.88 45.2601 162.55 45.3901 162.18 45.3901C161.81 45.3901 161.48 45.2601 161.22 45.0201C160.78 44.6101 160.83 43.9501 160.83 43.2601C160.83 42.4801 160.8 41.8901 161.22 41.5001C161.48 41.2601 161.82 41.1301 162.18 41.1301C162.54 41.1301 162.88 41.2601 163.14 41.5001C163.56 41.8901 163.53 42.5401 163.53 43.2601ZM164.12 43.2601C164.12 42.5301 164.17 41.7101 163.6 41.1701C163.23 40.8201 162.73 40.6301 162.18 40.6301C161.63 40.6301 161.14 40.8201 160.76 41.1701C160.18 41.7101 160.24 42.5201 160.24 43.2601C160.24 44.2901 160.26 44.8801 160.76 45.3501C161.13 45.7001 161.62 45.8901 162.18 45.8901C162.74 45.8901 163.22 45.7001 163.6 45.3501C164.11 44.8801 164.12 44.2901 164.12 43.2601ZM154.44 45.3501V43.4601H155.95C156.64 43.4601 157.06 43.8201 157.06 44.4001C157.06 44.9801 156.63 45.3501 155.95 45.3501H154.44ZM154.44 42.9601V41.1701H155.89C156.57 41.1701 156.98 41.5001 156.98 42.0601C156.98 42.6201 156.57 42.9601 155.89 42.9601H154.44ZM156.75 43.1901C156.96 43.1001 157.05 43.0601 157.16 42.9501C157.43 42.7201 157.56 42.4101 157.56 42.0401C157.56 41.2301 156.91 40.6901 155.93 40.6901H153.84V45.8501H156C157.03 45.8501 157.65 45.3101 157.65 44.4401C157.65 44.0501 157.51 43.7301 157.24 43.4801C157.11 43.3601 157.01 43.3001 156.75 43.2001V43.1901ZM151.06 41.1701V40.6801H147.26V41.1701H148.86V45.8301H149.45V41.1701H151.05H151.06ZM144.79 45.2501L144.39 44.8801C144.05 45.1901 143.74 45.3901 143.25 45.3901C142.86 45.3901 142.53 45.2701 142.28 45.0301C141.97 44.7401 141.89 44.4101 141.89 43.4601V43.2601C141.89 42.4201 141.91 41.8501 142.28 41.4901C142.53 41.2601 142.87 41.1301 143.25 41.1301C143.75 41.1301 144.05 41.3301 144.39 41.6401L144.79 41.2701C144.3 40.8601 143.92 40.6401 143.24 40.6401C142.69 40.6401 142.19 40.8301 141.81 41.1801C141.27 41.6801 141.29 42.2801 141.29 43.2701C141.29 44.1001 141.26 44.8301 141.81 45.3601C142.18 45.7101 142.68 45.9001 143.24 45.9001C143.91 45.9001 144.3 45.6701 144.78 45.2701L144.79 45.2501ZM137.96 45.8401V40.6801H137.37V42.9901H134.74V40.6801H134.15V45.8401H134.74V43.4901H137.37V45.8401H137.96ZM130.01 43.2201H128.59C127.85 43.2201 127.41 42.8401 127.41 42.1901C127.41 41.5401 127.85 41.1701 128.59 41.1701H130.01V43.2201ZM130.61 45.8401V40.6801H128.55C127.52 40.6801 126.84 41.2901 126.84 42.1901C126.84 42.9301 127.29 43.4601 128.02 43.6301L126.74 45.8301H127.44L128.64 43.7101H130.01V45.8301H130.61V45.8401ZM123.18 43.2601C123.18 43.9501 123.23 44.6101 122.79 45.0201C122.53 45.2601 122.2 45.3901 121.83 45.3901C121.46 45.3901 121.13 45.2601 120.87 45.0201C120.43 44.6101 120.48 43.9501 120.48 43.2601C120.48 42.4801 120.45 41.8901 120.87 41.5001C121.13 41.2601 121.47 41.1301 121.83 41.1301C122.19 41.1301 122.53 41.2601 122.79 41.5001C123.21 41.8901 123.18 42.5401 123.18 43.2601ZM123.77 43.2601C123.77 42.5301 123.82 41.7101 123.25 41.1701C122.88 40.8201 122.38 40.6301 121.83 40.6301C121.28 40.6301 120.79 40.8201 120.41 41.1701C119.83 41.7101 119.89 42.5201 119.89 43.2601C119.89 44.2901 119.91 44.8801 120.41 45.3501C120.78 45.7001 121.27 45.8901 121.83 45.8901C122.39 45.8901 122.87 45.7001 123.25 45.3501C123.76 44.8801 123.77 44.2901 123.77 43.2601ZM117.32 41.1701V40.6801H113.52V41.1701H115.12V45.8301H115.71V41.1701H117.31H117.32ZM111.05 45.2501L110.65 44.8801C110.31 45.1901 110 45.3901 109.51 45.3901C109.12 45.3901 108.79 45.2701 108.54 45.0301C108.23 44.7401 108.15 44.4101 108.15 43.4601V43.2601C108.15 42.4201 108.17 41.8501 108.54 41.4901C108.79 41.2601 109.13 41.1301 109.51 41.1301C110.01 41.1301 110.31 41.3301 110.65 41.6401L111.05 41.2701C110.56 40.8601 110.18 40.6401 109.5 40.6401C108.95 40.6401 108.45 40.8301 108.08 41.1801C107.54 41.6801 107.56 42.2801 107.56 43.2701C107.56 44.1001 107.53 44.8301 108.08 45.3601C108.45 45.7101 108.95 45.9001 109.51 45.9001C110.18 45.9001 110.57 45.6701 111.05 45.2701V45.2501ZM103.84 43.2601C103.84 43.9501 103.89 44.6101 103.45 45.0201C103.19 45.2601 102.86 45.3901 102.49 45.3901C102.12 45.3901 101.79 45.2601 101.53 45.0201C101.09 44.6101 101.14 43.9501 101.14 43.2601C101.14 42.4801 101.11 41.8901 101.53 41.5001C101.79 41.2601 102.13 41.1301 102.49 41.1301C102.85 41.1301 103.19 41.2601 103.45 41.5001C103.87 41.8901 103.84 42.5401 103.84 43.2601ZM104.43 43.2601C104.43 42.5301 104.48 41.7101 103.91 41.1701C103.54 40.8201 103.04 40.6301 102.49 40.6301C101.94 40.6301 101.45 40.8201 101.07 41.1701C100.49 41.7101 100.55 42.5201 100.55 43.2601C100.55 44.2901 100.57 44.8801 101.07 45.3501C101.44 45.7001 101.93 45.8901 102.49 45.8901C103.05 45.8901 103.53 45.7001 103.91 45.3501C104.42 44.8801 104.43 44.2901 104.43 43.2601ZM97.22 45.8401V40.6801H93.41V45.8401H94V41.1801H96.62V45.8401H97.21H97.22ZM86.81 45.8401V40.6801H86.25L83.43 44.8801V40.6801H82.84V45.8401H83.4L86.22 41.6301V45.8401H86.81ZM75.62 43.2601C75.62 43.9501 75.67 44.6101 75.23 45.0201C74.97 45.2601 74.64 45.3901 74.27 45.3901C73.9 45.3901 73.57 45.2601 73.31 45.0201C72.87 44.6101 72.92 43.9501 72.92 43.2601C72.92 42.4801 72.89 41.8901 73.31 41.5001C73.57 41.2601 73.91 41.1301 74.27 41.1301C74.63 41.1301 74.97 41.2601 75.23 41.5001C75.65 41.8901 75.62 42.5401 75.62 43.2601ZM76.22 43.2601C76.22 42.5301 76.27 41.7101 75.7 41.1701C75.33 40.8201 74.83 40.6301 74.28 40.6301C73.73 40.6301 73.24 40.8201 72.86 41.1701C72.28 41.7101 72.34 42.5201 72.34 43.2601C72.34 44.2901 72.36 44.8801 72.86 45.3501C73.23 45.7001 73.72 45.8901 74.28 45.8901C74.84 45.8901 75.32 45.7001 75.7 45.3501C76.21 44.8801 76.22 44.2901 76.22 43.2601ZM69 45.8401V40.6801H65.99L65.9 43.3201C65.85 45.0401 65.42 45.3401 64.74 45.3401H64.53V45.8301H64.88C65.92 45.8301 66.42 45.2001 66.48 43.4801L66.57 41.1701H68.41V45.8301H69V45.8401ZM62.02 45.8401V45.3501H59.17V43.4901H61.6V43.0001H59.17V41.1801H62.02V40.6901H58.58V45.8501H62.02V45.8401ZM54.27 45.3501H51.86C52.31 44.2801 52.49 43.5801 52.49 41.5301V41.1801H54.27V45.3501ZM55.52 47.1601V45.3501H54.86V40.6901H51.9V41.0901C51.9 43.3501 51.74 44.2301 51.23 45.3601H50.67V47.1701H51.25V45.8501H54.93V47.1701H55.51L55.52 47.1601Z" fill="white"/>
</svg>
