<svg width="60" height="48" viewBox="0 0 60 48" fill="none" xmlns="http://www.w3.org/2000/svg">
<path d="M17.8359 21.2009L9.54956 27.0901C8.52417 27.8106 6.99988 27.5474 6.29322 26.5358L0.431765 18.2078C-0.316526 17.1409 -0.0671363 15.6582 0.985964 14.9099C1.38782 14.6328 1.8451 14.4803 2.33008 14.4803C2.38904 14.4803 2.45105 14.4803 2.51331 14.4833C2.58264 14.4866 2.65235 14.4935 2.71814 14.5081C3.34168 14.6051 3.88208 14.9515 4.24231 15.4642L6.40406 18.5404L6.80591 17.1686C7.60962 14.4803 8.80127 12.0139 10.381 9.85217C14.8705 3.68591 22.0761 0 29.6558 0C36.6395 0 43.2355 3.06238 47.7389 8.38336C48.5703 9.36719 48.4456 10.8637 47.4618 11.709C46.9768 12.1108 46.3809 12.3187 45.7573 12.2633C45.1338 12.2217 44.5657 11.9307 44.1638 11.4457C40.561 7.16394 35.2677 4.7113 29.6558 4.7113C23.4756 4.7113 17.8359 7.59351 14.1638 12.6235C12.889 14.3695 11.9191 16.3649 11.2816 18.5404L10.7135 20.4665L15.12 17.3348C15.6327 16.9746 16.2423 16.8221 16.866 16.933C17.4895 17.0439 18.0299 17.3903 18.3901 17.903C19.1384 18.97 18.889 20.4526 17.8359 21.2009Z" fill="url(#paint0_linear_905_201)"/>
<path d="M58.8798 29.806C59.6281 30.873 59.3785 32.3557 58.3254 33.1039C57.3001 33.8384 55.7758 33.5612 55.0553 32.522L52.8936 29.4597L52.4917 30.8315C51.6881 33.5197 50.4963 35.9862 48.9168 38.1478C44.4271 44.3141 37.2354 48 29.6558 48C22.6581 48 16.0761 44.9377 11.5726 39.6028C10.7273 38.6051 10.8521 37.1224 11.8358 36.2772C12.2654 35.9169 12.792 35.7229 13.3463 35.7229C13.368 35.7229 13.392 35.725 13.4171 35.7276C13.4562 35.7316 13.4982 35.7368 13.5403 35.7368C14.1638 35.7922 14.7319 36.0832 15.1338 36.5543C18.7366 40.8361 24.0299 43.2887 29.6418 43.2887C35.822 43.2887 41.4756 40.4065 45.1338 35.3765C46.4086 33.6306 47.3785 31.6351 48.016 29.4597L48.5841 27.5335L44.1776 30.6652C43.6649 31.0255 43.0414 31.1779 42.4318 31.067C41.8081 30.97 41.2677 30.6236 40.9075 30.1109C40.1592 29.0439 40.4086 27.5613 41.4617 26.813L49.7481 20.9238C50.2609 20.5635 50.8705 20.4111 51.494 20.522C52.1176 20.619 52.6581 20.9654 53.0183 21.4781L58.8798 29.806Z" fill="url(#paint1_linear_905_201)"/>
<defs>
<linearGradient id="paint0_linear_905_201" x1="29.6558" y1="9.4061e-06" x2="29.6558" y2="47.9998" gradientUnits="userSpaceOnUse">
<stop stop-color="#2764E0"/>
<stop offset="1" stop-color="#DD0858"/>
</linearGradient>
<linearGradient id="paint1_linear_905_201" x1="29.6558" y1="9.4061e-06" x2="29.6558" y2="47.9998" gradientUnits="userSpaceOnUse">
<stop stop-color="#2764E0"/>
<stop offset="1" stop-color="#DD0858"/>
</linearGradient>
</defs>
</svg>
