<svg width="56" height="34" viewBox="0 0 56 34" fill="none" xmlns="http://www.w3.org/2000/svg">
<rect width="56" height="34" rx="6" fill="white"/>
<path d="M12.9431 19.2839V25.7037H10V8H15.4019C17.4467 8 19.0321 8.47325 20.158 9.41975C21.2839 10.3663 21.8468 11.6996 21.8468 13.4198C21.8468 15.1399 21.2591 16.5473 20.0835 17.642C18.9079 18.7366 17.3184 19.2839 15.3149 19.2839H12.9431ZM12.9431 10.4198V16.8889H14.8555C16.1221 16.8889 17.0866 16.5967 17.7489 16.0123C18.4112 15.428 18.7423 14.6049 18.7423 13.5432C18.7423 11.4609 17.5254 10.4198 15.0914 10.4198H12.9431Z" fill="#070A23"/>
<path d="M31.9303 15.7901C31.5826 15.5185 31.0818 15.3827 30.4277 15.3827C29.575 15.3827 28.8631 15.7654 28.2918 16.5309C27.7206 17.2963 27.435 18.3374 27.435 19.6543V25.7037H24.554V13.0617H27.435V15.6667H27.4846C27.7661 14.7778 28.1966 14.0864 28.7761 13.5926C29.3639 13.0905 30.0179 12.8395 30.7382 12.8395C31.2597 12.8395 31.6571 12.9177 31.9303 13.0741V15.7901Z" fill="#070A23"/>
<path d="M39.3812 26C37.4191 26 35.8503 25.4115 34.6747 24.2346C33.5074 23.0494 32.9238 21.4815 32.9238 19.5309C32.9238 17.4074 33.5323 15.749 34.7492 14.5556C35.9745 13.3621 37.6219 12.7654 39.6916 12.7654C41.6785 12.7654 43.2266 13.3457 44.336 14.5062C45.4453 15.6667 46 17.2757 46 19.3333C46 21.3498 45.3998 22.9671 44.1994 24.1852C43.0072 25.3951 41.4012 26 39.3812 26ZM39.5178 15.0494C38.3919 15.0494 37.5019 15.4403 36.8479 16.2222C36.1939 17.0041 35.8668 18.0823 35.8668 19.4568C35.8668 20.7819 36.198 21.8272 36.8603 22.5926C37.5226 23.3498 38.4084 23.7284 39.5178 23.7284C40.6519 23.7284 41.5212 23.3539 42.1256 22.6049C42.7382 21.856 43.0445 20.7901 43.0445 19.4074C43.0445 18.0165 42.7382 16.9424 42.1256 16.1852C41.5212 15.428 40.6519 15.0494 39.5178 15.0494Z" fill="#070A23"/>
</svg>
