<svg width="303" height="303" viewBox="0 0 303 303" fill="none" xmlns="http://www.w3.org/2000/svg">
<rect x="1" y="260" width="301" height="42" rx="5" fill="#2764E0" stroke="#2764E0" stroke-width="2"/>
<path d="M139.272 286H138.042V281.21H132.607V286H131.377V275.497H132.607V280.104H138.042V275.497H139.272V286ZM147.234 286H146.033V284.828H146.003C145.481 285.727 144.712 286.176 143.696 286.176C142.949 286.176 142.363 285.978 141.938 285.583C141.519 285.187 141.309 284.662 141.309 284.008C141.309 282.606 142.134 281.791 143.784 281.562L146.033 281.247C146.033 279.972 145.518 279.335 144.487 279.335C143.584 279.335 142.769 279.643 142.041 280.258V279.027C142.778 278.559 143.628 278.324 144.59 278.324C146.353 278.324 147.234 279.257 147.234 281.122V286ZM146.033 282.206L144.224 282.455C143.667 282.533 143.247 282.672 142.964 282.873C142.681 283.068 142.539 283.417 142.539 283.92C142.539 284.286 142.668 284.586 142.927 284.821C143.191 285.05 143.54 285.165 143.975 285.165C144.57 285.165 145.061 284.958 145.447 284.542C145.837 284.123 146.033 283.593 146.033 282.953V282.206ZM155.781 286H154.697V280.016C154.59 280.226 154.426 280.521 154.207 280.902L150.742 286H149.497V278.5H150.596V284.411C150.654 284.269 150.781 284.027 150.977 283.686L154.536 278.5H155.781V286ZM155.342 274.853C155.269 275.541 154.99 276.085 154.507 276.486C154.028 276.881 153.428 277.079 152.705 277.079C151.963 277.079 151.357 276.881 150.889 276.486C150.425 276.085 150.171 275.541 150.127 274.853H151.313C151.382 275.771 151.851 276.229 152.72 276.229C153.11 276.229 153.433 276.11 153.687 275.871C153.94 275.626 154.097 275.287 154.155 274.853H155.342ZM162.922 279.525H160.674V286H159.473V279.525H157.217V278.5H162.922V279.525ZM170.649 286H169.565V280.016C169.458 280.226 169.294 280.521 169.075 280.902L165.61 286H164.365V278.5H165.464V284.411C165.522 284.269 165.649 284.027 165.845 283.686L169.404 278.5H170.649V286Z" fill="white"/>
<path d="M1.46875 17V5.79688H4.65625C5.625 5.79688 6.39323 6.03385 6.96094 6.50781C7.52865 6.98177 7.8125 7.59896 7.8125 8.35938C7.8125 8.99479 7.64062 9.54688 7.29688 10.0156C6.95312 10.4844 6.47917 10.8177 5.875 11.0156V11.0469C6.63021 11.1354 7.23438 11.4219 7.6875 11.9062C8.14062 12.3854 8.36719 13.0104 8.36719 13.7812C8.36719 14.7396 8.02344 15.5156 7.33594 16.1094C6.64844 16.7031 5.78125 17 4.73438 17H1.46875ZM2.78125 6.98438V10.6016H4.125C4.84375 10.6016 5.40885 10.4297 5.82031 10.0859C6.23177 9.73698 6.4375 9.2474 6.4375 8.61719C6.4375 7.52865 5.72135 6.98438 4.28906 6.98438H2.78125ZM2.78125 11.7812V15.8125H4.5625C5.33333 15.8125 5.92969 15.6302 6.35156 15.2656C6.77865 14.901 6.99219 14.401 6.99219 13.7656C6.99219 12.4427 6.09115 11.7812 4.28906 11.7812H2.78125ZM10.4688 17V9H13.9531C14.7396 9 15.3594 9.17448 15.8125 9.52344C16.2708 9.8724 16.5 10.349 16.5 10.9531C16.5 11.9896 15.9896 12.6198 14.9688 12.8438C16.1927 13 16.8047 13.6172 16.8047 14.6953C16.8047 15.3464 16.5521 15.8932 16.0469 16.3359C15.5469 16.7786 14.9245 17 14.1797 17H10.4688ZM11.75 10.0938V12.3438H13.6719C14.7031 12.3438 15.2188 11.9427 15.2188 11.1406C15.2188 10.4427 14.7552 10.0938 13.8281 10.0938H11.75ZM11.75 13.4375V15.9062H13.9688C15.0052 15.9062 15.5234 15.487 15.5234 14.6484C15.5234 13.8411 14.9427 13.4375 13.7812 13.4375H11.75ZM25.3828 13.3203H19.7344C19.7552 14.2109 19.9948 14.8984 20.4531 15.3828C20.9115 15.8672 21.5417 16.1094 22.3438 16.1094C23.2448 16.1094 24.0729 15.8125 24.8281 15.2188V16.4219C24.125 16.9323 23.1953 17.1875 22.0391 17.1875C20.9089 17.1875 20.0208 16.8255 19.375 16.1016C18.7292 15.3724 18.4062 14.349 18.4062 13.0312C18.4062 11.7865 18.7578 10.7734 19.4609 9.99219C20.1693 9.20573 21.0469 8.8125 22.0938 8.8125C23.1406 8.8125 23.9505 9.15104 24.5234 9.82812C25.0964 10.5052 25.3828 11.4453 25.3828 12.6484V13.3203ZM24.0703 12.2344C24.0651 11.4948 23.8854 10.9193 23.5312 10.5078C23.1823 10.0964 22.6953 9.89062 22.0703 9.89062C21.4661 9.89062 20.9531 10.1068 20.5312 10.5391C20.1094 10.9714 19.849 11.5365 19.75 12.2344H24.0703ZM34.3047 19.9141H33.2188V17H27.2656V19.9141H26.1719V15.9141H26.8828C28.2474 13.9453 28.9401 11.6406 28.9609 9H33.1172V15.9141H34.3047V19.9141ZM31.8359 15.9141V10.0859H30.0625C29.9219 12.2422 29.3151 14.1849 28.2422 15.9141H31.8359ZM42.7812 17H41.625V10.6172C41.5104 10.8411 41.3359 11.1562 41.1016 11.5625L37.4062 17H36.0781V9H37.25V15.3047C37.3125 15.1536 37.4479 14.8958 37.6562 14.5312L41.4531 9H42.7812V17ZM50.3984 10.0938H48V17H46.7188V10.0938H44.3125V9H50.3984V10.0938ZM58.0703 13.3203H52.4219C52.4427 14.2109 52.6823 14.8984 53.1406 15.3828C53.599 15.8672 54.2292 16.1094 55.0312 16.1094C55.9323 16.1094 56.7604 15.8125 57.5156 15.2188V16.4219C56.8125 16.9323 55.8828 17.1875 54.7266 17.1875C53.5964 17.1875 52.7083 16.8255 52.0625 16.1016C51.4167 15.3724 51.0938 14.349 51.0938 13.0312C51.0938 11.7865 51.4453 10.7734 52.1484 9.99219C52.8568 9.20573 53.7344 8.8125 54.7812 8.8125C55.8281 8.8125 56.638 9.15104 57.2109 9.82812C57.7839 10.5052 58.0703 11.4453 58.0703 12.6484V13.3203ZM56.7578 12.2344C56.7526 11.4948 56.5729 10.9193 56.2188 10.5078C55.8698 10.0964 55.3828 9.89062 54.7578 9.89062C54.1536 9.89062 53.6406 10.1068 53.2188 10.5391C52.7969 10.9714 52.5365 11.5365 52.4375 12.2344H56.7578ZM69.8594 16.6328C69.2448 17.0026 68.5156 17.1875 67.6719 17.1875C66.5312 17.1875 65.6094 16.8177 64.9062 16.0781C64.2083 15.3333 63.8594 14.3698 63.8594 13.1875C63.8594 11.8698 64.237 10.8125 64.9922 10.0156C65.7474 9.21354 66.7552 8.8125 68.0156 8.8125C68.7188 8.8125 69.3385 8.94271 69.875 9.20312V10.5156C69.2812 10.099 68.6458 9.89062 67.9688 9.89062C67.151 9.89062 66.4792 10.1849 65.9531 10.7734C65.4323 11.3568 65.1719 12.125 65.1719 13.0781C65.1719 14.0156 65.4167 14.7552 65.9062 15.2969C66.401 15.8385 67.0625 16.1094 67.8906 16.1094C68.5885 16.1094 69.2448 15.8776 69.8594 15.4141V16.6328ZM75.1406 17.1875C73.9583 17.1875 73.013 16.8151 72.3047 16.0703C71.6016 15.3203 71.25 14.3281 71.25 13.0938C71.25 11.75 71.6172 10.7005 72.3516 9.94531C73.0859 9.1901 74.0781 8.8125 75.3281 8.8125C76.5208 8.8125 77.4505 9.17969 78.1172 9.91406C78.7891 10.6484 79.125 11.6667 79.125 12.9688C79.125 14.2448 78.763 15.2682 78.0391 16.0391C77.3203 16.8047 76.3542 17.1875 75.1406 17.1875ZM75.2344 9.89062C74.4115 9.89062 73.7604 10.1719 73.2812 10.7344C72.8021 11.2917 72.5625 12.0625 72.5625 13.0469C72.5625 13.9948 72.8047 14.7422 73.2891 15.2891C73.7734 15.8359 74.4219 16.1094 75.2344 16.1094C76.0625 16.1094 76.6979 15.8411 77.1406 15.3047C77.5885 14.7682 77.8125 14.0052 77.8125 13.0156C77.8125 12.0156 77.5885 11.2448 77.1406 10.7031C76.6979 10.1615 76.0625 9.89062 75.2344 9.89062ZM86.625 16.6328C86.0104 17.0026 85.2812 17.1875 84.4375 17.1875C83.2969 17.1875 82.375 16.8177 81.6719 16.0781C80.974 15.3333 80.625 14.3698 80.625 13.1875C80.625 11.8698 81.0026 10.8125 81.7578 10.0156C82.513 9.21354 83.5208 8.8125 84.7812 8.8125C85.4844 8.8125 86.1042 8.94271 86.6406 9.20312V10.5156C86.0469 10.099 85.4115 9.89062 84.7344 9.89062C83.9167 9.89062 83.2448 10.1849 82.7188 10.7734C82.1979 11.3568 81.9375 12.125 81.9375 13.0781C81.9375 14.0156 82.1823 14.7552 82.6719 15.2969C83.1667 15.8385 83.8281 16.1094 84.6562 16.1094C85.3542 16.1094 86.0104 15.8776 86.625 15.4141V16.6328ZM93.5859 10.0938H91.1875V17H89.9062V10.0938H87.5V9H93.5859V10.0938ZM100.852 17H99.5703V15.75H99.5391C98.9818 16.7083 98.1615 17.1875 97.0781 17.1875C96.2812 17.1875 95.6562 16.9766 95.2031 16.5547C94.7552 16.1328 94.5312 15.5729 94.5312 14.875C94.5312 13.3802 95.4115 12.5104 97.1719 12.2656L99.5703 11.9297C99.5703 10.5703 99.0208 9.89062 97.9219 9.89062C96.9583 9.89062 96.0885 10.2188 95.3125 10.875V9.5625C96.099 9.0625 97.0052 8.8125 98.0312 8.8125C99.9115 8.8125 100.852 9.80729 100.852 11.7969V17ZM99.5703 12.9531L97.6406 13.2188C97.0469 13.3021 96.599 13.4505 96.2969 13.6641C95.9948 13.8724 95.8438 14.2448 95.8438 14.7812C95.8438 15.1719 95.9818 15.4922 96.2578 15.7422C96.5391 15.987 96.9115 16.1094 97.375 16.1094C98.0104 16.1094 98.5339 15.888 98.9453 15.4453C99.362 14.9974 99.5703 14.4323 99.5703 13.75V12.9531ZM103.266 17V9H106.75C107.536 9 108.156 9.17448 108.609 9.52344C109.068 9.8724 109.297 10.349 109.297 10.9531C109.297 11.9896 108.786 12.6198 107.766 12.8438C108.99 13 109.602 13.6172 109.602 14.6953C109.602 15.3464 109.349 15.8932 108.844 16.3359C108.344 16.7786 107.721 17 106.977 17H103.266ZM104.547 10.0938V12.3438H106.469C107.5 12.3438 108.016 11.9427 108.016 11.1406C108.016 10.4427 107.552 10.0938 106.625 10.0938H104.547ZM104.547 13.4375V15.9062H106.766C107.802 15.9062 108.32 15.487 108.32 14.6484C108.32 13.8411 107.74 13.4375 106.578 13.4375H104.547ZM115.469 16.7734V15.5156C116.167 15.9062 116.982 16.1016 117.914 16.1016C119.326 16.1016 120.031 15.6536 120.031 14.7578C120.031 13.8724 119.258 13.4297 117.711 13.4297H116.922V12.3438H117.672C119.031 12.3438 119.711 11.9219 119.711 11.0781C119.711 10.7188 119.555 10.4323 119.242 10.2188C118.93 10.0052 118.503 9.89844 117.961 9.89844C117.185 9.89844 116.406 10.0938 115.625 10.4844V9.28906C116.51 8.96615 117.323 8.80469 118.062 8.80469C120.01 8.80469 120.984 9.52083 120.984 10.9531C120.984 11.4167 120.839 11.8177 120.547 12.1562C120.26 12.4896 119.857 12.7109 119.336 12.8203V12.8594C119.93 12.9062 120.406 13.1068 120.766 13.4609C121.125 13.8151 121.305 14.263 121.305 14.8047C121.305 15.5339 121.01 16.1146 120.422 16.5469C119.833 16.9792 119.023 17.1953 117.992 17.1953C116.893 17.1953 116.052 17.0547 115.469 16.7734ZM129.008 17H127.727V15.75H127.695C127.138 16.7083 126.318 17.1875 125.234 17.1875C124.438 17.1875 123.812 16.9766 123.359 16.5547C122.911 16.1328 122.688 15.5729 122.688 14.875C122.688 13.3802 123.568 12.5104 125.328 12.2656L127.727 11.9297C127.727 10.5703 127.177 9.89062 126.078 9.89062C125.115 9.89062 124.245 10.2188 123.469 10.875V9.5625C124.255 9.0625 125.161 8.8125 126.188 8.8125C128.068 8.8125 129.008 9.80729 129.008 11.7969V17ZM127.727 12.9531L125.797 13.2188C125.203 13.3021 124.755 13.4505 124.453 13.6641C124.151 13.8724 124 14.2448 124 14.7812C124 15.1719 124.138 15.4922 124.414 15.7422C124.695 15.987 125.068 16.1094 125.531 16.1094C126.167 16.1094 126.69 15.888 127.102 15.4453C127.518 14.9974 127.727 14.4323 127.727 13.75V12.9531ZM138.062 17H136.266L132.734 13.1562H132.703V17H131.422V9H132.703V12.6641H132.734L136.094 9H137.773L134.062 12.8594L138.062 17ZM145.102 17H143.82V15.75H143.789C143.232 16.7083 142.411 17.1875 141.328 17.1875C140.531 17.1875 139.906 16.9766 139.453 16.5547C139.005 16.1328 138.781 15.5729 138.781 14.875C138.781 13.3802 139.661 12.5104 141.422 12.2656L143.82 11.9297C143.82 10.5703 143.271 9.89062 142.172 9.89062C141.208 9.89062 140.339 10.2188 139.562 10.875V9.5625C140.349 9.0625 141.255 8.8125 142.281 8.8125C144.161 8.8125 145.102 9.80729 145.102 11.7969V17ZM143.82 12.9531L141.891 13.2188C141.297 13.3021 140.849 13.4505 140.547 13.6641C140.245 13.8724 140.094 14.2448 140.094 14.7812C140.094 15.1719 140.232 15.4922 140.508 15.7422C140.789 15.987 141.161 16.1094 141.625 16.1094C142.26 16.1094 142.784 15.888 143.195 15.4453C143.612 14.9974 143.82 14.4323 143.82 13.75V12.9531ZM146.844 16.7734V15.5156C147.542 15.9062 148.357 16.1016 149.289 16.1016C150.701 16.1016 151.406 15.6536 151.406 14.7578C151.406 13.8724 150.633 13.4297 149.086 13.4297H148.297V12.3438H149.047C150.406 12.3438 151.086 11.9219 151.086 11.0781C151.086 10.7188 150.93 10.4323 150.617 10.2188C150.305 10.0052 149.878 9.89844 149.336 9.89844C148.56 9.89844 147.781 10.0938 147 10.4844V9.28906C147.885 8.96615 148.698 8.80469 149.438 8.80469C151.385 8.80469 152.359 9.52083 152.359 10.9531C152.359 11.4167 152.214 11.8177 151.922 12.1562C151.635 12.4896 151.232 12.7109 150.711 12.8203V12.8594C151.305 12.9062 151.781 13.1068 152.141 13.4609C152.5 13.8151 152.68 14.263 152.68 14.8047C152.68 15.5339 152.385 16.1146 151.797 16.5469C151.208 16.9792 150.398 17.1953 149.367 17.1953C148.268 17.1953 147.427 17.0547 146.844 16.7734ZM160.383 17H159.102V15.75H159.07C158.513 16.7083 157.693 17.1875 156.609 17.1875C155.812 17.1875 155.188 16.9766 154.734 16.5547C154.286 16.1328 154.062 15.5729 154.062 14.875C154.062 13.3802 154.943 12.5104 156.703 12.2656L159.102 11.9297C159.102 10.5703 158.552 9.89062 157.453 9.89062C156.49 9.89062 155.62 10.2188 154.844 10.875V9.5625C155.63 9.0625 156.536 8.8125 157.562 8.8125C159.443 8.8125 160.383 9.80729 160.383 11.7969V17ZM159.102 12.9531L157.172 13.2188C156.578 13.3021 156.13 13.4505 155.828 13.6641C155.526 13.8724 155.375 14.2448 155.375 14.7812C155.375 15.1719 155.513 15.4922 155.789 15.7422C156.07 15.987 156.443 16.1094 156.906 16.1094C157.542 16.1094 158.065 15.888 158.477 15.4453C158.893 14.9974 159.102 14.4323 159.102 13.75V12.9531Z" fill="white"/>
<path opacity="0.4" d="M7.875 43H6.89062V36.9297C6.89062 36.3828 6.91016 35.998 6.94922 35.7754H6.91406C6.83984 35.9668 6.75 36.1426 6.64453 36.3027L2.32031 43H1.10156V34.5977H2.08594V40.5156C2.08594 41.1484 2.07031 41.5605 2.03906 41.752H2.0625C2.14844 41.5801 2.25781 41.3926 2.39062 41.1895L6.60938 34.5977H7.875V43ZM14.3379 43H13.3828V37.8145H11.9883C11.8281 39.7559 11.5527 41.1191 11.1621 41.9043C10.7754 42.6895 10.2539 43.082 9.59766 43.082C9.39844 43.082 9.22656 43.0547 9.08203 43V42.1738C9.21875 42.2441 9.36719 42.2793 9.52734 42.2793C10.3867 42.2793 10.9395 40.5195 11.1855 37H14.3379V43ZM21.3164 43H20.4492V38.2129C20.3633 38.3809 20.2324 38.6172 20.0566 38.9219L17.2852 43H16.2891V37H17.168V41.7285C17.2148 41.6152 17.3164 41.4219 17.4727 41.1484L20.3203 37H21.3164V43ZM31.5352 43H30.5742V37.8203H27.5156V43H26.5547V37H31.5352V43ZM34.4648 42.1328H34.4414V45.7598H33.4805V37H34.4414V38.0547H34.4648C34.9375 37.2578 35.6289 36.8594 36.5391 36.8594C37.3125 36.8594 37.916 37.1289 38.3496 37.668C38.7832 38.2031 39 38.9219 39 39.8242C39 40.8281 38.7559 41.6328 38.2676 42.2383C37.7793 42.8398 37.1113 43.1406 36.2637 43.1406C35.4863 43.1406 34.8867 42.8047 34.4648 42.1328ZM34.4414 39.7129V40.5508C34.4414 41.0469 34.6016 41.4688 34.9219 41.8164C35.2461 42.1602 35.6562 42.332 36.1523 42.332C36.7344 42.332 37.1895 42.1094 37.5176 41.6641C37.8496 41.2188 38.0156 40.5996 38.0156 39.8066C38.0156 39.1387 37.8613 38.6152 37.5527 38.2363C37.2441 37.8574 36.8262 37.668 36.2988 37.668C35.7402 37.668 35.291 37.8633 34.9512 38.2539C34.6113 38.6406 34.4414 39.127 34.4414 39.7129ZM45.5625 43H44.6953V38.2129C44.6094 38.3809 44.4785 38.6172 44.3027 38.9219L41.5312 43H40.5352V37H41.4141V41.7285C41.4609 41.6152 41.5625 41.4219 41.7188 41.1484L44.5664 37H45.5625V43ZM52.4883 43H51.1406L48.4922 40.1172H48.4688V43H47.5078V37H48.4688V39.748H48.4922L51.0117 37H52.2715L49.4883 39.8945L52.4883 43ZM54.457 42.1328H54.4336V45.7598H53.4727V37H54.4336V38.0547H54.457C54.9297 37.2578 55.6211 36.8594 56.5312 36.8594C57.3047 36.8594 57.9082 37.1289 58.3418 37.668C58.7754 38.2031 58.9922 38.9219 58.9922 39.8242C58.9922 40.8281 58.748 41.6328 58.2598 42.2383C57.7715 42.8398 57.1035 43.1406 56.2559 43.1406C55.4785 43.1406 54.8789 42.8047 54.457 42.1328ZM54.4336 39.7129V40.5508C54.4336 41.0469 54.5938 41.4688 54.9141 41.8164C55.2383 42.1602 55.6484 42.332 56.1445 42.332C56.7266 42.332 57.1816 42.1094 57.5098 41.6641C57.8418 41.2188 58.0078 40.5996 58.0078 39.8066C58.0078 39.1387 57.8535 38.6152 57.5449 38.2363C57.2363 37.8574 56.8184 37.668 56.291 37.668C55.7324 37.668 55.2832 37.8633 54.9434 38.2539C54.6035 38.6406 54.4336 39.127 54.4336 39.7129ZM65.3496 40.2402H61.1133C61.1289 40.9082 61.3086 41.4238 61.6523 41.7871C61.9961 42.1504 62.4688 42.332 63.0703 42.332C63.7461 42.332 64.3672 42.1094 64.9336 41.6641V42.5664C64.4062 42.9492 63.709 43.1406 62.8418 43.1406C61.9941 43.1406 61.3281 42.8691 60.8438 42.3262C60.3594 41.7793 60.1172 41.0117 60.1172 40.0234C60.1172 39.0898 60.3809 38.3301 60.9082 37.7441C61.4395 37.1543 62.0977 36.8594 62.8828 36.8594C63.668 36.8594 64.2754 37.1133 64.7051 37.6211C65.1348 38.1289 65.3496 38.834 65.3496 39.7363V40.2402ZM64.3652 39.4258C64.3613 38.8711 64.2266 38.4395 63.9609 38.1309C63.6992 37.8223 63.334 37.668 62.8652 37.668C62.4121 37.668 62.0273 37.8301 61.7109 38.1543C61.3945 38.4785 61.1992 38.9023 61.125 39.4258H64.3652ZM71.7891 43H70.8281V37.8203H67.7695V43H66.8086V37H71.7891V43ZM78.7617 43H77.8945V38.2129C77.8086 38.3809 77.6777 38.6172 77.502 38.9219L74.7305 43H73.7344V37H74.6133V41.7285C74.6602 41.6152 74.7617 41.4219 74.918 41.1484L77.7656 37H78.7617V43ZM84.4746 37.8203H82.6758V43H81.7148V37.8203H79.9102V37H84.4746V37.8203ZM90.2285 40.2402H85.9922C86.0078 40.9082 86.1875 41.4238 86.5312 41.7871C86.875 42.1504 87.3477 42.332 87.9492 42.332C88.625 42.332 89.2461 42.1094 89.8125 41.6641V42.5664C89.2852 42.9492 88.5879 43.1406 87.7207 43.1406C86.873 43.1406 86.207 42.8691 85.7227 42.3262C85.2383 41.7793 84.9961 41.0117 84.9961 40.0234C84.9961 39.0898 85.2598 38.3301 85.7871 37.7441C86.3184 37.1543 86.9766 36.8594 87.7617 36.8594C88.5469 36.8594 89.1543 37.1133 89.584 37.6211C90.0137 38.1289 90.2285 38.834 90.2285 39.7363V40.2402ZM89.2441 39.4258C89.2402 38.8711 89.1055 38.4395 88.8398 38.1309C88.5781 37.8223 88.2129 37.668 87.7441 37.668C87.291 37.668 86.9062 37.8301 86.5898 38.1543C86.2734 38.4785 86.0781 38.9023 86.0039 39.4258H89.2441ZM98.5547 43.1406V45.8242H97.6875V43.1406H97.5C96.625 43.1406 95.918 42.8574 95.3789 42.291C94.8398 41.7246 94.5703 40.9844 94.5703 40.0703C94.5703 39.0977 94.8418 38.3203 95.3848 37.7383C95.9316 37.1523 96.6523 36.8594 97.5469 36.8594H97.6875V34.457H98.5547V36.8594H98.6836C99.5859 36.8594 100.309 37.1504 100.852 37.7324C101.398 38.3105 101.672 39.0898 101.672 40.0703C101.672 40.9844 101.404 41.7246 100.869 42.291C100.334 42.8574 99.6309 43.1406 98.7598 43.1406H98.5547ZM98.5547 37.668V42.332H98.6836C99.293 42.332 99.7793 42.127 100.143 41.7168C100.506 41.3027 100.688 40.7422 100.688 40.0352C100.688 39.293 100.508 38.7129 100.148 38.2949C99.793 37.877 99.3145 37.668 98.7129 37.668H98.5547ZM97.6875 42.332V37.668H97.5469C96.9453 37.668 96.4629 37.8789 96.0996 38.3008C95.7363 38.7188 95.5547 39.2969 95.5547 40.0352C95.5547 40.7344 95.7363 41.293 96.0996 41.7109C96.4668 42.125 96.957 42.332 97.5703 42.332H97.6875ZM107.35 43H106.389V42.0625H106.365C105.947 42.7812 105.332 43.1406 104.52 43.1406C103.922 43.1406 103.453 42.9824 103.113 42.666C102.777 42.3496 102.609 41.9297 102.609 41.4062C102.609 40.2852 103.27 39.6328 104.59 39.4492L106.389 39.1973C106.389 38.1777 105.977 37.668 105.152 37.668C104.43 37.668 103.777 37.9141 103.195 38.4062V37.4219C103.785 37.0469 104.465 36.8594 105.234 36.8594C106.645 36.8594 107.35 37.6055 107.35 39.0977V43ZM106.389 39.9648L104.941 40.1641C104.496 40.2266 104.16 40.3379 103.934 40.498C103.707 40.6543 103.594 40.9336 103.594 41.3359C103.594 41.6289 103.697 41.8691 103.904 42.0566C104.115 42.2402 104.395 42.332 104.742 42.332C105.219 42.332 105.611 42.166 105.92 41.834C106.232 41.498 106.389 41.0742 106.389 40.5625V39.9648ZM114.188 43H113.32V38.2129C113.234 38.3809 113.104 38.6172 112.928 38.9219L110.156 43H109.16V37H110.039V41.7285C110.086 41.6152 110.188 41.4219 110.344 41.1484L113.191 37H114.188V43ZM113.836 34.082C113.777 34.6328 113.555 35.0684 113.168 35.3887C112.785 35.7051 112.305 35.8633 111.727 35.8633C111.133 35.8633 110.648 35.7051 110.273 35.3887C109.902 35.0684 109.699 34.6328 109.664 34.082H110.613C110.668 34.8164 111.043 35.1836 111.738 35.1836C112.051 35.1836 112.309 35.0879 112.512 34.8965C112.715 34.7012 112.84 34.4297 112.887 34.082H113.836ZM120.51 43H119.555V37.8145H118.16C118 39.7559 117.725 41.1191 117.334 41.9043C116.947 42.6895 116.426 43.082 115.77 43.082C115.57 43.082 115.398 43.0547 115.254 43V42.1738C115.391 42.2441 115.539 42.2793 115.699 42.2793C116.559 42.2793 117.111 40.5195 117.357 37H120.51V43ZM129.844 42.7246C129.383 43.002 128.836 43.1406 128.203 43.1406C127.348 43.1406 126.656 42.8633 126.129 42.3086C125.605 41.75 125.344 41.0273 125.344 40.1406C125.344 39.1523 125.627 38.3594 126.193 37.7617C126.76 37.1602 127.516 36.8594 128.461 36.8594C128.988 36.8594 129.453 36.957 129.855 37.1523V38.1367C129.41 37.8242 128.934 37.668 128.426 37.668C127.812 37.668 127.309 37.8887 126.914 38.3301C126.523 38.7676 126.328 39.3438 126.328 40.0586C126.328 40.7617 126.512 41.3164 126.879 41.7227C127.25 42.1289 127.746 42.332 128.367 42.332C128.891 42.332 129.383 42.1582 129.844 41.8105V42.7246ZM134.086 42.8301V41.8867C134.609 42.1797 135.221 42.3262 135.92 42.3262C136.979 42.3262 137.508 41.9902 137.508 41.3184C137.508 40.6543 136.928 40.3223 135.768 40.3223H135.176V39.5078H135.738C136.758 39.5078 137.268 39.1914 137.268 38.5586C137.268 38.2891 137.15 38.0742 136.916 37.9141C136.682 37.7539 136.361 37.6738 135.955 37.6738C135.373 37.6738 134.789 37.8203 134.203 38.1133V37.2168C134.867 36.9746 135.477 36.8535 136.031 36.8535C137.492 36.8535 138.223 37.3906 138.223 38.4648C138.223 38.8125 138.113 39.1133 137.895 39.3672C137.68 39.6172 137.377 39.7832 136.986 39.8652V39.8945C137.432 39.9297 137.789 40.0801 138.059 40.3457C138.328 40.6113 138.463 40.9473 138.463 41.3535C138.463 41.9004 138.242 42.3359 137.801 42.6602C137.359 42.9844 136.752 43.1465 135.979 43.1465C135.154 43.1465 134.523 43.041 134.086 42.8301ZM144.24 43H143.279V42.0625H143.256C142.838 42.7812 142.223 43.1406 141.41 43.1406C140.812 43.1406 140.344 42.9824 140.004 42.666C139.668 42.3496 139.5 41.9297 139.5 41.4062C139.5 40.2852 140.16 39.6328 141.48 39.4492L143.279 39.1973C143.279 38.1777 142.867 37.668 142.043 37.668C141.32 37.668 140.668 37.9141 140.086 38.4062V37.4219C140.676 37.0469 141.355 36.8594 142.125 36.8594C143.535 36.8594 144.24 37.6055 144.24 39.0977V43ZM143.279 39.9648L141.832 40.1641C141.387 40.2266 141.051 40.3379 140.824 40.498C140.598 40.6543 140.484 40.9336 140.484 41.3359C140.484 41.6289 140.588 41.8691 140.795 42.0566C141.006 42.2402 141.285 42.332 141.633 42.332C142.109 42.332 142.502 42.166 142.811 41.834C143.123 41.498 143.279 41.0742 143.279 40.5625V39.9648ZM150.152 43H149.191V40.5156H148.389C148.002 40.5156 147.65 40.8281 147.334 41.4531L146.555 43H145.441L146.449 41.1484C146.684 40.7188 146.967 40.4355 147.299 40.2988C146.83 40.2363 146.473 40.0645 146.227 39.7832C145.98 39.502 145.857 39.1504 145.857 38.7285C145.857 38.1973 146.049 37.7773 146.432 37.4688C146.818 37.1562 147.359 37 148.055 37H150.152V43ZM149.191 39.7129V37.8203H148.055C147.246 37.8203 146.842 38.127 146.842 38.7402C146.842 39.3887 147.234 39.7129 148.02 39.7129H149.191ZM152.086 43V37H154.699C155.289 37 155.754 37.1309 156.094 37.3926C156.438 37.6543 156.609 38.0117 156.609 38.4648C156.609 39.2422 156.227 39.7148 155.461 39.8828C156.379 40 156.838 40.4629 156.838 41.2715C156.838 41.7598 156.648 42.1699 156.27 42.502C155.895 42.834 155.428 43 154.869 43H152.086ZM153.047 37.8203V39.5078H154.488C155.262 39.5078 155.648 39.207 155.648 38.6055C155.648 38.082 155.301 37.8203 154.605 37.8203H153.047ZM153.047 40.3281V42.1797H154.711C155.488 42.1797 155.877 41.8652 155.877 41.2363C155.877 40.6309 155.441 40.3281 154.57 40.3281H153.047ZM163.43 43H162.082L159.434 40.1172H159.41V43H158.449V37H159.41V39.748H159.434L161.953 37H163.213L160.43 39.8945L163.43 43ZM166.676 43.1406C165.789 43.1406 165.08 42.8613 164.549 42.3027C164.021 41.7402 163.758 40.9961 163.758 40.0703C163.758 39.0625 164.033 38.2754 164.584 37.709C165.135 37.1426 165.879 36.8594 166.816 36.8594C167.711 36.8594 168.408 37.1348 168.908 37.6855C169.412 38.2363 169.664 39 169.664 39.9766C169.664 40.9336 169.393 41.7012 168.85 42.2793C168.311 42.8535 167.586 43.1406 166.676 43.1406ZM166.746 37.668C166.129 37.668 165.641 37.8789 165.281 38.3008C164.922 38.7188 164.742 39.2969 164.742 40.0352C164.742 40.7461 164.924 41.3066 165.287 41.7168C165.65 42.127 166.137 42.332 166.746 42.332C167.367 42.332 167.844 42.1309 168.176 41.7285C168.512 41.3262 168.68 40.7539 168.68 40.0117C168.68 39.2617 168.512 38.6836 168.176 38.2773C167.844 37.8711 167.367 37.668 166.746 37.668ZM176.227 43H175.359V38.2129C175.273 38.3809 175.143 38.6172 174.967 38.9219L172.195 43H171.199V37H172.078V41.7285C172.125 41.6152 172.227 41.4219 172.383 41.1484L175.23 37H176.227V43ZM175.875 34.082C175.816 34.6328 175.594 35.0684 175.207 35.3887C174.824 35.7051 174.344 35.8633 173.766 35.8633C173.172 35.8633 172.688 35.7051 172.312 35.3887C171.941 35.0684 171.738 34.6328 171.703 34.082H172.652C172.707 34.8164 173.082 35.1836 173.777 35.1836C174.09 35.1836 174.348 35.0879 174.551 34.8965C174.754 34.7012 174.879 34.4297 174.926 34.082H175.875ZM181.465 43V37H184.078C184.668 37 185.133 37.1309 185.473 37.3926C185.816 37.6543 185.988 38.0117 185.988 38.4648C185.988 39.2422 185.605 39.7148 184.84 39.8828C185.758 40 186.217 40.4629 186.217 41.2715C186.217 41.7598 186.027 42.1699 185.648 42.502C185.273 42.834 184.807 43 184.248 43H181.465ZM182.426 37.8203V39.5078H183.867C184.641 39.5078 185.027 39.207 185.027 38.6055C185.027 38.082 184.68 37.8203 183.984 37.8203H182.426ZM182.426 40.3281V42.1797H184.09C184.867 42.1797 185.256 41.8652 185.256 41.2363C185.256 40.6309 184.82 40.3281 183.949 40.3281H182.426ZM194.695 43.1406V45.8242H193.828V43.1406H193.641C192.766 43.1406 192.059 42.8574 191.52 42.291C190.98 41.7246 190.711 40.9844 190.711 40.0703C190.711 39.0977 190.982 38.3203 191.525 37.7383C192.072 37.1523 192.793 36.8594 193.688 36.8594H193.828V34.457H194.695V36.8594H194.824C195.727 36.8594 196.449 37.1504 196.992 37.7324C197.539 38.3105 197.812 39.0898 197.812 40.0703C197.812 40.9844 197.545 41.7246 197.01 42.291C196.475 42.8574 195.771 43.1406 194.9 43.1406H194.695ZM194.695 37.668V42.332H194.824C195.434 42.332 195.92 42.127 196.283 41.7168C196.646 41.3027 196.828 40.7422 196.828 40.0352C196.828 39.293 196.648 38.7129 196.289 38.2949C195.934 37.877 195.455 37.668 194.854 37.668H194.695ZM193.828 42.332V37.668H193.688C193.086 37.668 192.604 37.8789 192.24 38.3008C191.877 38.7188 191.695 39.2969 191.695 40.0352C191.695 40.7344 191.877 41.293 192.24 41.7109C192.607 42.125 193.098 42.332 193.711 42.332H193.828ZM201.867 43.1406C200.98 43.1406 200.271 42.8613 199.74 42.3027C199.213 41.7402 198.949 40.9961 198.949 40.0703C198.949 39.0625 199.225 38.2754 199.775 37.709C200.326 37.1426 201.07 36.8594 202.008 36.8594C202.902 36.8594 203.6 37.1348 204.1 37.6855C204.604 38.2363 204.855 39 204.855 39.9766C204.855 40.9336 204.584 41.7012 204.041 42.2793C203.502 42.8535 202.777 43.1406 201.867 43.1406ZM201.938 37.668C201.32 37.668 200.832 37.8789 200.473 38.3008C200.113 38.7188 199.934 39.2969 199.934 40.0352C199.934 40.7461 200.115 41.3066 200.479 41.7168C200.842 42.127 201.328 42.332 201.938 42.332C202.559 42.332 203.035 42.1309 203.367 41.7285C203.703 41.3262 203.871 40.7539 203.871 40.0117C203.871 39.2617 203.703 38.6836 203.367 38.2773C203.035 37.8711 202.559 37.668 201.938 37.668ZM207.375 42.1328H207.352V45.7598H206.391V37H207.352V38.0547H207.375C207.848 37.2578 208.539 36.8594 209.449 36.8594C210.223 36.8594 210.826 37.1289 211.26 37.668C211.693 38.2031 211.91 38.9219 211.91 39.8242C211.91 40.8281 211.666 41.6328 211.178 42.2383C210.689 42.8398 210.021 43.1406 209.174 43.1406C208.396 43.1406 207.797 42.8047 207.375 42.1328ZM207.352 39.7129V40.5508C207.352 41.0469 207.512 41.4688 207.832 41.8164C208.156 42.1602 208.566 42.332 209.062 42.332C209.645 42.332 210.1 42.1094 210.428 41.6641C210.76 41.2188 210.926 40.5996 210.926 39.8066C210.926 39.1387 210.771 38.6152 210.463 38.2363C210.154 37.8574 209.736 37.668 209.209 37.668C208.65 37.668 208.201 37.8633 207.861 38.2539C207.521 38.6406 207.352 39.127 207.352 39.7129ZM219.926 43H218.977V38.0547C218.891 38.3047 218.758 38.6719 218.578 39.1562L217.078 43H216.217L214.67 39.1562C214.588 38.9492 214.455 38.582 214.271 38.0547V43H213.445V37H214.67L216.252 40.9141C216.365 41.1992 216.51 41.5938 216.686 42.0977L217.113 40.9375L218.648 37H219.926V43ZM226.166 43H225.205V42.0625H225.182C224.764 42.7812 224.148 43.1406 223.336 43.1406C222.738 43.1406 222.27 42.9824 221.93 42.666C221.594 42.3496 221.426 41.9297 221.426 41.4062C221.426 40.2852 222.086 39.6328 223.406 39.4492L225.205 39.1973C225.205 38.1777 224.793 37.668 223.969 37.668C223.246 37.668 222.594 37.9141 222.012 38.4062V37.4219C222.602 37.0469 223.281 36.8594 224.051 36.8594C225.461 36.8594 226.166 37.6055 226.166 39.0977V43ZM225.205 39.9648L223.758 40.1641C223.312 40.2266 222.977 40.3379 222.75 40.498C222.523 40.6543 222.41 40.9336 222.41 41.3359C222.41 41.6289 222.514 41.8691 222.721 42.0566C222.932 42.2402 223.211 42.332 223.559 42.332C224.035 42.332 224.428 42.166 224.736 41.834C225.049 41.498 225.205 41.0742 225.205 40.5625V39.9648ZM231.744 37.8203H229.945V43H228.984V37.8203H227.18V37H231.744V37.8203ZM237.498 40.2402H233.262C233.277 40.9082 233.457 41.4238 233.801 41.7871C234.145 42.1504 234.617 42.332 235.219 42.332C235.895 42.332 236.516 42.1094 237.082 41.6641V42.5664C236.555 42.9492 235.857 43.1406 234.99 43.1406C234.143 43.1406 233.477 42.8691 232.992 42.3262C232.508 41.7793 232.266 41.0117 232.266 40.0234C232.266 39.0898 232.529 38.3301 233.057 37.7441C233.588 37.1543 234.246 36.8594 235.031 36.8594C235.816 36.8594 236.424 37.1133 236.854 37.6211C237.283 38.1289 237.498 38.834 237.498 39.7363V40.2402ZM236.514 39.4258C236.51 38.8711 236.375 38.4395 236.109 38.1309C235.848 37.8223 235.482 37.668 235.014 37.668C234.561 37.668 234.176 37.8301 233.859 38.1543C233.543 38.4785 233.348 38.9023 233.273 39.4258H236.514ZM11.0625 50.5977L8.68945 59H7.53516L5.80664 52.8594C5.73242 52.5977 5.6875 52.3125 5.67188 52.0039H5.64844C5.625 52.293 5.57422 52.5742 5.49609 52.8477L3.75586 59H2.61328L0.152344 50.5977H1.23633L3.02344 57.043C3.09766 57.3125 3.14453 57.5938 3.16406 57.8867H3.19336C3.21289 57.6797 3.27344 57.3984 3.375 57.043L5.23242 50.5977H6.17578L7.95703 57.0898C8.01953 57.3125 8.06641 57.5742 8.09766 57.875H8.12109C8.13672 57.6719 8.18945 57.4023 8.2793 57.0664L9.99609 50.5977H11.0625ZM14.4023 59.1406C13.5156 59.1406 12.8066 58.8613 12.2754 58.3027C11.748 57.7402 11.4844 56.9961 11.4844 56.0703C11.4844 55.0625 11.7598 54.2754 12.3105 53.709C12.8613 53.1426 13.6055 52.8594 14.543 52.8594C15.4375 52.8594 16.1348 53.1348 16.6348 53.6855C17.1387 54.2363 17.3906 55 17.3906 55.9766C17.3906 56.9336 17.1191 57.7012 16.5762 58.2793C16.0371 58.8535 15.3125 59.1406 14.4023 59.1406ZM14.4727 53.668C13.8555 53.668 13.3672 53.8789 13.0078 54.3008C12.6484 54.7188 12.4688 55.2969 12.4688 56.0352C12.4688 56.7461 12.6504 57.3066 13.0137 57.7168C13.377 58.127 13.8633 58.332 14.4727 58.332C15.0938 58.332 15.5703 58.1309 15.9023 57.7285C16.2383 57.3262 16.4062 56.7539 16.4062 56.0117C16.4062 55.2617 16.2383 54.6836 15.9023 54.2773C15.5703 53.8711 15.0938 53.668 14.4727 53.668ZM22.0547 53.9727C21.8867 53.8438 21.6445 53.7793 21.3281 53.7793C20.918 53.7793 20.5742 53.9727 20.2969 54.3594C20.0234 54.7461 19.8867 55.2734 19.8867 55.9414V59H18.9258V53H19.8867V54.2363H19.9102C20.0469 53.8145 20.2559 53.4863 20.5371 53.252C20.8184 53.0137 21.1328 52.8945 21.4805 52.8945C21.7305 52.8945 21.9219 52.9219 22.0547 52.9766V53.9727ZM28.0547 59H27.0938V57.9805H27.0703C26.625 58.7539 25.9375 59.1406 25.0078 59.1406C24.2539 59.1406 23.6504 58.873 23.1973 58.3379C22.748 57.7988 22.5234 57.0664 22.5234 56.1406C22.5234 55.1484 22.7734 54.3535 23.2734 53.7559C23.7734 53.1582 24.4395 52.8594 25.2715 52.8594C26.0957 52.8594 26.6953 53.1836 27.0703 53.832H27.0938V50.1172H28.0547V59ZM27.0938 56.2871V55.4023C27.0938 54.918 26.9336 54.5078 26.6133 54.1719C26.293 53.8359 25.8867 53.668 25.3945 53.668C24.8086 53.668 24.3477 53.8828 24.0117 54.3125C23.6758 54.7422 23.5078 55.3359 23.5078 56.0938C23.5078 56.7852 23.668 57.332 23.9883 57.7344C24.3125 58.1328 24.7461 58.332 25.2891 58.332C25.8242 58.332 26.2578 58.1387 26.5898 57.752C26.9258 57.3652 27.0938 56.877 27.0938 56.2871ZM30.8789 57.6641L29.9414 60.5469H29.2559L29.9414 57.6641H30.8789ZM40.4766 59H36.0234V50.5977H40.2891V51.4883H37.0078V54.2832H40.043V55.168H37.0078V58.1094H40.4766V59ZM46.3477 53L44.332 56.0352L46.3125 59H45.1934L44.0156 57.0547C43.9414 56.9336 43.8535 56.7812 43.752 56.5977H43.7285C43.709 56.6328 43.6172 56.7852 43.4531 57.0547L42.252 59H41.1445L43.1895 56.0586L41.2324 53H42.3516L43.5117 55.0508C43.5977 55.2031 43.6816 55.3594 43.7637 55.5195H43.7871L45.2871 53H46.3477ZM51.4688 58.7246C51.0078 59.002 50.4609 59.1406 49.8281 59.1406C48.9727 59.1406 48.2812 58.8633 47.7539 58.3086C47.2305 57.75 46.9688 57.0273 46.9688 56.1406C46.9688 55.1523 47.252 54.3594 47.8184 53.7617C48.3848 53.1602 49.1406 52.8594 50.0859 52.8594C50.6133 52.8594 51.0781 52.957 51.4805 53.1523V54.1367C51.0352 53.8242 50.5586 53.668 50.0508 53.668C49.4375 53.668 48.9336 53.8887 48.5391 54.3301C48.1484 54.7676 47.9531 55.3438 47.9531 56.0586C47.9531 56.7617 48.1367 57.3164 48.5039 57.7227C48.875 58.1289 49.3711 58.332 49.9922 58.332C50.5156 58.332 51.0078 58.1582 51.4688 57.8105V58.7246ZM57.7441 56.2402H53.5078C53.5234 56.9082 53.7031 57.4238 54.0469 57.7871C54.3906 58.1504 54.8633 58.332 55.4648 58.332C56.1406 58.332 56.7617 58.1094 57.3281 57.6641V58.5664C56.8008 58.9492 56.1035 59.1406 55.2363 59.1406C54.3887 59.1406 53.7227 58.8691 53.2383 58.3262C52.7539 57.7793 52.5117 57.0117 52.5117 56.0234C52.5117 55.0898 52.7754 54.3301 53.3027 53.7441C53.834 53.1543 54.4922 52.8594 55.2773 52.8594C56.0625 52.8594 56.6699 53.1133 57.0996 53.6211C57.5293 54.1289 57.7441 54.834 57.7441 55.7363V56.2402ZM56.7598 55.4258C56.7559 54.8711 56.6211 54.4395 56.3555 54.1309C56.0938 53.8223 55.7285 53.668 55.2598 53.668C54.8066 53.668 54.4219 53.8301 54.1055 54.1543C53.7891 54.4785 53.5938 54.9023 53.5195 55.4258H56.7598ZM60.1641 59H59.2031V50.1172H60.1641V59ZM62.9883 57.6641L62.0508 60.5469H61.3652L62.0508 57.6641H62.9883ZM73.1016 51.4883H70.6758V59H69.6914V51.4883H67.2715V50.5977H73.1016V51.4883ZM77.625 53L75.6094 56.0352L77.5898 59H76.4707L75.293 57.0547C75.2188 56.9336 75.1309 56.7812 75.0293 56.5977H75.0059C74.9863 56.6328 74.8945 56.7852 74.7305 57.0547L73.5293 59H72.4219L74.4668 56.0586L72.5098 53H73.6289L74.7891 55.0508C74.875 55.2031 74.959 55.3594 75.041 55.5195H75.0645L76.5645 53H77.625ZM81.5332 58.9414C81.3066 59.0664 81.0078 59.1289 80.6367 59.1289C79.5859 59.1289 79.0605 58.543 79.0605 57.3711V53.8203H78.0293V53H79.0605V51.5352L80.0215 51.2246V53H81.5332V53.8203H80.0215V57.2012C80.0215 57.6035 80.0898 57.8906 80.2266 58.0625C80.3633 58.2344 80.5898 58.3203 80.9062 58.3203C81.1484 58.3203 81.3574 58.2539 81.5332 58.1211V58.9414ZM83.6953 57.6641L82.7578 60.5469H82.0723L82.7578 57.6641H83.6953ZM93.5449 59H92.5898V56.5859C91.8867 56.9688 91.2383 57.1602 90.6445 57.1602C89.3008 57.1602 88.6289 56.4492 88.6289 55.0273V53H89.5898V54.9805C89.5898 55.8594 89.9688 56.2988 90.7266 56.2988C91.3047 56.2988 91.9258 56.1309 92.5898 55.7949V53H93.5449V59ZM99.2637 53.8203H97.4648V59H96.5039V53.8203H94.6992V53H99.2637V53.8203ZM102.703 59.1406C101.816 59.1406 101.107 58.8613 100.576 58.3027C100.049 57.7402 99.7852 56.9961 99.7852 56.0703C99.7852 55.0625 100.061 54.2754 100.611 53.709C101.162 53.1426 101.906 52.8594 102.844 52.8594C103.738 52.8594 104.436 53.1348 104.936 53.6855C105.439 54.2363 105.691 55 105.691 55.9766C105.691 56.9336 105.42 57.7012 104.877 58.2793C104.338 58.8535 103.613 59.1406 102.703 59.1406ZM102.773 53.668C102.156 53.668 101.668 53.8789 101.309 54.3008C100.949 54.7188 100.77 55.2969 100.77 56.0352C100.77 56.7461 100.951 57.3066 101.314 57.7168C101.678 58.127 102.164 58.332 102.773 58.332C103.395 58.332 103.871 58.1309 104.203 57.7285C104.539 57.3262 104.707 56.7539 104.707 56.0117C104.707 55.2617 104.539 54.6836 104.203 54.2773C103.871 53.8711 103.395 53.668 102.773 53.668ZM111.867 50.0469V50.9492C111.707 51.0664 111.449 51.1543 111.094 51.2129C110.215 51.3457 109.6 51.4746 109.248 51.5996C108.9 51.7207 108.613 51.9824 108.387 52.3848C108.164 52.7871 108.021 53.375 107.959 54.1484H107.982C108.451 53.4688 109.119 53.1289 109.986 53.1289C110.779 53.1289 111.418 53.4004 111.902 53.9434C112.387 54.4863 112.629 55.2031 112.629 56.0938C112.629 57.0117 112.375 57.75 111.867 58.3086C111.363 58.8633 110.684 59.1406 109.828 59.1406C108.906 59.1406 108.195 58.8145 107.695 58.1621C107.199 57.5059 106.951 56.5703 106.951 55.3555C106.951 54.4102 107.041 53.6094 107.221 52.9531C107.4 52.293 107.648 51.7969 107.965 51.4648C108.285 51.1328 108.639 50.9043 109.025 50.7793C109.416 50.6543 110.084 50.5078 111.029 50.3398C111.404 50.2539 111.684 50.1562 111.867 50.0469ZM107.947 55.0977V55.9297C107.951 56.2422 107.998 56.5488 108.088 56.8496C108.178 57.1504 108.307 57.416 108.475 57.6465C108.643 57.877 108.84 58.0488 109.066 58.1621C109.297 58.2754 109.559 58.332 109.852 58.332C110.387 58.332 110.818 58.1328 111.146 57.7344C111.479 57.332 111.645 56.8184 111.645 56.1934C111.645 55.5059 111.475 54.9609 111.135 54.5586C110.799 54.1523 110.344 53.9492 109.77 53.9492C108.965 53.9492 108.357 54.332 107.947 55.0977ZM120.738 59H119.789V53H120.738V59ZM114.176 59V53H115.137V55.3027H116.754C117.367 55.3027 117.854 55.4629 118.213 55.7832C118.576 56.1035 118.758 56.5508 118.758 57.125C118.758 57.7031 118.576 58.1602 118.213 58.4961C117.85 58.832 117.391 59 116.836 59H114.176ZM115.137 56.1289V58.1797H116.578C117.375 58.1797 117.773 57.8281 117.773 57.125C117.773 56.4609 117.371 56.1289 116.566 56.1289H115.137ZM132.469 59H131.52V54.0547C131.434 54.3047 131.301 54.6719 131.121 55.1562L129.621 59H128.76L127.213 55.1562C127.131 54.9492 126.998 54.582 126.814 54.0547V59H125.988V53H127.213L128.795 56.9141C128.908 57.1992 129.053 57.5938 129.229 58.0977L129.656 56.9375L131.191 53H132.469V59ZM140.977 59H140.027V53H140.977V59ZM134.414 59V53H135.375V55.3027H136.992C137.605 55.3027 138.092 55.4629 138.451 55.7832C138.814 56.1035 138.996 56.5508 138.996 57.125C138.996 57.7031 138.814 58.1602 138.451 58.4961C138.088 58.832 137.629 59 137.074 59H134.414ZM135.375 56.1289V58.1797H136.816C137.613 58.1797 138.012 57.8281 138.012 57.125C138.012 56.4609 137.609 56.1289 136.805 56.1289H135.375ZM152.707 59H151.758V54.0547C151.672 54.3047 151.539 54.6719 151.359 55.1562L149.859 59H148.998L147.451 55.1562C147.369 54.9492 147.236 54.582 147.053 54.0547V59H146.227V53H147.451L149.033 56.9141C149.146 57.1992 149.291 57.5938 149.467 58.0977L149.895 56.9375L151.43 53H152.707V59ZM157.16 59.1406C156.273 59.1406 155.564 58.8613 155.033 58.3027C154.506 57.7402 154.242 56.9961 154.242 56.0703C154.242 55.0625 154.518 54.2754 155.068 53.709C155.619 53.1426 156.363 52.8594 157.301 52.8594C158.195 52.8594 158.893 53.1348 159.393 53.6855C159.896 54.2363 160.148 55 160.148 55.9766C160.148 56.9336 159.877 57.7012 159.334 58.2793C158.795 58.8535 158.07 59.1406 157.16 59.1406ZM157.23 53.668C156.613 53.668 156.125 53.8789 155.766 54.3008C155.406 54.7188 155.227 55.2969 155.227 56.0352C155.227 56.7461 155.408 57.3066 155.771 57.7168C156.135 58.127 156.621 58.332 157.23 58.332C157.852 58.332 158.328 58.1309 158.66 57.7285C158.996 57.3262 159.164 56.7539 159.164 56.0117C159.164 55.2617 158.996 54.6836 158.66 54.2773C158.328 53.8711 157.852 53.668 157.23 53.668ZM165.018 53.8203H162.645V59H161.684V53H165.018V53.8203ZM170.221 59H169.266V53.8145H167.871C167.711 55.7559 167.436 57.1191 167.045 57.9043C166.658 58.6895 166.137 59.082 165.48 59.082C165.281 59.082 165.109 59.0547 164.965 59V58.1738C165.102 58.2441 165.25 58.2793 165.41 58.2793C166.27 58.2793 166.822 56.5195 167.068 53H170.221V59ZM177.199 59H176.332V54.2129C176.246 54.3809 176.115 54.6172 175.939 54.9219L173.168 59H172.172V53H173.051V57.7285C173.098 57.6152 173.199 57.4219 173.355 57.1484L176.203 53H177.199V59ZM187.26 56.2402H183.023C183.039 56.9082 183.219 57.4238 183.562 57.7871C183.906 58.1504 184.379 58.332 184.98 58.332C185.656 58.332 186.277 58.1094 186.844 57.6641V58.5664C186.316 58.9492 185.619 59.1406 184.752 59.1406C183.904 59.1406 183.238 58.8691 182.754 58.3262C182.27 57.7793 182.027 57.0117 182.027 56.0234C182.027 55.0898 182.291 54.3301 182.818 53.7441C183.35 53.1543 184.008 52.8594 184.793 52.8594C185.578 52.8594 186.186 53.1133 186.615 53.6211C187.045 54.1289 187.26 54.834 187.26 55.7363V56.2402ZM186.275 55.4258C186.271 54.8711 186.137 54.4395 185.871 54.1309C185.609 53.8223 185.244 53.668 184.775 53.668C184.322 53.668 183.938 53.8301 183.621 54.1543C183.305 54.4785 183.109 54.9023 183.035 55.4258H186.275ZM192.053 53.8203H189.68V59H188.719V53H192.053V53.8203ZM195.598 59.1406C194.711 59.1406 194.002 58.8613 193.471 58.3027C192.943 57.7402 192.68 56.9961 192.68 56.0703C192.68 55.0625 192.955 54.2754 193.506 53.709C194.057 53.1426 194.801 52.8594 195.738 52.8594C196.633 52.8594 197.33 53.1348 197.83 53.6855C198.334 54.2363 198.586 55 198.586 55.9766C198.586 56.9336 198.314 57.7012 197.771 58.2793C197.232 58.8535 196.508 59.1406 195.598 59.1406ZM195.668 53.668C195.051 53.668 194.562 53.8789 194.203 54.3008C193.844 54.7188 193.664 55.2969 193.664 56.0352C193.664 56.7461 193.846 57.3066 194.209 57.7168C194.572 58.127 195.059 58.332 195.668 58.332C196.289 58.332 196.766 58.1309 197.098 57.7285C197.434 57.3262 197.602 56.7539 197.602 56.0117C197.602 55.2617 197.434 54.6836 197.098 54.2773C196.766 53.8711 196.289 53.668 195.668 53.668ZM3.48047 75.1406C2.59375 75.1406 1.88477 74.8613 1.35352 74.3027C0.826172 73.7402 0.5625 72.9961 0.5625 72.0703C0.5625 71.0625 0.837891 70.2754 1.38867 69.709C1.93945 69.1426 2.68359 68.8594 3.62109 68.8594C4.51562 68.8594 5.21289 69.1348 5.71289 69.6855C6.2168 70.2363 6.46875 71 6.46875 71.9766C6.46875 72.9336 6.19727 73.7012 5.6543 74.2793C5.11523 74.8535 4.39062 75.1406 3.48047 75.1406ZM3.55078 69.668C2.93359 69.668 2.44531 69.8789 2.08594 70.3008C1.72656 70.7188 1.54688 71.2969 1.54688 72.0352C1.54688 72.7461 1.72852 73.3066 2.0918 73.7168C2.45508 74.127 2.94141 74.332 3.55078 74.332C4.17188 74.332 4.64844 74.1309 4.98047 73.7285C5.31641 73.3262 5.48438 72.7539 5.48438 72.0117C5.48438 71.2617 5.31641 70.6836 4.98047 70.2773C4.64844 69.8711 4.17188 69.668 3.55078 69.668ZM12.6445 66.0469V66.9492C12.4844 67.0664 12.2266 67.1543 11.8711 67.2129C10.9922 67.3457 10.377 67.4746 10.0254 67.5996C9.67773 67.7207 9.39062 67.9824 9.16406 68.3848C8.94141 68.7871 8.79883 69.375 8.73633 70.1484H8.75977C9.22852 69.4688 9.89648 69.1289 10.7637 69.1289C11.5566 69.1289 12.1953 69.4004 12.6797 69.9434C13.1641 70.4863 13.4062 71.2031 13.4062 72.0938C13.4062 73.0117 13.1523 73.75 12.6445 74.3086C12.1406 74.8633 11.4609 75.1406 10.6055 75.1406C9.68359 75.1406 8.97266 74.8145 8.47266 74.1621C7.97656 73.5059 7.72852 72.5703 7.72852 71.3555C7.72852 70.4102 7.81836 69.6094 7.99805 68.9531C8.17773 68.293 8.42578 67.7969 8.74219 67.4648C9.0625 67.1328 9.41602 66.9043 9.80273 66.7793C10.1934 66.6543 10.8613 66.5078 11.8066 66.3398C12.1816 66.2539 12.4609 66.1562 12.6445 66.0469ZM8.72461 71.0977V71.9297C8.72852 72.2422 8.77539 72.5488 8.86523 72.8496C8.95508 73.1504 9.08398 73.416 9.25195 73.6465C9.41992 73.877 9.61719 74.0488 9.84375 74.1621C10.0742 74.2754 10.3359 74.332 10.6289 74.332C11.1641 74.332 11.5957 74.1328 11.9238 73.7344C12.2559 73.332 12.4219 72.8184 12.4219 72.1934C12.4219 71.5059 12.252 70.9609 11.9121 70.5586C11.5762 70.1523 11.1211 69.9492 10.5469 69.9492C9.74219 69.9492 9.13477 70.332 8.72461 71.0977ZM15.9375 74.1328H15.9141V77.7598H14.9531V69H15.9141V70.0547H15.9375C16.4102 69.2578 17.1016 68.8594 18.0117 68.8594C18.7852 68.8594 19.3887 69.1289 19.8223 69.668C20.2559 70.2031 20.4727 70.9219 20.4727 71.8242C20.4727 72.8281 20.2285 73.6328 19.7402 74.2383C19.252 74.8398 18.584 75.1406 17.7363 75.1406C16.959 75.1406 16.3594 74.8047 15.9375 74.1328ZM15.9141 71.7129V72.5508C15.9141 73.0469 16.0742 73.4688 16.3945 73.8164C16.7188 74.1602 17.1289 74.332 17.625 74.332C18.207 74.332 18.6621 74.1094 18.9902 73.6641C19.3223 73.2188 19.4883 72.5996 19.4883 71.8066C19.4883 71.1387 19.334 70.6152 19.0254 70.2363C18.7168 69.8574 18.2988 69.668 17.7715 69.668C17.2129 69.668 16.7637 69.8633 16.4238 70.2539C16.084 70.6406 15.9141 71.127 15.9141 71.7129ZM26.1387 75H25.1777V74.0625H25.1543C24.7363 74.7812 24.1211 75.1406 23.3086 75.1406C22.7109 75.1406 22.2422 74.9824 21.9023 74.666C21.5664 74.3496 21.3984 73.9297 21.3984 73.4062C21.3984 72.2852 22.0586 71.6328 23.3789 71.4492L25.1777 71.1973C25.1777 70.1777 24.7656 69.668 23.9414 69.668C23.2188 69.668 22.5664 69.9141 21.9844 70.4062V69.4219C22.5742 69.0469 23.2539 68.8594 24.0234 68.8594C25.4336 68.8594 26.1387 69.6055 26.1387 71.0977V75ZM25.1777 71.9648L23.7305 72.1641C23.2852 72.2266 22.9492 72.3379 22.7227 72.498C22.4961 72.6543 22.3828 72.9336 22.3828 73.3359C22.3828 73.6289 22.4863 73.8691 22.6934 74.0566C22.9043 74.2402 23.1836 74.332 23.5312 74.332C24.0078 74.332 24.4004 74.166 24.709 73.834C25.0215 73.498 25.1777 73.0742 25.1777 72.5625V71.9648ZM32.5898 66.0469V66.9492C32.4297 67.0664 32.1719 67.1543 31.8164 67.2129C30.9375 67.3457 30.3223 67.4746 29.9707 67.5996C29.623 67.7207 29.3359 67.9824 29.1094 68.3848C28.8867 68.7871 28.7441 69.375 28.6816 70.1484H28.7051C29.1738 69.4688 29.8418 69.1289 30.709 69.1289C31.502 69.1289 32.1406 69.4004 32.625 69.9434C33.1094 70.4863 33.3516 71.2031 33.3516 72.0938C33.3516 73.0117 33.0977 73.75 32.5898 74.3086C32.0859 74.8633 31.4062 75.1406 30.5508 75.1406C29.6289 75.1406 28.918 74.8145 28.418 74.1621C27.9219 73.5059 27.6738 72.5703 27.6738 71.3555C27.6738 70.4102 27.7637 69.6094 27.9434 68.9531C28.123 68.293 28.3711 67.7969 28.6875 67.4648C29.0078 67.1328 29.3613 66.9043 29.748 66.7793C30.1387 66.6543 30.8066 66.5078 31.752 66.3398C32.127 66.2539 32.4062 66.1562 32.5898 66.0469ZM28.6699 71.0977V71.9297C28.6738 72.2422 28.7207 72.5488 28.8105 72.8496C28.9004 73.1504 29.0293 73.416 29.1973 73.6465C29.3652 73.877 29.5625 74.0488 29.7891 74.1621C30.0195 74.2754 30.2812 74.332 30.5742 74.332C31.1094 74.332 31.541 74.1328 31.8691 73.7344C32.2012 73.332 32.3672 72.8184 32.3672 72.1934C32.3672 71.5059 32.1973 70.9609 31.8574 70.5586C31.5215 70.1523 31.0664 69.9492 30.4922 69.9492C29.6875 69.9492 29.0801 70.332 28.6699 71.0977ZM37.4062 75.1406C36.5195 75.1406 35.8105 74.8613 35.2793 74.3027C34.752 73.7402 34.4883 72.9961 34.4883 72.0703C34.4883 71.0625 34.7637 70.2754 35.3145 69.709C35.8652 69.1426 36.6094 68.8594 37.5469 68.8594C38.4414 68.8594 39.1387 69.1348 39.6387 69.6855C40.1426 70.2363 40.3945 71 40.3945 71.9766C40.3945 72.9336 40.123 73.7012 39.5801 74.2793C39.041 74.8535 38.3164 75.1406 37.4062 75.1406ZM37.4766 69.668C36.8594 69.668 36.3711 69.8789 36.0117 70.3008C35.6523 70.7188 35.4727 71.2969 35.4727 72.0352C35.4727 72.7461 35.6543 73.3066 36.0176 73.7168C36.3809 74.127 36.8672 74.332 37.4766 74.332C38.0977 74.332 38.5742 74.1309 38.9062 73.7285C39.2422 73.3262 39.4102 72.7539 39.4102 72.0117C39.4102 71.2617 39.2422 70.6836 38.9062 70.2773C38.5742 69.8711 38.0977 69.668 37.4766 69.668ZM45.4746 69.8203H43.6758V75H42.7148V69.8203H40.9102V69H45.4746V69.8203ZM50.9238 75H49.9629V74.0625H49.9395C49.5215 74.7812 48.9062 75.1406 48.0938 75.1406C47.4961 75.1406 47.0273 74.9824 46.6875 74.666C46.3516 74.3496 46.1836 73.9297 46.1836 73.4062C46.1836 72.2852 46.8438 71.6328 48.1641 71.4492L49.9629 71.1973C49.9629 70.1777 49.5508 69.668 48.7266 69.668C48.0039 69.668 47.3516 69.9141 46.7695 70.4062V69.4219C47.3594 69.0469 48.0391 68.8594 48.8086 68.8594C50.2188 68.8594 50.9238 69.6055 50.9238 71.0977V75ZM49.9629 71.9648L48.5156 72.1641C48.0703 72.2266 47.7344 72.3379 47.5078 72.498C47.2812 72.6543 47.168 72.9336 47.168 73.3359C47.168 73.6289 47.2715 73.8691 47.4785 74.0566C47.6895 74.2402 47.9688 74.332 48.3164 74.332C48.793 74.332 49.1855 74.166 49.4941 73.834C49.8066 73.498 49.9629 73.0742 49.9629 72.5625V71.9648ZM56.502 69.8203H54.7031V75H53.7422V69.8203H51.9375V69H56.502V69.8203ZM57.6562 75V69H58.6172V71.3027H60.2344C60.8477 71.3027 61.334 71.4629 61.6934 71.7832C62.0566 72.1035 62.2383 72.5508 62.2383 73.125C62.2383 73.7031 62.0566 74.1602 61.6934 74.4961C61.3301 74.832 60.8711 75 60.3164 75H57.6562ZM58.6172 72.1289V74.1797H60.0586C60.8555 74.1797 61.2539 73.8281 61.2539 73.125C61.2539 72.4609 60.8516 72.1289 60.0469 72.1289H58.6172ZM64.0371 75.1289C63.8574 75.1289 63.7031 75.0645 63.5742 74.9355C63.4492 74.8066 63.3867 74.6523 63.3867 74.4727C63.3867 74.293 63.4492 74.1387 63.5742 74.0098C63.7031 73.877 63.8574 73.8105 64.0371 73.8105C64.2207 73.8105 64.377 73.877 64.5059 74.0098C64.6348 74.1387 64.6992 74.293 64.6992 74.4727C64.6992 74.6523 64.6348 74.8066 64.5059 74.9355C64.377 75.0645 64.2207 75.1289 64.0371 75.1289Z" fill="white"/>
<path opacity="0.2" d="M3.15234 188.141C2.32031 188.141 1.66992 187.783 1.20117 187.068C0.736328 186.354 0.503906 185.32 0.503906 183.969C0.503906 182.484 0.746094 181.361 1.23047 180.6C1.71875 179.838 2.42188 179.457 3.33984 179.457C5.09766 179.457 5.97656 180.893 5.97656 183.764C5.97656 185.186 5.72852 186.271 5.23242 187.021C4.73633 187.768 4.04297 188.141 3.15234 188.141ZM3.28711 180.271C2.08789 180.271 1.48828 181.488 1.48828 183.922C1.48828 186.195 2.07617 187.332 3.25195 187.332C4.41211 187.332 4.99219 186.176 4.99219 183.863C4.99219 181.469 4.42383 180.271 3.28711 180.271ZM11.2324 179.598L7.20117 189.395H6.30469L10.3242 179.598H11.2324ZM16.7695 188H11.707V187.145L14.1562 184.689C14.7812 184.064 15.2266 183.545 15.4922 183.131C15.7617 182.713 15.8965 182.268 15.8965 181.795C15.8965 181.311 15.7578 180.936 15.4805 180.67C15.2031 180.404 14.8086 180.271 14.2969 180.271C13.5469 180.271 12.8281 180.592 12.1406 181.232V180.225C12.7969 179.713 13.5605 179.457 14.4316 179.457C15.1816 179.457 15.7715 179.66 16.2012 180.066C16.6309 180.473 16.8457 181.018 16.8457 181.701C16.8457 182.24 16.6973 182.768 16.4004 183.283C16.1035 183.795 15.5703 184.432 14.8008 185.193L12.8613 187.109V187.133H16.7695V188ZM20.7656 188.141C19.9336 188.141 19.2832 187.783 18.8145 187.068C18.3496 186.354 18.1172 185.32 18.1172 183.969C18.1172 182.484 18.3594 181.361 18.8438 180.6C19.332 179.838 20.0352 179.457 20.9531 179.457C22.7109 179.457 23.5898 180.893 23.5898 183.764C23.5898 185.186 23.3418 186.271 22.8457 187.021C22.3496 187.768 21.6562 188.141 20.7656 188.141ZM20.9004 180.271C19.7012 180.271 19.1016 181.488 19.1016 183.922C19.1016 186.195 19.6895 187.332 20.8652 187.332C22.0254 187.332 22.6055 186.176 22.6055 183.863C22.6055 181.469 22.0371 180.271 20.9004 180.271ZM27.2344 188.141C26.4023 188.141 25.752 187.783 25.2832 187.068C24.8184 186.354 24.5859 185.32 24.5859 183.969C24.5859 182.484 24.8281 181.361 25.3125 180.6C25.8008 179.838 26.5039 179.457 27.4219 179.457C29.1797 179.457 30.0586 180.893 30.0586 183.764C30.0586 185.186 29.8105 186.271 29.3145 187.021C28.8184 187.768 28.125 188.141 27.2344 188.141ZM27.3691 180.271C26.1699 180.271 25.5703 181.488 25.5703 183.922C25.5703 186.195 26.1582 187.332 27.334 187.332C28.4941 187.332 29.0742 186.176 29.0742 183.863C29.0742 181.469 28.5059 180.271 27.3691 180.271ZM33.7031 188.141C32.8711 188.141 32.2207 187.783 31.752 187.068C31.2871 186.354 31.0547 185.32 31.0547 183.969C31.0547 182.484 31.2969 181.361 31.7812 180.6C32.2695 179.838 32.9727 179.457 33.8906 179.457C35.6484 179.457 36.5273 180.893 36.5273 183.764C36.5273 185.186 36.2793 186.271 35.7832 187.021C35.2871 187.768 34.5938 188.141 33.7031 188.141ZM33.8379 180.271C32.6387 180.271 32.0391 181.488 32.0391 183.922C32.0391 186.195 32.627 187.332 33.8027 187.332C34.9629 187.332 35.543 186.176 35.543 183.863C35.543 181.469 34.9746 180.271 33.8379 180.271ZM40.1719 188.141C39.3398 188.141 38.6895 187.783 38.2207 187.068C37.7559 186.354 37.5234 185.32 37.5234 183.969C37.5234 182.484 37.7656 181.361 38.25 180.6C38.7383 179.838 39.4414 179.457 40.3594 179.457C42.1172 179.457 42.9961 180.893 42.9961 183.764C42.9961 185.186 42.748 186.271 42.252 187.021C41.7559 187.768 41.0625 188.141 40.1719 188.141ZM40.3066 180.271C39.1074 180.271 38.5078 181.488 38.5078 183.922C38.5078 186.195 39.0957 187.332 40.2715 187.332C41.4316 187.332 42.0117 186.176 42.0117 183.863C42.0117 181.469 41.4434 180.271 40.3066 180.271Z" fill="white"/>
<rect x="0.5" y="203.5" width="302" height="43" rx="5.5" stroke="white"/>
<path d="M99.7031 229.561V228.228C100.523 228.828 101.454 229.128 102.494 229.128C103.25 229.128 103.851 228.945 104.295 228.579C104.745 228.213 104.969 227.72 104.969 227.1C104.969 225.752 104.059 225.078 102.237 225.078H101.146V224.06H102.149C102.926 224.06 103.526 223.892 103.951 223.555C104.381 223.218 104.596 222.742 104.596 222.126C104.596 221.599 104.417 221.177 104.061 220.859C103.709 220.542 103.224 220.383 102.604 220.383C101.725 220.383 100.87 220.659 100.04 221.211V219.966C100.812 219.536 101.7 219.321 102.706 219.321C103.702 219.321 104.486 219.558 105.057 220.032C105.628 220.505 105.914 221.128 105.914 221.899C105.914 223.262 105.25 224.121 103.922 224.478V224.507C104.645 224.59 105.218 224.861 105.643 225.32C106.068 225.779 106.28 226.348 106.28 227.026C106.28 227.988 105.938 228.755 105.255 229.326C104.571 229.893 103.636 230.176 102.45 230.176C101.263 230.176 100.348 229.971 99.7031 229.561ZM113.685 230H112.484V228.828H112.455C111.932 229.727 111.163 230.176 110.147 230.176C109.4 230.176 108.814 229.978 108.39 229.583C107.97 229.187 107.76 228.662 107.76 228.008C107.76 226.606 108.585 225.791 110.235 225.562L112.484 225.247C112.484 223.972 111.969 223.335 110.938 223.335C110.035 223.335 109.22 223.643 108.492 224.258V223.027C109.229 222.559 110.079 222.324 111.041 222.324C112.804 222.324 113.685 223.257 113.685 225.122V230ZM112.484 226.206L110.675 226.455C110.118 226.533 109.698 226.672 109.415 226.873C109.132 227.068 108.99 227.417 108.99 227.92C108.99 228.286 109.12 228.586 109.378 228.821C109.642 229.05 109.991 229.165 110.426 229.165C111.021 229.165 111.512 228.958 111.898 228.542C112.289 228.123 112.484 227.593 112.484 226.953V226.206ZM120.116 223.525H117.149V230H115.948V222.5H120.116V223.525ZM122.921 228.916H122.892V233.45H121.69V222.5H122.892V223.818H122.921C123.512 222.822 124.376 222.324 125.514 222.324C126.48 222.324 127.235 222.661 127.777 223.335C128.319 224.004 128.59 224.902 128.59 226.03C128.59 227.285 128.285 228.291 127.674 229.048C127.064 229.8 126.229 230.176 125.169 230.176C124.198 230.176 123.448 229.756 122.921 228.916ZM122.892 225.891V226.938C122.892 227.559 123.092 228.086 123.492 228.521C123.897 228.95 124.41 229.165 125.03 229.165C125.758 229.165 126.327 228.887 126.737 228.33C127.152 227.773 127.359 227 127.359 226.008C127.359 225.173 127.167 224.519 126.781 224.045C126.395 223.572 125.873 223.335 125.213 223.335C124.515 223.335 123.954 223.579 123.529 224.067C123.104 224.551 122.892 225.159 122.892 225.891ZM136.478 222.5L133.028 231.201C132.413 232.754 131.549 233.53 130.436 233.53C130.123 233.53 129.862 233.499 129.652 233.435V232.358C129.911 232.446 130.147 232.49 130.362 232.49C130.968 232.49 131.422 232.129 131.725 231.406L132.325 229.985L129.396 222.5H130.729L132.757 228.271C132.782 228.345 132.833 228.535 132.911 228.843H132.955C132.979 228.726 133.028 228.54 133.102 228.286L135.233 222.5H136.478ZM137.145 229.788V228.608C137.799 228.975 138.563 229.158 139.437 229.158C140.76 229.158 141.422 228.738 141.422 227.898C141.422 227.068 140.697 226.653 139.247 226.653H138.507V225.635H139.21C140.484 225.635 141.122 225.239 141.122 224.448C141.122 224.111 140.975 223.843 140.682 223.643C140.389 223.442 139.989 223.342 139.481 223.342C138.753 223.342 138.023 223.525 137.291 223.892V222.771C138.121 222.468 138.883 222.317 139.576 222.317C141.402 222.317 142.315 222.988 142.315 224.331C142.315 224.766 142.179 225.142 141.905 225.459C141.637 225.771 141.258 225.979 140.77 226.082V226.118C141.327 226.162 141.773 226.35 142.11 226.682C142.447 227.014 142.616 227.434 142.616 227.942C142.616 228.625 142.34 229.17 141.788 229.575C141.236 229.98 140.477 230.183 139.51 230.183C138.48 230.183 137.691 230.051 137.145 229.788ZM150.753 230H149.669V224.016C149.562 224.226 149.398 224.521 149.178 224.902L145.714 230H144.469V222.5H145.567V228.411C145.626 228.269 145.753 228.027 145.948 227.686L149.508 222.5H150.753V230ZM157.894 223.525H155.646V230H154.444V223.525H152.188V222.5H157.894V223.525ZM159.337 230V222.5H160.538V225.378H162.56C163.326 225.378 163.934 225.579 164.383 225.979C164.837 226.379 165.064 226.938 165.064 227.656C165.064 228.379 164.837 228.95 164.383 229.37C163.929 229.79 163.355 230 162.662 230H159.337ZM160.538 226.411V228.975H162.34C163.336 228.975 163.834 228.535 163.834 227.656C163.834 226.826 163.331 226.411 162.325 226.411H160.538ZM175.479 230.176V233.53H174.396V230.176H174.161C173.067 230.176 172.184 229.822 171.51 229.114C170.836 228.406 170.499 227.48 170.499 226.338C170.499 225.122 170.838 224.15 171.517 223.423C172.201 222.69 173.102 222.324 174.22 222.324H174.396V219.321H175.479V222.324H175.641C176.769 222.324 177.672 222.688 178.351 223.416C179.034 224.138 179.376 225.112 179.376 226.338C179.376 227.48 179.042 228.406 178.373 229.114C177.704 229.822 176.825 230.176 175.736 230.176H175.479ZM175.479 223.335V229.165H175.641C176.402 229.165 177.01 228.909 177.464 228.396C177.918 227.878 178.146 227.178 178.146 226.294C178.146 225.366 177.921 224.641 177.472 224.119C177.027 223.596 176.429 223.335 175.677 223.335H175.479ZM174.396 229.165V223.335H174.22C173.468 223.335 172.865 223.599 172.411 224.126C171.957 224.648 171.729 225.371 171.729 226.294C171.729 227.168 171.957 227.866 172.411 228.389C172.87 228.906 173.482 229.165 174.249 229.165H174.396ZM186.473 230H185.272V228.828H185.243C184.72 229.727 183.951 230.176 182.936 230.176C182.188 230.176 181.603 229.978 181.178 229.583C180.758 229.187 180.548 228.662 180.548 228.008C180.548 226.606 181.373 225.791 183.023 225.562L185.272 225.247C185.272 223.972 184.757 223.335 183.727 223.335C182.823 223.335 182.008 223.643 181.28 224.258V223.027C182.018 222.559 182.867 222.324 183.829 222.324C185.592 222.324 186.473 223.257 186.473 225.122V230ZM185.272 226.206L183.463 226.455C182.906 226.533 182.486 226.672 182.203 226.873C181.92 227.068 181.778 227.417 181.778 227.92C181.778 228.286 181.908 228.586 182.167 228.821C182.43 229.05 182.779 229.165 183.214 229.165C183.81 229.165 184.3 228.958 184.686 228.542C185.077 228.123 185.272 227.593 185.272 226.953V226.206ZM195.021 230H193.937V224.016C193.829 224.226 193.666 224.521 193.446 224.902L189.981 230H188.736V222.5H189.835V228.411C189.894 228.269 190.021 228.027 190.216 227.686L193.775 222.5H195.021V230ZM194.581 218.853C194.508 219.541 194.229 220.085 193.746 220.486C193.268 220.881 192.667 221.079 191.944 221.079C191.202 221.079 190.597 220.881 190.128 220.486C189.664 220.085 189.41 219.541 189.366 218.853H190.553C190.621 219.771 191.09 220.229 191.959 220.229C192.35 220.229 192.672 220.11 192.926 219.871C193.18 219.626 193.336 219.287 193.395 218.853H194.581ZM202.923 230H201.729V223.518H199.986C199.786 225.945 199.442 227.649 198.954 228.63C198.47 229.612 197.818 230.103 196.998 230.103C196.749 230.103 196.534 230.068 196.354 230V228.967C196.524 229.055 196.71 229.099 196.91 229.099C197.984 229.099 198.675 226.899 198.983 222.5H202.923V230Z" fill="white"/>
<path d="M39.659 218.914H33.6454C33.4013 218.914 33.1629 218.814 32.9982 218.644L31.1219 216.677C30.6708 216.23 30.0537 215.996 29.4287 216H25.341C24.0502 216 23 217.045 23 218.329V229.671C23 230.955 24.0502 232 25.341 232H39.6676H39.6697C40.9598 231.994 42.0057 230.944 42 229.663V221.243C42 219.959 40.9497 218.914 39.659 218.914ZM40.5682 229.666C40.5703 230.165 40.1644 230.573 39.6662 230.575H25.341C24.8399 230.575 24.4318 230.169 24.4318 229.671V218.329C24.4318 217.831 24.8399 217.425 25.341 217.424H29.4474C29.4552 217.424 29.4631 217.424 29.471 217.424C29.7101 217.424 29.9421 217.519 30.0981 217.673L31.9645 219.63C32.4026 220.08 33.0154 220.338 33.6454 220.338H39.659C40.1601 220.338 40.5681 220.744 40.5681 221.243V229.666H40.5682Z" fill="white"/>
</svg>
