<svg width="372" height="282" viewBox="0 0 372 282" fill="none" xmlns="http://www.w3.org/2000/svg">
<path opacity="0.3" d="M87.082 41.2363H84.252V50H83.1035V41.2363H80.2803V40.1973H87.082V41.2363ZM88.4082 48.9883H88.3809V53.2197H87.2598V43H88.3809V44.2305H88.4082C88.9596 43.3008 89.7663 42.8359 90.8281 42.8359C91.7305 42.8359 92.4346 43.1504 92.9404 43.7793C93.4463 44.4036 93.6992 45.2422 93.6992 46.2949C93.6992 47.4661 93.4144 48.4049 92.8447 49.1113C92.2751 49.8132 91.4958 50.1641 90.5068 50.1641C89.5999 50.1641 88.9004 49.7721 88.4082 48.9883ZM88.3809 46.165V47.1426C88.3809 47.7214 88.5677 48.2135 88.9414 48.6191C89.3197 49.0202 89.7982 49.2207 90.377 49.2207C91.056 49.2207 91.5869 48.9609 91.9697 48.4414C92.3571 47.9219 92.5508 47.1995 92.5508 46.2744C92.5508 45.4951 92.3708 44.8844 92.0107 44.4424C91.6507 44.0003 91.1631 43.7793 90.5479 43.7793C89.8962 43.7793 89.3721 44.0072 88.9756 44.4629C88.5791 44.9141 88.3809 45.4814 88.3809 46.165ZM101.062 43L97.8418 51.1211C97.2676 52.5703 96.4609 53.2949 95.4219 53.2949C95.1302 53.2949 94.8864 53.2653 94.6904 53.2061V52.2012C94.932 52.2832 95.153 52.3242 95.3535 52.3242C95.9186 52.3242 96.3424 51.987 96.625 51.3125L97.1855 49.9863L94.4512 43H95.6953L97.5889 48.3867C97.6117 48.4551 97.6595 48.6328 97.7324 48.9199H97.7734C97.7962 48.8105 97.8418 48.6374 97.9102 48.4004L99.8994 43H101.062ZM107.686 39.5547V40.6074C107.499 40.7441 107.198 40.8467 106.783 40.915C105.758 41.07 105.04 41.2204 104.63 41.3662C104.224 41.5075 103.889 41.8128 103.625 42.2822C103.365 42.7516 103.199 43.4375 103.126 44.3398H103.153C103.7 43.5469 104.479 43.1504 105.491 43.1504C106.416 43.1504 107.161 43.4671 107.727 44.1006C108.292 44.734 108.574 45.5703 108.574 46.6094C108.574 47.6803 108.278 48.5417 107.686 49.1934C107.098 49.8405 106.305 50.1641 105.307 50.1641C104.231 50.1641 103.402 49.7835 102.818 49.0225C102.24 48.2568 101.95 47.1654 101.95 45.748C101.95 44.6452 102.055 43.7109 102.265 42.9453C102.474 42.1751 102.764 41.5964 103.133 41.209C103.507 40.8216 103.919 40.555 104.37 40.4092C104.826 40.2633 105.605 40.0924 106.708 39.8965C107.146 39.7962 107.471 39.6823 107.686 39.5547ZM103.112 45.4473V46.418C103.117 46.7826 103.172 47.1403 103.276 47.4912C103.381 47.8421 103.532 48.152 103.728 48.4209C103.924 48.6898 104.154 48.8903 104.418 49.0225C104.687 49.1546 104.992 49.2207 105.334 49.2207C105.958 49.2207 106.462 48.9883 106.845 48.5234C107.232 48.054 107.426 47.4548 107.426 46.7256C107.426 45.9235 107.228 45.2878 106.831 44.8184C106.439 44.3444 105.908 44.1074 105.238 44.1074C104.299 44.1074 103.591 44.554 103.112 45.4473ZM115.39 50H114.269V48.9062H114.241C113.754 49.7448 113.036 50.1641 112.088 50.1641C111.391 50.1641 110.844 49.9795 110.447 49.6104C110.055 49.2412 109.859 48.7513 109.859 48.1406C109.859 46.8327 110.63 46.0716 112.17 45.8574L114.269 45.5635C114.269 44.374 113.788 43.7793 112.826 43.7793C111.983 43.7793 111.222 44.0664 110.543 44.6406V43.4922C111.231 43.0547 112.024 42.8359 112.922 42.8359C114.567 42.8359 115.39 43.7064 115.39 45.4473V50ZM114.269 46.459L112.58 46.6914C112.061 46.7643 111.669 46.8942 111.404 47.0811C111.14 47.2633 111.008 47.5892 111.008 48.0586C111.008 48.4004 111.129 48.6807 111.37 48.8994C111.616 49.1136 111.942 49.2207 112.348 49.2207C112.904 49.2207 113.362 49.027 113.722 48.6396C114.086 48.2477 114.269 47.7533 114.269 47.1562V46.459ZM127.154 50H126.033V43.957H122.465V50H121.344V43H127.154V50ZM130.572 48.9883H130.545V53.2197H129.424V43H130.545V44.2305H130.572C131.124 43.3008 131.93 42.8359 132.992 42.8359C133.895 42.8359 134.599 43.1504 135.104 43.7793C135.61 44.4036 135.863 45.2422 135.863 46.2949C135.863 47.4661 135.578 48.4049 135.009 49.1113C134.439 49.8132 133.66 50.1641 132.671 50.1641C131.764 50.1641 131.064 49.7721 130.572 48.9883ZM130.545 46.165V47.1426C130.545 47.7214 130.732 48.2135 131.105 48.6191C131.484 49.0202 131.962 49.2207 132.541 49.2207C133.22 49.2207 133.751 48.9609 134.134 48.4414C134.521 47.9219 134.715 47.1995 134.715 46.2744C134.715 45.4951 134.535 44.8844 134.175 44.4424C133.815 44.0003 133.327 43.7793 132.712 43.7793C132.06 43.7793 131.536 44.0072 131.14 44.4629C130.743 44.9141 130.545 45.4814 130.545 46.165ZM140.58 50.1641C139.546 50.1641 138.718 49.8382 138.099 49.1865C137.483 48.5303 137.176 47.6621 137.176 46.582C137.176 45.4062 137.497 44.488 138.14 43.8271C138.782 43.1663 139.65 42.8359 140.744 42.8359C141.788 42.8359 142.601 43.1572 143.185 43.7998C143.772 44.4424 144.066 45.3333 144.066 46.4727C144.066 47.5892 143.75 48.4847 143.116 49.1592C142.487 49.8291 141.642 50.1641 140.58 50.1641ZM140.662 43.7793C139.942 43.7793 139.372 44.0254 138.953 44.5176C138.534 45.0052 138.324 45.6797 138.324 46.541C138.324 47.3704 138.536 48.0244 138.96 48.5029C139.384 48.9814 139.951 49.2207 140.662 49.2207C141.387 49.2207 141.943 48.986 142.33 48.5166C142.722 48.0472 142.918 47.3796 142.918 46.5137C142.918 45.6387 142.722 44.9642 142.33 44.4902C141.943 44.0163 141.387 43.7793 140.662 43.7793ZM150.027 50.1641V53.2949H149.016V50.1641H148.797C147.776 50.1641 146.951 49.8337 146.322 49.1729C145.693 48.512 145.379 47.6484 145.379 46.582C145.379 45.4473 145.696 44.5404 146.329 43.8613C146.967 43.1777 147.808 42.8359 148.852 42.8359H149.016V40.0332H150.027V42.8359H150.178C151.23 42.8359 152.074 43.1755 152.707 43.8545C153.345 44.529 153.664 45.4382 153.664 46.582C153.664 47.6484 153.352 48.512 152.728 49.1729C152.103 49.8337 151.283 50.1641 150.267 50.1641H150.027ZM150.027 43.7793V49.2207H150.178C150.889 49.2207 151.456 48.9814 151.88 48.5029C152.304 48.0199 152.516 47.3659 152.516 46.541C152.516 45.6751 152.306 44.9984 151.887 44.5107C151.472 44.0231 150.914 43.7793 150.212 43.7793H150.027ZM149.016 49.2207V43.7793H148.852C148.15 43.7793 147.587 44.0254 147.163 44.5176C146.739 45.0052 146.527 45.6797 146.527 46.541C146.527 47.3568 146.739 48.0085 147.163 48.4961C147.591 48.9792 148.163 49.2207 148.879 49.2207H149.016ZM161.334 50H160.322V44.415C160.222 44.611 160.069 44.8867 159.864 45.2422L156.631 50H155.469V43H156.494V48.5166C156.549 48.3844 156.667 48.1589 156.85 47.8398L160.172 43H161.334V50ZM168.71 50H167.596V43.9502H165.969C165.782 46.2152 165.461 47.8057 165.005 48.7217C164.554 49.6377 163.945 50.0957 163.18 50.0957C162.947 50.0957 162.747 50.0638 162.578 50V49.0361C162.738 49.1182 162.911 49.1592 163.098 49.1592C164.1 49.1592 164.745 47.1061 165.032 43H168.71V50ZM170.986 50V43H172.107V45.6865H173.994C174.71 45.6865 175.277 45.8734 175.696 46.2471C176.12 46.6208 176.332 47.1426 176.332 47.8125C176.332 48.487 176.12 49.0202 175.696 49.4121C175.272 49.804 174.737 50 174.09 50H170.986ZM172.107 46.6504V49.043H173.789C174.719 49.043 175.184 48.6328 175.184 47.8125C175.184 47.0378 174.714 46.6504 173.775 46.6504H172.107ZM183.852 50H182.73V46.8213H179.162V50H178.041V43H179.162V45.8711H182.73V43H183.852V50ZM191.132 50H190.011V48.9062H189.983C189.496 49.7448 188.778 50.1641 187.83 50.1641C187.133 50.1641 186.586 49.9795 186.189 49.6104C185.798 49.2412 185.602 48.7513 185.602 48.1406C185.602 46.8327 186.372 46.0716 187.912 45.8574L190.011 45.5635C190.011 44.374 189.53 43.7793 188.568 43.7793C187.725 43.7793 186.964 44.0664 186.285 44.6406V43.4922C186.973 43.0547 187.766 42.8359 188.664 42.8359C190.309 42.8359 191.132 43.7064 191.132 45.4473V50ZM190.011 46.459L188.322 46.6914C187.803 46.7643 187.411 46.8942 187.146 47.0811C186.882 47.2633 186.75 47.5892 186.75 48.0586C186.75 48.4004 186.871 48.6807 187.112 48.8994C187.358 49.1136 187.684 49.2207 188.09 49.2207C188.646 49.2207 189.104 49.027 189.464 48.6396C189.828 48.2477 190.011 47.7533 190.011 47.1562V46.459ZM198.029 50H196.908V47.1016H195.972C195.521 47.1016 195.11 47.4661 194.741 48.1953L193.832 50H192.533L193.709 47.8398C193.982 47.3385 194.313 47.0081 194.7 46.8486C194.153 46.7757 193.736 46.5752 193.449 46.2471C193.162 45.9189 193.019 45.5088 193.019 45.0166C193.019 44.3968 193.242 43.9069 193.688 43.5469C194.14 43.1823 194.771 43 195.582 43H198.029V50ZM196.908 46.165V43.957H195.582C194.639 43.957 194.167 44.3148 194.167 45.0303C194.167 45.7868 194.625 46.165 195.541 46.165H196.908ZM204.113 49.7607V48.5713C204.783 49.0042 205.465 49.2207 206.157 49.2207C206.85 49.2207 207.408 49.0247 207.832 48.6328C208.256 48.2409 208.468 47.7214 208.468 47.0742C208.468 46.4316 208.251 45.9303 207.818 45.5703C207.385 45.2103 206.766 45.0303 205.959 45.0303C205.686 45.0303 205.173 45.0576 204.421 45.1123V40.1973H209.165V41.209H205.48V44.0801C205.781 44.0618 206.059 44.0527 206.314 44.0527C207.363 44.0527 208.174 44.3171 208.748 44.8457C209.322 45.3698 209.609 46.0898 209.609 47.0059C209.609 47.9538 209.299 48.7171 208.68 49.2959C208.064 49.8747 207.219 50.1641 206.144 50.1641C205.237 50.1641 204.56 50.0296 204.113 49.7607ZM214.217 50.1641C213.246 50.1641 212.487 49.7471 211.94 48.9131C211.398 48.0791 211.127 46.8737 211.127 45.2969C211.127 43.5651 211.41 42.2549 211.975 41.3662C212.544 40.4775 213.365 40.0332 214.436 40.0332C216.486 40.0332 217.512 41.708 217.512 45.0576C217.512 46.7165 217.222 47.9834 216.644 48.8584C216.065 49.7288 215.256 50.1641 214.217 50.1641ZM214.374 40.9834C212.975 40.9834 212.275 42.403 212.275 45.2422C212.275 47.8945 212.961 49.2207 214.333 49.2207C215.687 49.2207 216.363 47.8717 216.363 45.1738C216.363 42.3802 215.7 40.9834 214.374 40.9834ZM224.334 43L221.982 46.541L224.293 50H222.987L221.613 47.7305C221.527 47.5892 221.424 47.4115 221.306 47.1973H221.278C221.256 47.2383 221.148 47.416 220.957 47.7305L219.556 50H218.264L220.649 46.5684L218.366 43H219.672L221.025 45.3926C221.126 45.5703 221.224 45.7526 221.319 45.9395H221.347L223.097 43H224.334ZM225.633 49.7607V48.5713C226.303 49.0042 226.984 49.2207 227.677 49.2207C228.369 49.2207 228.928 49.0247 229.352 48.6328C229.775 48.2409 229.987 47.7214 229.987 47.0742C229.987 46.4316 229.771 45.9303 229.338 45.5703C228.905 45.2103 228.285 45.0303 227.479 45.0303C227.205 45.0303 226.692 45.0576 225.94 45.1123V40.1973H230.685V41.209H227V44.0801C227.301 44.0618 227.579 44.0527 227.834 44.0527C228.882 44.0527 229.693 44.3171 230.268 44.8457C230.842 45.3698 231.129 46.0898 231.129 47.0059C231.129 47.9538 230.819 48.7171 230.199 49.2959C229.584 49.8747 228.739 50.1641 227.663 50.1641C226.756 50.1641 226.079 50.0296 225.633 49.7607ZM235.736 50.1641C234.766 50.1641 234.007 49.7471 233.46 48.9131C232.918 48.0791 232.646 46.8737 232.646 45.2969C232.646 43.5651 232.929 42.2549 233.494 41.3662C234.064 40.4775 234.884 40.0332 235.955 40.0332C238.006 40.0332 239.031 41.708 239.031 45.0576C239.031 46.7165 238.742 47.9834 238.163 48.8584C237.584 49.7288 236.775 50.1641 235.736 50.1641ZM235.894 40.9834C234.494 40.9834 233.795 42.403 233.795 45.2422C233.795 47.8945 234.481 49.2207 235.853 49.2207C237.206 49.2207 237.883 47.8717 237.883 45.1738C237.883 42.3802 237.22 40.9834 235.894 40.9834ZM244.972 50.1504C244.762 50.1504 244.582 50.0752 244.432 49.9248C244.286 49.7744 244.213 49.5944 244.213 49.3848C244.213 49.1751 244.286 48.9951 244.432 48.8447C244.582 48.6898 244.762 48.6123 244.972 48.6123C245.186 48.6123 245.368 48.6898 245.519 48.8447C245.669 48.9951 245.744 49.1751 245.744 49.3848C245.744 49.5944 245.669 49.7744 245.519 49.9248C245.368 50.0752 245.186 50.1504 244.972 50.1504ZM248.007 50.1504C247.797 50.1504 247.617 50.0752 247.467 49.9248C247.321 49.7744 247.248 49.5944 247.248 49.3848C247.248 49.1751 247.321 48.9951 247.467 48.8447C247.617 48.6898 247.797 48.6123 248.007 48.6123C248.221 48.6123 248.403 48.6898 248.554 48.8447C248.704 48.9951 248.779 49.1751 248.779 49.3848C248.779 49.5944 248.704 49.7744 248.554 49.9248C248.403 50.0752 248.221 50.1504 248.007 50.1504ZM251.042 50.1504C250.832 50.1504 250.652 50.0752 250.502 49.9248C250.356 49.7744 250.283 49.5944 250.283 49.3848C250.283 49.1751 250.356 48.9951 250.502 48.8447C250.652 48.6898 250.832 48.6123 251.042 48.6123C251.256 48.6123 251.438 48.6898 251.589 48.8447C251.739 48.9951 251.814 49.1751 251.814 49.3848C251.814 49.5944 251.739 49.7744 251.589 49.9248C251.438 50.0752 251.256 50.1504 251.042 50.1504Z" fill="white"/>
<path d="M270.723 50H269.561V41.2637H264.44V50H263.285V40.1973H270.723V50ZM276.041 50.1641C275.007 50.1641 274.179 49.8382 273.56 49.1865C272.944 48.5303 272.637 47.6621 272.637 46.582C272.637 45.4062 272.958 44.488 273.601 43.8271C274.243 43.1663 275.111 42.8359 276.205 42.8359C277.249 42.8359 278.062 43.1572 278.646 43.7998C279.233 44.4424 279.527 45.3333 279.527 46.4727C279.527 47.5892 279.211 48.4847 278.577 49.1592C277.948 49.8291 277.103 50.1641 276.041 50.1641ZM276.123 43.7793C275.403 43.7793 274.833 44.0254 274.414 44.5176C273.995 45.0052 273.785 45.6797 273.785 46.541C273.785 47.3704 273.997 48.0244 274.421 48.5029C274.845 48.9814 275.412 49.2207 276.123 49.2207C276.848 49.2207 277.404 48.986 277.791 48.5166C278.183 48.0472 278.379 47.3796 278.379 46.5137C278.379 45.6387 278.183 44.9642 277.791 44.4902C277.404 44.0163 276.848 43.7793 276.123 43.7793ZM287.129 50H285.557L282.467 46.6367H282.439V50H281.318V43H282.439V46.2061H282.467L285.406 43H286.876L283.629 46.377L287.129 50ZM293.288 50H292.167V48.9062H292.14C291.652 49.7448 290.934 50.1641 289.986 50.1641C289.289 50.1641 288.742 49.9795 288.346 49.6104C287.954 49.2412 287.758 48.7513 287.758 48.1406C287.758 46.8327 288.528 46.0716 290.068 45.8574L292.167 45.5635C292.167 44.374 291.686 43.7793 290.725 43.7793C289.882 43.7793 289.12 44.0664 288.441 44.6406V43.4922C289.13 43.0547 289.923 42.8359 290.82 42.8359C292.465 42.8359 293.288 43.7064 293.288 45.4473V50ZM292.167 46.459L290.479 46.6914C289.959 46.7643 289.567 46.8942 289.303 47.0811C289.038 47.2633 288.906 47.5892 288.906 48.0586C288.906 48.4004 289.027 48.6807 289.269 48.8994C289.515 49.1136 289.84 49.2207 290.246 49.2207C290.802 49.2207 291.26 49.027 291.62 48.6396C291.985 48.2477 292.167 47.7533 292.167 47.1562V46.459ZM294.812 49.8018V48.7012C295.423 49.043 296.136 49.2139 296.952 49.2139C298.187 49.2139 298.805 48.8219 298.805 48.0381C298.805 47.2633 298.128 46.876 296.774 46.876H296.084V45.9258H296.74C297.93 45.9258 298.524 45.5566 298.524 44.8184C298.524 44.5039 298.388 44.2533 298.114 44.0664C297.841 43.8796 297.467 43.7861 296.993 43.7861C296.314 43.7861 295.633 43.957 294.949 44.2988V43.2529C295.724 42.9704 296.435 42.8291 297.082 42.8291C298.786 42.8291 299.639 43.4557 299.639 44.709C299.639 45.1146 299.511 45.4655 299.256 45.7617C299.005 46.0534 298.652 46.2471 298.196 46.3428V46.377C298.716 46.418 299.133 46.5934 299.447 46.9033C299.762 47.2132 299.919 47.6051 299.919 48.0791C299.919 48.7171 299.661 49.2253 299.146 49.6035C298.632 49.9818 297.923 50.1709 297.021 50.1709C296.059 50.1709 295.323 50.0479 294.812 49.8018ZM306.659 50H305.538V48.9062H305.511C305.023 49.7448 304.305 50.1641 303.357 50.1641C302.66 50.1641 302.113 49.9795 301.717 49.6104C301.325 49.2412 301.129 48.7513 301.129 48.1406C301.129 46.8327 301.899 46.0716 303.439 45.8574L305.538 45.5635C305.538 44.374 305.057 43.7793 304.096 43.7793C303.253 43.7793 302.492 44.0664 301.812 44.6406V43.4922C302.501 43.0547 303.294 42.8359 304.191 42.8359C305.837 42.8359 306.659 43.7064 306.659 45.4473V50ZM305.538 46.459L303.85 46.6914C303.33 46.7643 302.938 46.8942 302.674 47.0811C302.41 47.2633 302.277 47.5892 302.277 48.0586C302.277 48.4004 302.398 48.6807 302.64 48.8994C302.886 49.1136 303.212 49.2207 303.617 49.2207C304.173 49.2207 304.631 49.027 304.991 48.6396C305.356 48.2477 305.538 47.7533 305.538 47.1562V46.459ZM313.167 43.957H311.068V50H309.947V43.957H307.842V43H313.167V43.957ZM314.514 50V43H315.635V45.6865H317.521C318.237 45.6865 318.804 45.8734 319.224 46.2471C319.647 46.6208 319.859 47.1426 319.859 47.8125C319.859 48.487 319.647 49.0202 319.224 49.4121C318.8 49.804 318.264 50 317.617 50H314.514ZM315.635 46.6504V49.043H317.316C318.246 49.043 318.711 48.6328 318.711 47.8125C318.711 47.0378 318.242 46.6504 317.303 46.6504H315.635Z" fill="#FCFDFF"/>
<path d="M81.3828 27V15.7969H84.9375C86.0208 15.7969 86.8776 16.0339 87.5078 16.5078C88.1432 16.9818 88.4609 17.599 88.4609 18.3594C88.4609 18.9948 88.2812 19.5469 87.9219 20.0156C87.5625 20.4844 87.0651 20.8177 86.4297 21.0156V21.0469C87.2005 21.1354 87.8151 21.4219 88.2734 21.9062C88.737 22.3854 88.9688 23.0104 88.9688 23.7812C88.9688 24.7396 88.5911 25.5156 87.8359 26.1094C87.0807 26.7031 86.1276 27 84.9766 27H81.3828ZM83.2344 17.2891V20.4766H84.4375C85.0833 20.4766 85.5885 20.3255 85.9531 20.0234C86.3229 19.7161 86.5078 19.2839 86.5078 18.7266C86.5078 17.7682 85.8672 17.2891 84.5859 17.2891H83.2344ZM83.2344 21.9688V25.5156H84.8203C85.513 25.5156 86.0469 25.3568 86.4219 25.0391C86.8021 24.7161 86.9922 24.2734 86.9922 23.7109C86.9922 22.5495 86.1875 21.9688 84.5781 21.9688H83.2344ZM96.9922 27H95.2344V25.75H95.2031C94.651 26.7083 93.8411 27.1875 92.7734 27.1875C91.987 27.1875 91.3698 26.974 90.9219 26.5469C90.4792 26.1198 90.2578 25.5547 90.2578 24.8516C90.2578 23.3411 91.1276 22.4609 92.8672 22.2109L95.2422 21.875C95.2422 20.7344 94.7005 20.1641 93.6172 20.1641C92.6641 20.1641 91.8047 20.4922 91.0391 21.1484V19.5625C91.8828 19.0625 92.8568 18.8125 93.9609 18.8125C95.9818 18.8125 96.9922 19.8073 96.9922 21.7969V27ZM95.2422 23.0703L93.5625 23.3047C93.0417 23.3724 92.6484 23.5 92.3828 23.6875C92.1224 23.8698 91.9922 24.1927 91.9922 24.6562C91.9922 24.9948 92.112 25.2734 92.3516 25.4922C92.5964 25.7057 92.9219 25.8125 93.3281 25.8125C93.8802 25.8125 94.3359 25.6198 94.6953 25.2344C95.0599 24.8438 95.2422 24.3542 95.2422 23.7656V23.0703ZM110.094 27H99.2109V19H101.031V25.6172H103.742V19H105.562V25.6172H108.273V19H110.094V27ZM118.602 27H116.844V25.75H116.812C116.26 26.7083 115.451 27.1875 114.383 27.1875C113.596 27.1875 112.979 26.974 112.531 26.5469C112.089 26.1198 111.867 25.5547 111.867 24.8516C111.867 23.3411 112.737 22.4609 114.477 22.2109L116.852 21.875C116.852 20.7344 116.31 20.1641 115.227 20.1641C114.273 20.1641 113.414 20.4922 112.648 21.1484V19.5625C113.492 19.0625 114.466 18.8125 115.57 18.8125C117.591 18.8125 118.602 19.8073 118.602 21.7969V27ZM116.852 23.0703L115.172 23.3047C114.651 23.3724 114.258 23.5 113.992 23.6875C113.732 23.8698 113.602 24.1927 113.602 24.6562C113.602 24.9948 113.721 25.2734 113.961 25.4922C114.206 25.7057 114.531 25.8125 114.938 25.8125C115.49 25.8125 115.945 25.6198 116.305 25.2344C116.669 24.8438 116.852 24.3542 116.852 23.7656V23.0703ZM124.672 26.7812V25.2891C125.349 25.6641 126.141 25.8516 127.047 25.8516C128.323 25.8516 128.961 25.4661 128.961 24.6953C128.961 23.9245 128.208 23.5391 126.703 23.5391H125.938V22.2578H126.672C128.01 22.2578 128.68 21.8906 128.68 21.1562C128.68 20.849 128.536 20.6042 128.25 20.4219C127.969 20.2396 127.583 20.1484 127.094 20.1484C126.349 20.1484 125.604 20.3255 124.859 20.6797V19.2578C125.76 18.9557 126.589 18.8047 127.344 18.8047C129.464 18.8047 130.523 19.5234 130.523 20.9609C130.523 21.4245 130.37 21.8229 130.062 22.1562C129.76 22.4896 129.333 22.7109 128.781 22.8203V22.8594C129.391 22.9062 129.88 23.1042 130.25 23.4531C130.62 23.8021 130.805 24.2448 130.805 24.7812C130.805 25.5104 130.487 26.0911 129.852 26.5234C129.216 26.9557 128.341 27.1719 127.227 27.1719C126.112 27.1719 125.26 27.0417 124.672 26.7812ZM138.758 27H137V25.75H136.969C136.417 26.7083 135.607 27.1875 134.539 27.1875C133.753 27.1875 133.135 26.974 132.688 26.5469C132.245 26.1198 132.023 25.5547 132.023 24.8516C132.023 23.3411 132.893 22.4609 134.633 22.2109L137.008 21.875C137.008 20.7344 136.466 20.1641 135.383 20.1641C134.43 20.1641 133.57 20.4922 132.805 21.1484V19.5625C133.648 19.0625 134.622 18.8125 135.727 18.8125C137.747 18.8125 138.758 19.8073 138.758 21.7969V27ZM137.008 23.0703L135.328 23.3047C134.807 23.3724 134.414 23.5 134.148 23.6875C133.888 23.8698 133.758 24.1927 133.758 24.6562C133.758 24.9948 133.878 25.2734 134.117 25.4922C134.362 25.7057 134.688 25.8125 135.094 25.8125C135.646 25.8125 136.102 25.6198 136.461 25.2344C136.826 24.8438 137.008 24.3542 137.008 23.7656V23.0703ZM147.141 27H145.336V23.8359H144.406C143.958 23.8359 143.552 24.237 143.188 25.0391L142.234 27H140.18L141.445 24.625C141.805 24.0104 142.237 23.6042 142.742 23.4062C142.107 23.3229 141.62 23.0964 141.281 22.7266C140.948 22.3516 140.781 21.8828 140.781 21.3203C140.781 20.6068 141.065 20.0417 141.633 19.625C142.206 19.2083 142.974 19 143.938 19H147.141V27ZM145.336 22.5859V20.3125H144.086C143.107 20.3125 142.617 20.6849 142.617 21.4297C142.617 22.2005 143.099 22.5859 144.062 22.5859H145.336ZM149.492 27V19H153.312C154.172 19 154.852 19.1745 155.352 19.5234C155.852 19.8724 156.102 20.349 156.102 20.9531C156.102 21.974 155.578 22.5938 154.531 22.8125C155.776 22.9688 156.398 23.5833 156.398 24.6562C156.398 25.3177 156.135 25.875 155.609 26.3281C155.083 26.776 154.43 27 153.648 27H149.492ZM151.305 20.2812V22.2734H152.906C153.812 22.2734 154.266 21.9219 154.266 21.2188C154.266 20.5938 153.87 20.2812 153.078 20.2812H151.305ZM151.305 23.5312V25.7109H153.164C154.091 25.7109 154.555 25.3359 154.555 24.5859C154.555 23.8828 154.052 23.5312 153.047 23.5312H151.305ZM165.602 27H163.297L160.188 23.1016H160.156V27H158.336V19H160.156V22.6797H160.188L163.125 19H165.344L162.016 22.8125L165.602 27ZM172.883 27H171.125V25.75H171.094C170.542 26.7083 169.732 27.1875 168.664 27.1875C167.878 27.1875 167.26 26.974 166.812 26.5469C166.37 26.1198 166.148 25.5547 166.148 24.8516C166.148 23.3411 167.018 22.4609 168.758 22.2109L171.133 21.875C171.133 20.7344 170.591 20.1641 169.508 20.1641C168.555 20.1641 167.695 20.4922 166.93 21.1484V19.5625C167.773 19.0625 168.747 18.8125 169.852 18.8125C171.872 18.8125 172.883 19.8073 172.883 21.7969V27ZM171.133 23.0703L169.453 23.3047C168.932 23.3724 168.539 23.5 168.273 23.6875C168.013 23.8698 167.883 24.1927 167.883 24.6562C167.883 24.9948 168.003 25.2734 168.242 25.4922C168.487 25.7057 168.812 25.8125 169.219 25.8125C169.771 25.8125 170.227 25.6198 170.586 25.2344C170.951 24.8438 171.133 24.3542 171.133 23.7656V23.0703Z" fill="white"/>
<path d="M214.371 18.2637H210.44V27H209.285V17.1973H214.371V18.2637ZM217.201 27.1641C216.167 27.1641 215.34 26.8382 214.72 26.1865C214.104 25.5303 213.797 24.6621 213.797 23.582C213.797 22.4062 214.118 21.488 214.761 20.8271C215.403 20.1663 216.271 19.8359 217.365 19.8359C218.409 19.8359 219.222 20.1572 219.806 20.7998C220.394 21.4424 220.688 22.3333 220.688 23.4727C220.688 24.5892 220.371 25.4847 219.737 26.1592C219.108 26.8291 218.263 27.1641 217.201 27.1641ZM217.283 20.7793C216.563 20.7793 215.993 21.0254 215.574 21.5176C215.155 22.0052 214.945 22.6797 214.945 23.541C214.945 24.3704 215.157 25.0244 215.581 25.5029C216.005 25.9814 216.572 26.2207 217.283 26.2207C218.008 26.2207 218.564 25.986 218.951 25.5166C219.343 25.0472 219.539 24.3796 219.539 23.5137C219.539 22.6387 219.343 21.9642 218.951 21.4902C218.564 21.0163 218.008 20.7793 217.283 20.7793ZM226.614 20.957H224.516V27H223.395V20.957H221.289V20H226.614V20.957ZM230.627 27.1641C229.592 27.1641 228.765 26.8382 228.146 26.1865C227.53 25.5303 227.223 24.6621 227.223 23.582C227.223 22.4062 227.544 21.488 228.187 20.8271C228.829 20.1663 229.697 19.8359 230.791 19.8359C231.835 19.8359 232.648 20.1572 233.231 20.7998C233.819 21.4424 234.113 22.3333 234.113 23.4727C234.113 24.5892 233.797 25.4847 233.163 26.1592C232.534 26.8291 231.689 27.1641 230.627 27.1641ZM230.709 20.7793C229.989 20.7793 229.419 21.0254 229 21.5176C228.581 22.0052 228.371 22.6797 228.371 23.541C228.371 24.3704 228.583 25.0244 229.007 25.5029C229.431 25.9814 229.998 26.2207 230.709 26.2207C231.434 26.2207 231.99 25.986 232.377 25.5166C232.769 25.0472 232.965 24.3796 232.965 23.5137C232.965 22.6387 232.769 21.9642 232.377 21.4902C231.99 21.0163 231.434 20.7793 230.709 20.7793ZM235.904 27V20H238.953C239.641 20 240.184 20.1527 240.58 20.458C240.981 20.7633 241.182 21.1803 241.182 21.709C241.182 22.6159 240.735 23.1673 239.842 23.3633C240.913 23.5 241.448 24.04 241.448 24.9834C241.448 25.5531 241.227 26.0316 240.785 26.4189C240.348 26.8063 239.803 27 239.151 27H235.904ZM237.025 20.957V22.9258H238.707C239.609 22.9258 240.061 22.5749 240.061 21.873C240.061 21.2624 239.655 20.957 238.844 20.957H237.025ZM237.025 23.8828V26.043H238.967C239.874 26.043 240.327 25.6761 240.327 24.9424C240.327 24.236 239.819 23.8828 238.803 23.8828H237.025ZM246.254 27.1641C245.219 27.1641 244.392 26.8382 243.772 26.1865C243.157 25.5303 242.85 24.6621 242.85 23.582C242.85 22.4062 243.171 21.488 243.813 20.8271C244.456 20.1663 245.324 19.8359 246.418 19.8359C247.462 19.8359 248.275 20.1572 248.858 20.7998C249.446 21.4424 249.74 22.3333 249.74 23.4727C249.74 24.5892 249.424 25.4847 248.79 26.1592C248.161 26.8291 247.316 27.1641 246.254 27.1641ZM246.336 20.7793C245.616 20.7793 245.046 21.0254 244.627 21.5176C244.208 22.0052 243.998 22.6797 243.998 23.541C243.998 24.3704 244.21 25.0244 244.634 25.5029C245.058 25.9814 245.625 26.2207 246.336 26.2207C247.061 26.2207 247.617 25.986 248.004 25.5166C248.396 25.0472 248.592 24.3796 248.592 23.5137C248.592 22.6387 248.396 21.9642 248.004 21.4902C247.617 21.0163 247.061 20.7793 246.336 20.7793Z" fill="#F0FFF4"/>
<path d="M190.296 22.4779C190.202 22.389 190.128 22.2822 190.077 22.1637C190.026 22.0453 190 21.9177 190 21.7889C190 21.66 190.026 21.5325 190.077 21.414C190.128 21.2956 190.202 21.1887 190.296 21.0999L190.263 21.1309C190.457 20.947 190.714 20.8448 190.982 20.8455C191.249 20.8463 191.506 20.9499 191.7 21.1349L194.58 23.9049L201.464 17.2829C201.658 17.101 201.914 16.9998 202.18 17C202.446 17.0002 202.702 17.1017 202.896 17.2839L202.863 17.2529C202.957 17.3419 203.031 17.4492 203.082 17.5681C203.133 17.6871 203.159 17.8153 203.159 17.9447C203.159 18.0742 203.132 18.2022 203.08 18.3209C203.028 18.4396 202.953 18.5464 202.858 18.6349L195.301 25.9029C195.106 26.0858 194.849 26.1881 194.582 26.1891C194.316 26.19 194.058 26.0895 193.863 25.9079L190.296 22.4779Z" fill="#F0FFF4"/>
<circle opacity="0.1" cx="32" cy="32" r="31.5" stroke="white"/>
<path fill-rule="evenodd" clip-rule="evenodd" d="M29.689 30.8L30.6677 33.5965C30.8866 34.2219 31.5712 34.5516 32.1967 34.3327C32.8222 34.1137 33.1519 33.4291 32.933 32.8035L28.9312 21.3699C28.644 20.5494 27.8696 20 27.0003 20C26.131 20 25.3567 20.5494 25.0695 21.3699L21.0677 32.8035C20.8488 33.4291 21.1784 34.1137 21.8039 34.3327C22.4294 34.5516 23.114 34.2219 23.333 33.5965L24.3117 30.8H29.689ZM28.849 28.4L27.0003 23.1182L25.1517 28.4H28.849Z" fill="white"/>
<path fill-rule="evenodd" clip-rule="evenodd" d="M38.4003 26C39.1305 26 39.8173 26.1864 40.4155 26.5141C40.6323 26.2033 40.9926 26 41.4003 26C42.0631 26 42.6003 26.5373 42.6003 27.2V33.2C42.6003 33.8628 42.0631 34.4 41.4003 34.4C40.9926 34.4 40.6323 34.1967 40.4155 33.8859C39.8173 34.2136 39.1305 34.4 38.4003 34.4C36.0807 34.4 34.2003 32.5196 34.2003 30.2C34.2003 27.8804 36.0807 26 38.4003 26ZM38.4003 32C39.3944 32 40.2003 31.1941 40.2003 30.2C40.2003 29.2059 39.3944 28.4 38.4003 28.4C37.4062 28.4 36.6003 29.2059 36.6003 30.2C36.6003 31.1941 37.4062 32 38.4003 32Z" fill="white"/>
<path d="M22.2003 36.8C21.5376 36.8 21.0003 37.3372 21.0003 38C21.0003 38.6628 21.5376 39.2 22.2003 39.2H41.4003C42.0631 39.2 42.6003 38.6628 42.6003 38C42.6003 37.3372 42.0631 36.8 41.4003 36.8H22.2003Z" fill="white"/>
<path d="M22.2003 41.6C21.5376 41.6 21.0003 42.1372 21.0003 42.8C21.0003 43.4628 21.5376 44 22.2003 44H36.6003C37.2631 44 37.8003 43.4628 37.8003 42.8C37.8003 42.1372 37.2631 41.6 36.6003 41.6H22.2003Z" fill="white"/>
<rect x="0.5" y="181.5" width="186" height="37" rx="5.5" stroke="#F2F2F4"/>
<rect opacity="0.3" x="203.5" y="181.5" width="144" height="37" rx="5.5" stroke="#F2F2F4"/>
<path d="M28.7227 205H27.5605V196.264H22.4404V205H21.2852V195.197H28.7227V205ZM36.7412 201.78H31.7988C31.8171 202.56 32.0267 203.161 32.4277 203.585C32.8288 204.009 33.3802 204.221 34.082 204.221C34.8704 204.221 35.5951 203.961 36.2559 203.441V204.494C35.6406 204.941 34.8271 205.164 33.8154 205.164C32.8265 205.164 32.0495 204.847 31.4844 204.214C30.9193 203.576 30.6367 202.68 30.6367 201.527C30.6367 200.438 30.9443 199.552 31.5596 198.868C32.1794 198.18 32.9473 197.836 33.8633 197.836C34.7793 197.836 35.488 198.132 35.9893 198.725C36.4906 199.317 36.7412 200.14 36.7412 201.192V201.78ZM35.5928 200.83C35.5882 200.183 35.431 199.679 35.1211 199.319C34.8158 198.959 34.3896 198.779 33.8428 198.779C33.3141 198.779 32.8652 198.968 32.4961 199.347C32.127 199.725 31.8991 200.219 31.8125 200.83H35.5928ZM39.5918 203.988H39.5645V208.22H38.4434V198H39.5645V199.23H39.5918C40.1432 198.301 40.9499 197.836 42.0117 197.836C42.9141 197.836 43.6182 198.15 44.124 198.779C44.6299 199.404 44.8828 200.242 44.8828 201.295C44.8828 202.466 44.598 203.405 44.0283 204.111C43.4587 204.813 42.6794 205.164 41.6904 205.164C40.7835 205.164 40.084 204.772 39.5918 203.988ZM39.5645 201.165V202.143C39.5645 202.721 39.7513 203.214 40.125 203.619C40.5033 204.02 40.9818 204.221 41.5605 204.221C42.2396 204.221 42.7705 203.961 43.1533 203.441C43.5407 202.922 43.7344 202.2 43.7344 201.274C43.7344 200.495 43.5544 199.884 43.1943 199.442C42.8343 199 42.3467 198.779 41.7314 198.779C41.0798 198.779 40.5557 199.007 40.1592 199.463C39.7627 199.914 39.5645 200.481 39.5645 201.165ZM52.2998 201.78H47.3574C47.3757 202.56 47.5853 203.161 47.9863 203.585C48.3874 204.009 48.9388 204.221 49.6406 204.221C50.429 204.221 51.1536 203.961 51.8145 203.441V204.494C51.1992 204.941 50.3857 205.164 49.374 205.164C48.3851 205.164 47.6081 204.847 47.043 204.214C46.4779 203.576 46.1953 202.68 46.1953 201.527C46.1953 200.438 46.5029 199.552 47.1182 198.868C47.738 198.18 48.5059 197.836 49.4219 197.836C50.3379 197.836 51.0465 198.132 51.5479 198.725C52.0492 199.317 52.2998 200.14 52.2998 201.192V201.78ZM51.1514 200.83C51.1468 200.183 50.9896 199.679 50.6797 199.319C50.3743 198.959 49.9482 198.779 49.4014 198.779C48.8727 198.779 48.4238 198.968 48.0547 199.347C47.6855 199.725 47.4577 200.219 47.3711 200.83H51.1514ZM59.8672 205H58.8555V199.415C58.7552 199.611 58.6025 199.887 58.3975 200.242L55.1641 205H54.002V198H55.0273V203.517C55.082 203.384 55.2005 203.159 55.3828 202.84L58.7051 198H59.8672V205ZM59.457 194.596C59.3887 195.238 59.1289 195.746 58.6777 196.12C58.2311 196.489 57.6706 196.674 56.9961 196.674C56.3034 196.674 55.7383 196.489 55.3008 196.12C54.8678 195.746 54.6309 195.238 54.5898 194.596H55.6973C55.7611 195.452 56.1986 195.881 57.0098 195.881C57.3743 195.881 57.6751 195.769 57.9121 195.546C58.1491 195.318 58.2949 195.001 58.3496 194.596H59.457ZM66.5322 198.957H64.4336V205H63.3125V198.957H61.207V198H66.5322V198.957ZM73.7441 205H72.7324V199.415C72.6322 199.611 72.4795 199.887 72.2744 200.242L69.041 205H67.8789V198H68.9043V203.517C68.959 203.384 69.0775 203.159 69.2598 202.84L72.582 198H73.7441V205ZM85.666 205H84.0938L81.0039 201.637H80.9766V205H79.8555V198H80.9766V201.206H81.0039L83.9434 198H85.4131L82.166 201.377L85.666 205ZM91.8047 203.988H91.7773V208.22H90.6562V198H91.7773V199.23H91.8047C92.3561 198.301 93.1628 197.836 94.2246 197.836C95.127 197.836 95.8311 198.15 96.3369 198.779C96.8428 199.404 97.0957 200.242 97.0957 201.295C97.0957 202.466 96.8109 203.405 96.2412 204.111C95.6715 204.813 94.8923 205.164 93.9033 205.164C92.9964 205.164 92.2969 204.772 91.8047 203.988ZM91.7773 201.165V202.143C91.7773 202.721 91.9642 203.214 92.3379 203.619C92.7161 204.02 93.1947 204.221 93.7734 204.221C94.4525 204.221 94.9834 203.961 95.3662 203.441C95.7536 202.922 95.9473 202.2 95.9473 201.274C95.9473 200.495 95.7673 199.884 95.4072 199.442C95.0472 199 94.5596 198.779 93.9443 198.779C93.2926 198.779 92.7686 199.007 92.3721 199.463C91.9756 199.914 91.7773 200.481 91.7773 201.165ZM104.513 201.78H99.5703C99.5885 202.56 99.7982 203.161 100.199 203.585C100.6 204.009 101.152 204.221 101.854 204.221C102.642 204.221 103.367 203.961 104.027 203.441V204.494C103.412 204.941 102.599 205.164 101.587 205.164C100.598 205.164 99.821 204.847 99.2559 204.214C98.6908 203.576 98.4082 202.68 98.4082 201.527C98.4082 200.438 98.7158 199.552 99.3311 198.868C99.9508 198.18 100.719 197.836 101.635 197.836C102.551 197.836 103.259 198.132 103.761 198.725C104.262 199.317 104.513 200.14 104.513 201.192V201.78ZM103.364 200.83C103.36 200.183 103.202 199.679 102.893 199.319C102.587 198.959 102.161 198.779 101.614 198.779C101.086 198.779 100.637 198.968 100.268 199.347C99.8984 199.725 99.6706 200.219 99.584 200.83H103.364ZM105.627 204.802V203.701C106.238 204.043 106.951 204.214 107.767 204.214C109.002 204.214 109.619 203.822 109.619 203.038C109.619 202.263 108.942 201.876 107.589 201.876H106.898V200.926H107.555C108.744 200.926 109.339 200.557 109.339 199.818C109.339 199.504 109.202 199.253 108.929 199.066C108.655 198.88 108.282 198.786 107.808 198.786C107.129 198.786 106.447 198.957 105.764 199.299V198.253C106.538 197.97 107.249 197.829 107.896 197.829C109.601 197.829 110.453 198.456 110.453 199.709C110.453 200.115 110.326 200.465 110.07 200.762C109.82 201.053 109.466 201.247 109.011 201.343V201.377C109.53 201.418 109.947 201.593 110.262 201.903C110.576 202.213 110.733 202.605 110.733 203.079C110.733 203.717 110.476 204.225 109.961 204.604C109.446 204.982 108.737 205.171 107.835 205.171C106.873 205.171 106.137 205.048 105.627 204.802ZM118.034 198L114.814 206.121C114.24 207.57 113.434 208.295 112.395 208.295C112.103 208.295 111.859 208.265 111.663 208.206V207.201C111.905 207.283 112.126 207.324 112.326 207.324C112.891 207.324 113.315 206.987 113.598 206.312L114.158 204.986L111.424 198H112.668L114.562 203.387C114.584 203.455 114.632 203.633 114.705 203.92H114.746C114.769 203.811 114.814 203.637 114.883 203.4L116.872 198H118.034ZM123.585 205H122.471V198.95H120.844C120.657 201.215 120.336 202.806 119.88 203.722C119.429 204.638 118.82 205.096 118.055 205.096C117.822 205.096 117.622 205.064 117.453 205V204.036C117.613 204.118 117.786 204.159 117.973 204.159C118.975 204.159 119.62 202.106 119.907 198H123.585V205ZM125.861 205V198H126.982V200.687H128.869C129.585 200.687 130.152 200.873 130.571 201.247C130.995 201.621 131.207 202.143 131.207 202.812C131.207 203.487 130.995 204.02 130.571 204.412C130.147 204.804 129.612 205 128.965 205H125.861ZM126.982 201.65V204.043H128.664C129.594 204.043 130.059 203.633 130.059 202.812C130.059 202.038 129.589 201.65 128.65 201.65H126.982ZM136.724 198.957H134.625V205H133.504V198.957H131.398V198H136.724V198.957ZM143.081 205H141.96V203.906H141.933C141.445 204.745 140.727 205.164 139.779 205.164C139.082 205.164 138.535 204.979 138.139 204.61C137.747 204.241 137.551 203.751 137.551 203.141C137.551 201.833 138.321 201.072 139.861 200.857L141.96 200.563C141.96 199.374 141.479 198.779 140.518 198.779C139.674 198.779 138.913 199.066 138.234 199.641V198.492C138.923 198.055 139.715 197.836 140.613 197.836C142.258 197.836 143.081 198.706 143.081 200.447V205ZM141.96 201.459L140.271 201.691C139.752 201.764 139.36 201.894 139.096 202.081C138.831 202.263 138.699 202.589 138.699 203.059C138.699 203.4 138.82 203.681 139.062 203.899C139.308 204.114 139.633 204.221 140.039 204.221C140.595 204.221 141.053 204.027 141.413 203.64C141.778 203.248 141.96 202.753 141.96 202.156V201.459ZM149.589 198.957H147.49V205H146.369V198.957H144.264V198H149.589V198.957ZM155.946 205H154.825V203.906H154.798C154.31 204.745 153.592 205.164 152.645 205.164C151.947 205.164 151.4 204.979 151.004 204.61C150.612 204.241 150.416 203.751 150.416 203.141C150.416 201.833 151.186 201.072 152.727 200.857L154.825 200.563C154.825 199.374 154.344 198.779 153.383 198.779C152.54 198.779 151.779 199.066 151.1 199.641V198.492C151.788 198.055 152.581 197.836 153.479 197.836C155.124 197.836 155.946 198.706 155.946 200.447V205ZM154.825 201.459L153.137 201.691C152.617 201.764 152.225 201.894 151.961 202.081C151.697 202.263 151.564 202.589 151.564 203.059C151.564 203.4 151.685 203.681 151.927 203.899C152.173 204.114 152.499 204.221 152.904 204.221C153.46 204.221 153.918 204.027 154.278 203.64C154.643 203.248 154.825 202.753 154.825 202.156V201.459ZM165.619 205H164.512V199.23C164.411 199.522 164.257 199.951 164.047 200.516L162.297 205H161.292L159.487 200.516C159.392 200.274 159.237 199.846 159.022 199.23V205H158.059V198H159.487L161.333 202.566C161.465 202.899 161.634 203.359 161.839 203.947L162.338 202.594L164.129 198H165.619V205Z" fill="#F2F2F4"/>
<path opacity="0.3" fill-rule="evenodd" clip-rule="evenodd" d="M222.669 194.182C222.92 194.424 222.92 194.817 222.669 195.06L221.195 196.483H229.071C231.793 196.483 234 198.613 234 201.241C234 203.869 231.793 206 229.071 206H223.071C222.716 206 222.429 205.722 222.429 205.379C222.429 205.037 222.716 204.759 223.071 204.759H229.071C231.083 204.759 232.714 203.184 232.714 201.241C232.714 199.299 231.083 197.724 229.071 197.724H221.195L222.669 199.147C222.92 199.39 222.92 199.783 222.669 200.025C222.418 200.267 222.011 200.267 221.76 200.025L219.188 197.542C218.937 197.3 218.937 196.907 219.188 196.665L221.76 194.182C222.011 193.939 222.418 193.939 222.669 194.182Z" fill="#F2F2F4"/>
<path opacity="0.3" d="M250.654 205H249.506V200.529H244.434V205H243.285V195.197H244.434V199.497H249.506V195.197H250.654V205ZM256 205.164C254.965 205.164 254.138 204.838 253.519 204.187C252.903 203.53 252.596 202.662 252.596 201.582C252.596 200.406 252.917 199.488 253.56 198.827C254.202 198.166 255.07 197.836 256.164 197.836C257.208 197.836 258.021 198.157 258.604 198.8C259.192 199.442 259.486 200.333 259.486 201.473C259.486 202.589 259.17 203.485 258.536 204.159C257.907 204.829 257.062 205.164 256 205.164ZM256.082 198.779C255.362 198.779 254.792 199.025 254.373 199.518C253.954 200.005 253.744 200.68 253.744 201.541C253.744 202.37 253.956 203.024 254.38 203.503C254.804 203.981 255.371 204.221 256.082 204.221C256.807 204.221 257.363 203.986 257.75 203.517C258.142 203.047 258.338 202.38 258.338 201.514C258.338 200.639 258.142 199.964 257.75 199.49C257.363 199.016 256.807 198.779 256.082 198.779ZM261.277 205V198H264.326C265.014 198 265.557 198.153 265.953 198.458C266.354 198.763 266.555 199.18 266.555 199.709C266.555 200.616 266.108 201.167 265.215 201.363C266.286 201.5 266.821 202.04 266.821 202.983C266.821 203.553 266.6 204.032 266.158 204.419C265.721 204.806 265.176 205 264.524 205H261.277ZM262.398 198.957V200.926H264.08C264.982 200.926 265.434 200.575 265.434 199.873C265.434 199.262 265.028 198.957 264.217 198.957H262.398ZM262.398 201.883V204.043H264.34C265.247 204.043 265.7 203.676 265.7 202.942C265.7 202.236 265.192 201.883 264.176 201.883H262.398ZM276.357 205H275.25V198H276.357V205ZM268.701 205V198H269.822V200.687H271.709C272.424 200.687 272.992 200.873 273.411 201.247C273.835 201.621 274.047 202.143 274.047 202.812C274.047 203.487 273.835 204.02 273.411 204.412C272.987 204.804 272.452 205 271.805 205H268.701ZM269.822 201.65V204.043H271.504C272.434 204.043 272.898 203.633 272.898 202.812C272.898 202.038 272.429 201.65 271.49 201.65H269.822ZM284.506 205H283.494V199.415C283.394 199.611 283.241 199.887 283.036 200.242L279.803 205H278.641V198H279.666V203.517C279.721 203.384 279.839 203.159 280.021 202.84L283.344 198H284.506V205ZM284.096 194.596C284.027 195.238 283.768 195.746 283.316 196.12C282.87 196.489 282.309 196.674 281.635 196.674C280.942 196.674 280.377 196.489 279.939 196.12C279.507 195.746 279.27 195.238 279.229 194.596H280.336C280.4 195.452 280.837 195.881 281.648 195.881C282.013 195.881 282.314 195.769 282.551 195.546C282.788 195.318 282.934 195.001 282.988 194.596H284.096ZM296.428 205H295.307V198.957H291.738V205H290.617V198H296.428V205ZM301.623 205.164C300.589 205.164 299.761 204.838 299.142 204.187C298.526 203.53 298.219 202.662 298.219 201.582C298.219 200.406 298.54 199.488 299.183 198.827C299.825 198.166 300.693 197.836 301.787 197.836C302.831 197.836 303.644 198.157 304.228 198.8C304.815 199.442 305.109 200.333 305.109 201.473C305.109 202.589 304.793 203.485 304.159 204.159C303.53 204.829 302.685 205.164 301.623 205.164ZM301.705 198.779C300.985 198.779 300.415 199.025 299.996 199.518C299.577 200.005 299.367 200.68 299.367 201.541C299.367 202.37 299.579 203.024 300.003 203.503C300.427 203.981 300.994 204.221 301.705 204.221C302.43 204.221 302.986 203.986 303.373 203.517C303.765 203.047 303.961 202.38 303.961 201.514C303.961 200.639 303.765 199.964 303.373 199.49C302.986 199.016 302.43 198.779 301.705 198.779ZM312.766 205H311.754V199.415C311.654 199.611 311.501 199.887 311.296 200.242L308.062 205H306.9V198H307.926V203.517C307.98 203.384 308.099 203.159 308.281 202.84L311.604 198H312.766V205ZM319.807 204.679C319.269 205.002 318.631 205.164 317.893 205.164C316.895 205.164 316.088 204.84 315.473 204.193C314.862 203.542 314.557 202.699 314.557 201.664C314.557 200.511 314.887 199.586 315.548 198.889C316.209 198.187 317.09 197.836 318.193 197.836C318.809 197.836 319.351 197.95 319.82 198.178V199.326C319.301 198.962 318.745 198.779 318.152 198.779C317.437 198.779 316.849 199.037 316.389 199.552C315.933 200.062 315.705 200.734 315.705 201.568C315.705 202.389 315.919 203.036 316.348 203.51C316.781 203.984 317.359 204.221 318.084 204.221C318.695 204.221 319.269 204.018 319.807 203.612V204.679ZM327.312 205H325.74L322.65 201.637H322.623V205H321.502V198H322.623V201.206H322.65L325.59 198H327.06L323.812 201.377L327.312 205Z" fill="#F2F2F4"/>
<path d="M4.24512 154.668V160H1.81494V145.296H6.27539C7.96387 145.296 9.27295 145.689 10.2026 146.475C11.1323 147.261 11.5972 148.369 11.5972 149.797C11.5972 151.226 11.1118 152.395 10.1411 153.304C9.17041 154.213 7.85791 154.668 6.20361 154.668H4.24512ZM4.24512 147.306V152.679H5.82422C6.87012 152.679 7.6665 152.436 8.21338 151.951C8.76025 151.465 9.03369 150.782 9.03369 149.9C9.03369 148.17 8.02881 147.306 6.01904 147.306H4.24512ZM21.2563 160H18.9492V158.359H18.9082C18.1836 159.617 17.1206 160.246 15.7192 160.246C14.687 160.246 13.877 159.966 13.2891 159.405C12.708 158.845 12.4175 158.103 12.4175 157.18C12.4175 155.198 13.5591 154.042 15.8423 153.714L18.9595 153.273C18.9595 151.776 18.2485 151.028 16.8267 151.028C15.5757 151.028 14.4478 151.458 13.4429 152.32V150.238C14.5503 149.582 15.8286 149.254 17.2778 149.254C19.9302 149.254 21.2563 150.56 21.2563 153.171V160ZM18.9595 154.842L16.7549 155.15C16.0713 155.239 15.5552 155.406 15.2065 155.652C14.8647 155.892 14.6938 156.315 14.6938 156.924C14.6938 157.368 14.8511 157.734 15.1655 158.021C15.4868 158.301 15.9141 158.441 16.4473 158.441C17.1719 158.441 17.77 158.188 18.2417 157.683C18.7202 157.17 18.9595 156.527 18.9595 155.755V154.842ZM31.6846 159.518C30.8438 160.003 29.8491 160.246 28.7007 160.246C27.1421 160.246 25.8843 159.761 24.9272 158.79C23.9702 157.812 23.4917 156.548 23.4917 154.996C23.4917 153.267 24.0044 151.879 25.0298 150.833C26.062 149.78 27.4395 149.254 29.1621 149.254C30.1191 149.254 30.9634 149.421 31.6948 149.756V151.971C30.9634 151.424 30.1841 151.151 29.3569 151.151C28.3521 151.151 27.5283 151.493 26.8857 152.176C26.2432 152.853 25.9219 153.742 25.9219 154.842C25.9219 155.929 26.2227 156.787 26.8242 157.416C27.4326 158.045 28.2461 158.359 29.2646 158.359C30.1191 158.359 30.9258 158.055 31.6846 157.447V159.518ZM43.4048 160H41.0156V151.315H36.4424V160H34.0532V149.5H43.4048V160ZM51.1567 160.246C49.5366 160.246 48.2412 159.757 47.2705 158.78C46.3066 157.795 45.8247 156.493 45.8247 154.873C45.8247 153.109 46.3271 151.732 47.332 150.741C48.3438 149.75 49.7041 149.254 51.4131 149.254C53.0537 149.254 54.332 149.736 55.248 150.7C56.1641 151.664 56.6221 153 56.6221 154.709C56.6221 156.384 56.1265 157.727 55.1353 158.739C54.1509 159.744 52.8247 160.246 51.1567 160.246ZM51.2695 151.151C50.3398 151.151 49.605 151.476 49.0649 152.125C48.5249 152.774 48.2549 153.67 48.2549 154.812C48.2549 155.912 48.5283 156.78 49.0752 157.416C49.6221 158.045 50.3535 158.359 51.2695 158.359C52.2061 158.359 52.9238 158.048 53.4229 157.426C53.9287 156.804 54.1816 155.919 54.1816 154.771C54.1816 153.615 53.9287 152.723 53.4229 152.094C52.9238 151.465 52.2061 151.151 51.2695 151.151ZM58.3242 159.713V157.754C59.2129 158.247 60.252 158.493 61.4414 158.493C63.1162 158.493 63.9536 157.987 63.9536 156.975C63.9536 155.963 62.9658 155.458 60.9902 155.458H59.9854V153.776H60.9492C62.7061 153.776 63.5845 153.294 63.5845 152.33C63.5845 151.927 63.3965 151.605 63.0205 151.366C62.6514 151.127 62.1455 151.007 61.5029 151.007C60.5254 151.007 59.5479 151.24 58.5703 151.705V149.838C59.7529 149.442 60.8398 149.244 61.8311 149.244C64.6133 149.244 66.0044 150.187 66.0044 152.074C66.0044 152.682 65.8027 153.205 65.3994 153.643C65.0029 154.08 64.4424 154.371 63.7178 154.514V154.565C64.5176 154.627 65.1602 154.887 65.6455 155.345C66.1309 155.803 66.3735 156.384 66.3735 157.088C66.3735 158.045 65.9565 158.807 65.1226 159.375C64.2886 159.942 63.1401 160.226 61.6772 160.226C60.2144 160.226 59.0967 160.055 58.3242 159.713ZM78.104 160H75.7148V155.406H71.1416V160H68.7524V149.5H71.1416V153.622H75.7148V149.5H78.104V160ZM89.2603 160H86.9531V158.359H86.9121C86.1875 159.617 85.1245 160.246 83.7231 160.246C82.6909 160.246 81.8809 159.966 81.293 159.405C80.7119 158.845 80.4214 158.103 80.4214 157.18C80.4214 155.198 81.563 154.042 83.8462 153.714L86.9634 153.273C86.9634 151.776 86.2524 151.028 84.8306 151.028C83.5796 151.028 82.4517 151.458 81.4468 152.32V150.238C82.5542 149.582 83.8325 149.254 85.2817 149.254C87.9341 149.254 89.2603 150.56 89.2603 153.171V160ZM86.9634 154.842L84.7588 155.15C84.0752 155.239 83.5591 155.406 83.2104 155.652C82.8687 155.892 82.6978 156.315 82.6978 156.924C82.6978 157.368 82.855 157.734 83.1694 158.021C83.4907 158.301 83.918 158.441 84.4512 158.441C85.1758 158.441 85.7739 158.188 86.2456 157.683C86.7241 157.17 86.9634 156.527 86.9634 155.755V154.842ZM101.524 160H99.1348V155.406H94.5615V160H92.1724V149.5H94.5615V153.622H99.1348V149.5H101.524V160ZM109.276 160.246C107.656 160.246 106.36 159.757 105.39 158.78C104.426 157.795 103.944 156.493 103.944 154.873C103.944 153.109 104.446 151.732 105.451 150.741C106.463 149.75 107.823 149.254 109.532 149.254C111.173 149.254 112.451 149.736 113.367 150.7C114.283 151.664 114.741 153 114.741 154.709C114.741 156.384 114.246 157.727 113.254 158.739C112.27 159.744 110.944 160.246 109.276 160.246ZM109.389 151.151C108.459 151.151 107.724 151.476 107.184 152.125C106.644 152.774 106.374 153.67 106.374 154.812C106.374 155.912 106.647 156.78 107.194 157.416C107.741 158.045 108.473 158.359 109.389 158.359C110.325 158.359 111.043 158.048 111.542 157.426C112.048 156.804 112.301 155.919 112.301 154.771C112.301 153.615 112.048 152.723 111.542 152.094C111.043 151.465 110.325 151.151 109.389 151.151ZM123.108 159.723V157.662C123.901 158.127 124.742 158.359 125.631 158.359C126.923 158.359 127.928 157.891 128.646 156.955C129.363 156.011 129.722 154.675 129.722 152.945C129.708 152.952 129.695 152.952 129.681 152.945C129.073 154.08 128.013 154.647 126.502 154.647C125.279 154.647 124.271 154.217 123.478 153.355C122.691 152.487 122.298 151.373 122.298 150.013C122.298 148.563 122.763 147.374 123.693 146.444C124.623 145.515 125.809 145.05 127.251 145.05C128.769 145.05 129.951 145.624 130.799 146.772C131.653 147.914 132.081 149.582 132.081 151.776C132.081 154.483 131.527 156.572 130.419 158.042C129.312 159.511 127.774 160.246 125.805 160.246C124.766 160.246 123.867 160.072 123.108 159.723ZM127.087 146.947C126.396 146.947 125.819 147.217 125.354 147.757C124.889 148.297 124.657 148.98 124.657 149.808C124.657 150.724 124.882 151.441 125.333 151.961C125.792 152.48 126.41 152.74 127.189 152.74C127.866 152.74 128.437 152.504 128.902 152.033C129.374 151.554 129.609 150.97 129.609 150.279C129.609 149.302 129.374 148.502 128.902 147.88C128.437 147.258 127.832 146.947 127.087 146.947ZM143.821 146.26L138.284 160H135.782L141.166 147.326H133.998V145.296H143.821V146.26ZM161.427 160H159.038V151.315H154.465V160H152.076V149.5H161.427V160ZM169.179 160.246C167.559 160.246 166.264 159.757 165.293 158.78C164.329 157.795 163.847 156.493 163.847 154.873C163.847 153.109 164.35 151.732 165.354 150.741C166.366 149.75 167.727 149.254 169.436 149.254C171.076 149.254 172.354 149.736 173.271 150.7C174.187 151.664 174.645 153 174.645 154.709C174.645 156.384 174.149 157.727 173.158 158.739C172.173 159.744 170.847 160.246 169.179 160.246ZM169.292 151.151C168.362 151.151 167.627 151.476 167.087 152.125C166.547 152.774 166.277 153.67 166.277 154.812C166.277 155.912 166.551 156.78 167.098 157.416C167.645 158.045 168.376 158.359 169.292 158.359C170.229 158.359 170.946 158.048 171.445 157.426C171.951 156.804 172.204 155.919 172.204 154.771C172.204 153.615 171.951 152.723 171.445 152.094C170.946 151.465 170.229 151.151 169.292 151.151ZM176.347 159.713V157.754C177.235 158.247 178.274 158.493 179.464 158.493C181.139 158.493 181.976 157.987 181.976 156.975C181.976 155.963 180.988 155.458 179.013 155.458H178.008V153.776H178.972C180.729 153.776 181.607 153.294 181.607 152.33C181.607 151.927 181.419 151.605 181.043 151.366C180.674 151.127 180.168 151.007 179.525 151.007C178.548 151.007 177.57 151.24 176.593 151.705V149.838C177.775 149.442 178.862 149.244 179.854 149.244C182.636 149.244 184.027 150.187 184.027 152.074C184.027 152.682 183.825 153.205 183.422 153.643C183.025 154.08 182.465 154.371 181.74 154.514V154.565C182.54 154.627 183.183 154.887 183.668 155.345C184.153 155.803 184.396 156.384 184.396 157.088C184.396 158.045 183.979 158.807 183.145 159.375C182.311 159.942 181.163 160.226 179.7 160.226C178.237 160.226 177.119 160.055 176.347 159.713ZM196.311 160H194.158V152.299C194.021 152.573 193.812 152.952 193.532 153.438L189.113 160H186.775V149.5H188.959V157.047C189.034 156.869 189.195 156.562 189.441 156.124L193.922 149.5H196.311V160ZM210.39 163.825H208.4V160H199.428V149.5H201.817V158.185H206.391V149.5H208.78V158.185H210.39V163.825ZM222.048 160H219.895V152.299C219.758 152.573 219.55 152.952 219.27 153.438L214.85 160H212.512V149.5H214.696V157.047C214.771 156.869 214.932 156.562 215.178 156.124L219.659 149.5H222.048V160ZM234.702 160H232.548V152.299C232.412 152.573 232.203 152.952 231.923 153.438L227.503 160H225.166V149.5H227.35V157.047C227.425 156.869 227.585 156.562 227.832 156.124L232.312 149.5H234.702V160ZM234.015 144.445C233.905 145.47 233.481 146.28 232.743 146.875C232.012 147.463 231.092 147.757 229.985 147.757C228.85 147.757 227.924 147.463 227.206 146.875C226.495 146.28 226.105 145.47 226.037 144.445H228.016C228.112 145.689 228.778 146.311 230.016 146.311C230.562 146.311 231.014 146.147 231.369 145.819C231.731 145.491 231.954 145.033 232.036 144.445H234.015Z" fill="#F2F2F4"/>
<rect y="277" width="372" height="5" rx="2.5" fill="#0054FF"/>
<path d="M7.71094 261H1.375V259.875H3.90625V251.172L1.3125 251.945V250.727L5.1875 249.547V259.875H7.71094V261ZM12.8281 261.188C11.7188 261.188 10.8516 260.711 10.2266 259.758C9.60677 258.805 9.29688 257.427 9.29688 255.625C9.29688 253.646 9.61979 252.148 10.2656 251.133C10.9167 250.117 11.8542 249.609 13.0781 249.609C15.4219 249.609 16.5938 251.523 16.5938 255.352C16.5938 257.247 16.263 258.695 15.6016 259.695C14.9401 260.69 14.0156 261.188 12.8281 261.188ZM13.0078 250.695C11.4089 250.695 10.6094 252.318 10.6094 255.562C10.6094 258.594 11.3932 260.109 12.9609 260.109C14.5078 260.109 15.2812 258.568 15.2812 255.484C15.2812 252.292 14.5234 250.695 13.0078 250.695ZM21.4531 261.188C20.3438 261.188 19.4766 260.711 18.8516 259.758C18.2318 258.805 17.9219 257.427 17.9219 255.625C17.9219 253.646 18.2448 252.148 18.8906 251.133C19.5417 250.117 20.4792 249.609 21.7031 249.609C24.0469 249.609 25.2188 251.523 25.2188 255.352C25.2188 257.247 24.888 258.695 24.2266 259.695C23.5651 260.69 22.6406 261.188 21.4531 261.188ZM21.6328 250.695C20.0339 250.695 19.2344 252.318 19.2344 255.562C19.2344 258.594 20.0182 260.109 21.5859 260.109C23.1328 260.109 23.9062 258.568 23.9062 255.484C23.9062 252.292 23.1484 250.695 21.6328 250.695ZM29.0312 255.414C28.2604 255.414 27.6458 255.161 27.1875 254.656C26.7292 254.146 26.5 253.466 26.5 252.617C26.5 251.69 26.7422 250.961 27.2266 250.43C27.7109 249.893 28.3646 249.625 29.1875 249.625C29.9844 249.625 30.6016 249.872 31.0391 250.367C31.4818 250.862 31.7031 251.557 31.7031 252.453C31.7031 253.349 31.4557 254.068 30.9609 254.609C30.4714 255.146 29.8281 255.414 29.0312 255.414ZM29.1406 250.484C28.6458 250.484 28.2552 250.669 27.9688 251.039C27.6823 251.404 27.5391 251.906 27.5391 252.547C27.5391 253.177 27.6797 253.669 27.9609 254.023C28.2422 254.372 28.625 254.547 29.1094 254.547C29.599 254.547 29.9818 254.365 30.2578 254C30.5339 253.635 30.6719 253.13 30.6719 252.484C30.6719 251.854 30.5339 251.365 30.2578 251.016C29.987 250.661 29.6146 250.484 29.1406 250.484ZM36.5312 249.797L29.3438 261.078H28.2266L35.4062 249.797H36.5312ZM35.7031 261.172C34.9323 261.172 34.3177 260.917 33.8594 260.406C33.401 259.896 33.1719 259.219 33.1719 258.375C33.1719 257.448 33.4167 256.716 33.9062 256.18C34.3958 255.638 35.0469 255.367 35.8594 255.367C36.651 255.367 37.2682 255.617 37.7109 256.117C38.1536 256.617 38.375 257.318 38.375 258.219C38.375 259.109 38.1276 259.826 37.6328 260.367C37.1432 260.904 36.5 261.172 35.7031 261.172ZM35.8125 256.25C35.3125 256.25 34.9193 256.432 34.6328 256.797C34.3516 257.161 34.2109 257.667 34.2109 258.312C34.2109 258.932 34.3516 259.419 34.6328 259.773C34.9141 260.122 35.2969 260.297 35.7812 260.297C36.2708 260.297 36.6536 260.115 36.9297 259.75C37.2057 259.38 37.3438 258.875 37.3438 258.234C37.3438 257.599 37.2057 257.109 36.9297 256.766C36.6589 256.422 36.2865 256.25 35.8125 256.25ZM44.1094 260.531V259.109C44.9844 259.75 45.9766 260.07 47.0859 260.07C47.8932 260.07 48.5339 259.875 49.0078 259.484C49.487 259.094 49.7266 258.568 49.7266 257.906C49.7266 256.469 48.7552 255.75 46.8125 255.75H45.6484V254.664H46.7188C47.5469 254.664 48.1875 254.484 48.6406 254.125C49.099 253.766 49.3281 253.258 49.3281 252.602C49.3281 252.039 49.138 251.589 48.7578 251.25C48.3828 250.911 47.8646 250.742 47.2031 250.742C46.2656 250.742 45.3542 251.036 44.4688 251.625V250.297C45.2917 249.839 46.2396 249.609 47.3125 249.609C48.375 249.609 49.2109 249.862 49.8203 250.367C50.4297 250.872 50.7344 251.536 50.7344 252.359C50.7344 253.812 50.026 254.729 48.6094 255.109V255.141C49.3802 255.229 49.9922 255.518 50.4453 256.008C50.8984 256.497 51.125 257.104 51.125 257.828C51.125 258.854 50.7604 259.672 50.0312 260.281C49.3021 260.885 48.3047 261.188 47.0391 261.188C45.7734 261.188 44.7969 260.969 44.1094 260.531ZM59.0234 261H57.7422V259.75H57.7109C57.1536 260.708 56.3333 261.188 55.25 261.188C54.4531 261.188 53.8281 260.977 53.375 260.555C52.9271 260.133 52.7031 259.573 52.7031 258.875C52.7031 257.38 53.5833 256.51 55.3438 256.266L57.7422 255.93C57.7422 254.57 57.1927 253.891 56.0938 253.891C55.1302 253.891 54.2604 254.219 53.4844 254.875V253.562C54.2708 253.062 55.1771 252.812 56.2031 252.812C58.0833 252.812 59.0234 253.807 59.0234 255.797V261ZM57.7422 256.953L55.8125 257.219C55.2188 257.302 54.7708 257.451 54.4688 257.664C54.1667 257.872 54.0156 258.245 54.0156 258.781C54.0156 259.172 54.1536 259.492 54.4297 259.742C54.7109 259.987 55.0833 260.109 55.5469 260.109C56.1823 260.109 56.7057 259.888 57.1172 259.445C57.5339 258.997 57.7422 258.432 57.7422 257.75V256.953ZM61.4375 261V253H64.9219C65.7083 253 66.3281 253.174 66.7812 253.523C67.2396 253.872 67.4688 254.349 67.4688 254.953C67.4688 255.99 66.9583 256.62 65.9375 256.844C67.1615 257 67.7734 257.617 67.7734 258.695C67.7734 259.346 67.5208 259.893 67.0156 260.336C66.5156 260.779 65.8932 261 65.1484 261H61.4375ZM62.7188 254.094V256.344H64.6406C65.6719 256.344 66.1875 255.943 66.1875 255.141C66.1875 254.443 65.724 254.094 64.7969 254.094H62.7188ZM62.7188 257.438V259.906H64.9375C65.974 259.906 66.4922 259.487 66.4922 258.648C66.4922 257.841 65.9115 257.438 64.75 257.438H62.7188ZM76.3516 257.32H70.7031C70.724 258.211 70.9635 258.898 71.4219 259.383C71.8802 259.867 72.5104 260.109 73.3125 260.109C74.2135 260.109 75.0417 259.812 75.7969 259.219V260.422C75.0938 260.932 74.1641 261.188 73.0078 261.188C71.8776 261.188 70.9896 260.826 70.3438 260.102C69.6979 259.372 69.375 258.349 69.375 257.031C69.375 255.786 69.7266 254.773 70.4297 253.992C71.138 253.206 72.0156 252.812 73.0625 252.812C74.1094 252.812 74.9193 253.151 75.4922 253.828C76.0651 254.505 76.3516 255.445 76.3516 256.648V257.32ZM75.0391 256.234C75.0339 255.495 74.8542 254.919 74.5 254.508C74.151 254.096 73.6641 253.891 73.0391 253.891C72.4349 253.891 71.9219 254.107 71.5 254.539C71.0781 254.971 70.8177 255.536 70.7188 256.234H75.0391ZM79.6094 259.844H79.5781V264.68H78.2969V253H79.5781V254.406H79.6094C80.2396 253.344 81.1615 252.812 82.375 252.812C83.4062 252.812 84.2109 253.172 84.7891 253.891C85.3672 254.604 85.6562 255.562 85.6562 256.766C85.6562 258.104 85.3307 259.177 84.6797 259.984C84.0286 260.786 83.138 261.188 82.0078 261.188C80.9714 261.188 80.1719 260.74 79.6094 259.844ZM79.5781 256.617V257.734C79.5781 258.396 79.7917 258.958 80.2188 259.422C80.651 259.88 81.1979 260.109 81.8594 260.109C82.6354 260.109 83.2422 259.812 83.6797 259.219C84.1224 258.625 84.3438 257.799 84.3438 256.742C84.3438 255.852 84.138 255.154 83.7266 254.648C83.3151 254.143 82.7578 253.891 82.0547 253.891C81.3099 253.891 80.7109 254.151 80.2578 254.672C79.8047 255.188 79.5781 255.836 79.5781 256.617ZM97.9062 261H87.7031V253H88.9844V259.906H92.1719V253H93.4453V259.906H96.625V253H97.9062V261ZM106.93 257.32H101.281C101.302 258.211 101.542 258.898 102 259.383C102.458 259.867 103.089 260.109 103.891 260.109C104.792 260.109 105.62 259.812 106.375 259.219V260.422C105.672 260.932 104.742 261.188 103.586 261.188C102.456 261.188 101.568 260.826 100.922 260.102C100.276 259.372 99.9531 258.349 99.9531 257.031C99.9531 255.786 100.305 254.773 101.008 253.992C101.716 253.206 102.594 252.812 103.641 252.812C104.688 252.812 105.497 253.151 106.07 253.828C106.643 254.505 106.93 255.445 106.93 256.648V257.32ZM105.617 256.234C105.612 255.495 105.432 254.919 105.078 254.508C104.729 254.096 104.242 253.891 103.617 253.891C103.013 253.891 102.5 254.107 102.078 254.539C101.656 254.971 101.396 255.536 101.297 256.234H105.617ZM115.516 261H114.234V257.367H110.156V261H108.875V253H110.156V256.281H114.234V253H115.516V261ZM121.453 261.188C120.271 261.188 119.326 260.815 118.617 260.07C117.914 259.32 117.562 258.328 117.562 257.094C117.562 255.75 117.93 254.701 118.664 253.945C119.398 253.19 120.391 252.812 121.641 252.812C122.833 252.812 123.763 253.18 124.43 253.914C125.102 254.648 125.438 255.667 125.438 256.969C125.438 258.245 125.076 259.268 124.352 260.039C123.633 260.805 122.667 261.188 121.453 261.188ZM121.547 253.891C120.724 253.891 120.073 254.172 119.594 254.734C119.115 255.292 118.875 256.062 118.875 257.047C118.875 257.995 119.117 258.742 119.602 259.289C120.086 259.836 120.734 260.109 121.547 260.109C122.375 260.109 123.01 259.841 123.453 259.305C123.901 258.768 124.125 258.005 124.125 257.016C124.125 256.016 123.901 255.245 123.453 254.703C123.01 254.161 122.375 253.891 121.547 253.891Z" fill="#2F74FF"/>
</svg>
