<svg width="54" height="54" viewBox="0 0 54 54" fill="none" xmlns="http://www.w3.org/2000/svg">
<path d="M27 1C41.3595 1 53 12.6405 53 27C53 41.3595 41.3595 53 27 53C12.6405 53 1 41.3595 1 27C1 12.6405 12.6405 1 27 1Z" stroke="url(#paint0_linear_972_771)" stroke-width="2"/>
<path fill-rule="evenodd" clip-rule="evenodd" d="M27 5C39.1503 5 49 14.8496 49 27C49 39.1503 39.1503 49 27 49C14.8496 49 5 39.1503 5 27C5 14.8496 14.8496 5 27 5Z" fill="#454545"/>
<path fill-rule="evenodd" clip-rule="evenodd" d="M26.9775 28.6527C24.3484 28.6527 22.2185 26.2201 22.2185 23.2211C22.2185 20.2221 24.3484 18 26.9775 18C29.6065 18 31.7384 20.2221 31.7384 23.2211C31.7384 26.2201 29.6065 28.6527 26.9775 28.6527ZM19.5748 35.9967C19.5748 35.9967 18.5649 36.0598 18.1202 35.4767C17.8799 35.1606 18.0472 34.5218 18.2117 34.1658L18.6145 33.2916C18.6145 33.2916 19.7266 30.9202 20.9935 29.5464C21.7719 28.7037 22.6972 28.8956 23.2956 29.1691C23.6644 29.3378 24.0818 29.8291 24.3863 30.0896C24.8057 30.4484 25.5471 30.8563 26.7585 30.8795H27.5019C28.7133 30.8563 29.4537 30.4484 29.8731 30.0896C30.1777 29.8291 30.5834 29.3229 30.9483 29.1487C31.498 28.8863 32.3338 28.725 33.0918 29.5464C34.3587 30.9202 35.3628 33.3343 35.3628 33.3343L35.7754 34.1918C35.9456 34.5459 36.1208 35.1819 35.8872 35.5008C35.4698 36.0718 34.5338 35.9967 34.5338 35.9967H19.5748Z" fill="#1D1D1D"/>
<defs>
<linearGradient id="paint0_linear_972_771" x1="27" y1="54" x2="27" y2="0" gradientUnits="userSpaceOnUse">
<stop offset="0.0205402" stop-color="#DD0858"/>
<stop offset="1" stop-color="#2764E0"/>
</linearGradient>
</defs>
</svg>
